<svg xmlns="http://www.w3.org/2000/svg" stroke-linecap="round" stroke-linejoin="round" width="390" height="560" viewBox="0 0 390 560" role="img" aria-label="LaManquita desde la Plaza del Obispo (de noche)"><defs><linearGradient id="mqsky" x1="0" y1="0" x2="0" y2="1"><stop offset="0" stop-color="#C98A86" /><stop offset=".3" stop-color="#E7A57C" /><stop offset=".7" stop-color="#F3CBA0" /><stop offset="1" stop-color="#F8E3C6" /></linearGradient><radialGradient id="mqglow"><stop offset="0" stop-color="#FFF4DD" stop-opacity=".9" /><stop offset=".3" stop-color="#FFF4DD" stop-opacity=".4" /><stop offset="1" stop-color="#FFF4DD" stop-opacity="0" /></radialGradient><pattern id="mqdots" width="7" height="7" patternUnits="userSpaceOnUse"><circle cx="1.5" cy="1.5" r=".8" fill="#C9A57E" opacity=".5" /><circle cx="5" cy="4.5" r=".6" fill="#C9A57E" opacity=".4" /></pattern><linearGradient id="mqcyl" x1="0" y1="0" x2="1" y2="0"><stop offset="0" stop-color="#FFF6E4" /><stop offset=".4" stop-color="#F2E0C0" /><stop offset="1" stop-color="#D9BF98" /></linearGradient><linearGradient id="mqsea" x1="0" y1="0" x2="0" y2="1"><stop offset="0" stop-color="#8FB9B4" /><stop offset="1" stop-color="#6E9FA0" /></linearGradient><filter id="mqnnightf" color-interpolation-filters="sRGB"><feColorMatrix type="matrix" values=".28 .07 .03 0 0  .05 .30 .07 0 .01  .07 .12 .42 0 .06  0 0 0 1 0" /></filter></defs><g id="sky"><defs><linearGradient id="mqnnight" x1="0" y1="0" x2="0" y2="1"><stop offset="0" stop-color="#141C36" /><stop offset=".5" stop-color="#1E2A4A" /><stop offset=".8" stop-color="#3B3F66" /><stop offset="1" stop-color="#5B4E6E" /></linearGradient><radialGradient id="mqnmoon"><stop offset="0" stop-color="#FFF4D6" stop-opacity=".55" /><stop offset="1" stop-color="#FFF4D6" stop-opacity="0" /></radialGradient></defs><rect x="0" y="0" width="390" height="560" fill="url(#mqnnight)" /><circle cx="111" cy="138" r="1" fill="#FFF6E0" opacity="0.5" /><circle cx="103" cy="118" r="1" fill="#FFF6E0" opacity="0.9" /><circle cx="292" cy="8" r="1.3" fill="#FFF6E0" opacity="0.7" /><circle cx="350" cy="188" r="1.3" fill="#FFF6E0" opacity="0.5" /><circle cx="17" cy="156" r="1.3" fill="#FFF6E0" opacity="0.5" /><circle cx="191" cy="10" r="0.8" fill="#FFF6E0" opacity="0.7" /><circle cx="182" cy="222" r="0.8" fill="#FFF6E0" opacity="0.7" /><circle cx="266" cy="159" r="1" fill="#FFF6E0" opacity="0.9" /><circle cx="38" cy="241" r="1" fill="#FFF6E0" opacity="0.7" /><circle cx="299" cy="170" r="1.3" fill="#FFF6E0" opacity="0.5" /><circle cx="374" cy="29" r="1.3" fill="#FFF6E0" opacity="0.5" /><circle cx="321" cy="252" r="1.3" fill="#FFF6E0" opacity="0.9" /><circle cx="199" cy="166" r="1" fill="#FFF6E0" opacity="0.7" /><circle cx="338" cy="185" r="1" fill="#FFF6E0" opacity="0.5" /><circle cx="275" cy="227" r="0.8" fill="#FFF6E0" opacity="0.5" /><circle cx="156" cy="153" r="0.8" fill="#FFF6E0" opacity="0.9" /><circle cx="376" cy="56" r="1" fill="#FFF6E0" opacity="0.9" /><circle cx="245" cy="268" r="0.8" fill="#FFF6E0" opacity="0.7" /><circle cx="21" cy="14" r="1.3" fill="#FFF6E0" opacity="0.9" /><circle cx="344" cy="220" r="0.8" fill="#FFF6E0" opacity="0.9" /><circle cx="299" cy="199" r="1.3" fill="#FFF6E0" opacity="0.5" /><circle cx="384" cy="290" r="1.3" fill="#FFF6E0" opacity="0.5" /><circle cx="64" cy="283" r="1" fill="#FFF6E0" opacity="0.9" /><circle cx="107" cy="270" r="0.8" fill="#FFF6E0" opacity="0.9" /><circle cx="127" cy="73" r="1.3" fill="#FFF6E0" opacity="0.5" /><circle cx="319" cy="256" r="1" fill="#FFF6E0" opacity="0.9" /><circle cx="147" cy="117" r="1.3" fill="#FFF6E0" opacity="0.5" /><circle cx="302" cy="78" r="0.8" fill="#FFF6E0" opacity="0.5" /><circle cx="189" cy="170" r="1" fill="#FFF6E0" opacity="0.5" /><circle cx="24" cy="68" r="0.8" fill="#FFF6E0" opacity="0.9" /><circle cx="36" cy="119" r="0.8" fill="#FFF6E0" opacity="0.5" /><circle cx="339" cy="65" r="0.8" fill="#FFF6E0" opacity="0.7" /><circle cx="288" cy="238" r="1" fill="#FFF6E0" opacity="0.7" /><circle cx="344" cy="110" r="0.8" fill="#FFF6E0" opacity="0.7" /><circle cx="98" cy="157" r="1.3" fill="#FFF6E0" opacity="0.5" /><circle cx="48" cy="242" r="0.8" fill="#FFF6E0" opacity="0.7" /><circle cx="17" cy="280" r="0.8" fill="#FFF6E0" opacity="0.5" /><circle cx="110" cy="200" r="0.8" fill="#FFF6E0" opacity="0.9" /><circle cx="259" cy="70" r="1" fill="#FFF6E0" opacity="0.5" /><circle cx="329" cy="114" r="1" fill="#FFF6E0" opacity="0.9" /><circle cx="107" cy="174" r="1" fill="#FFF6E0" opacity="0.9" /><circle cx="233" cy="196" r="0.8" fill="#FFF6E0" opacity="0.7" /><circle cx="125" cy="242" r="1" fill="#FFF6E0" opacity="0.5" /><circle cx="312" cy="204" r="1.3" fill="#FFF6E0" opacity="0.9" /><circle cx="43" cy="148" r="0.8" fill="#FFF6E0" opacity="0.5" /><circle cx="270" cy="264" r="1" fill="#FFF6E0" opacity="0.5" /><circle cx="261" cy="79" r="70" fill="url(#mqnmoon)" /><circle cx="261" cy="79" r="24" fill="#FFF3D2" /><circle cx="254" cy="75" r="5" fill="#EDDDB6" opacity=".7" /><circle cx="269" cy="86" r="3.5" fill="#EDDDB6" opacity=".7" /></g><g id="far"><g filter="url(#mqnnightf)"><path d="M110 214L150 150L240 150L280 214Z" fill="#C79E78" /><path d="M170 150Q195 104 220 150Z" fill="#B9896A" /><rect x="193" y="92" width="4" height="14" fill="#8A6A52" /></g></g><g id="mid"><g filter="url(#mqnnightf)"><rect x="30" y="228" width="92" height="242" fill="#EDD9B5" /><rect x="30" y="228" width="14" height="242" fill="#CDB28A" /><rect x="112" y="228" width="10" height="242" fill="#F7E8CB" /><rect x="48" y="236" width="7" height="234" fill="#F7E8CB" /><rect x="48" y="236" width="2" height="234" fill="#CDB28A" /><rect x="100" y="236" width="7" height="234" fill="#F7E8CB" /><rect x="100" y="236" width="2" height="234" fill="#CDB28A" /><rect x="26" y="220" width="100" height="3" fill="#CDB28A" /><rect x="28" y="223" width="2" height="6" fill="#CDB28A" /><rect x="33" y="223" width="2" height="6" fill="#CDB28A" /><rect x="38" y="223" width="2" height="6" fill="#CDB28A" /><rect x="43" y="223" width="2" height="6" fill="#CDB28A" /><rect x="48" y="223" width="2" height="6" fill="#CDB28A" /><rect x="53" y="223" width="2" height="6" fill="#CDB28A" /><rect x="58" y="223" width="2" height="6" fill="#CDB28A" /><rect x="63" y="223" width="2" height="6" fill="#CDB28A" /><rect x="68" y="223" width="2" height="6" fill="#CDB28A" /><rect x="73" y="223" width="2" height="6" fill="#CDB28A" /><rect x="78" y="223" width="2" height="6" fill="#CDB28A" /><rect x="83" y="223" width="2" height="6" fill="#CDB28A" /><rect x="88" y="223" width="2" height="6" fill="#CDB28A" /><rect x="93" y="223" width="2" height="6" fill="#CDB28A" /><rect x="98" y="223" width="2" height="6" fill="#CDB28A" /><rect x="103" y="223" width="2" height="6" fill="#CDB28A" /><rect x="108" y="223" width="2" height="6" fill="#CDB28A" /><rect x="113" y="223" width="2" height="6" fill="#CDB28A" /><rect x="118" y="223" width="2" height="6" fill="#CDB28A" /><rect x="123" y="223" width="2" height="6" fill="#CDB28A" /><rect x="26" y="229" width="100" height="2.5" fill="#CDB28A" /><path d="M27 220L30 208L33 220Z" fill="#EDD9B5" stroke="#CDB28A" stroke-width="1" /><circle cx="30" cy="207" r="2" fill="#EDD9B5" /><path d="M119 220L122 208L125 220Z" fill="#EDD9B5" stroke="#CDB28A" stroke-width="1" /><circle cx="122" cy="207" r="2" fill="#EDD9B5" /><rect x="40" y="150" width="72" height="70" fill="#EDD9B5" /><rect x="40" y="150" width="10" height="70" fill="#CDB28A" /><rect x="106" y="150" width="6" height="70" fill="#F7E8CB" /><rect x="36" y="142" width="80" height="3" fill="#CDB28A" /><rect x="38" y="145" width="2" height="6" fill="#CDB28A" /><rect x="43" y="145" width="2" height="6" fill="#CDB28A" /><rect x="48" y="145" width="2" height="6" fill="#CDB28A" /><rect x="53" y="145" width="2" height="6" fill="#CDB28A" /><rect x="58" y="145" width="2" height="6" fill="#CDB28A" /><rect x="63" y="145" width="2" height="6" fill="#CDB28A" /><rect x="68" y="145" width="2" height="6" fill="#CDB28A" /><rect x="73" y="145" width="2" height="6" fill="#CDB28A" /><rect x="78" y="145" width="2" height="6" fill="#CDB28A" /><rect x="83" y="145" width="2" height="6" fill="#CDB28A" /><rect x="88" y="145" width="2" height="6" fill="#CDB28A" /><rect x="93" y="145" width="2" height="6" fill="#CDB28A" /><rect x="98" y="145" width="2" height="6" fill="#CDB28A" /><rect x="103" y="145" width="2" height="6" fill="#CDB28A" /><rect x="108" y="145" width="2" height="6" fill="#CDB28A" /><rect x="113" y="145" width="2" height="6" fill="#CDB28A" /><rect x="36" y="151" width="80" height="2.5" fill="#CDB28A" /><path d="M37 142L40 130L43 142Z" fill="#EDD9B5" stroke="#CDB28A" stroke-width="1" /><circle cx="40" cy="129" r="2" fill="#EDD9B5" /><path d="M109 142L112 130L115 142Z" fill="#EDD9B5" stroke="#CDB28A" stroke-width="1" /><circle cx="112" cy="129" r="2" fill="#EDD9B5" /><path d="M50 142L50 96L60 86L92 86L102 96L102 142Z" fill="#EDD9B5" /><path d="M50 142L50 96L60 86L60 142Z" fill="#CDB28A" /><rect x="46" y="90" width="60" height="4" fill="#CDB28A" /><path d="M58 88Q76 40 94 88Z" fill="#9E5E3F" /><path d="M76 50Q90 60 94 88L84 88Q84 62 76 50Z" fill="#B4704C" /><rect x="72" y="30" width="8" height="20" fill="#EDD9B5" /><path d="M70 30L82 30L76 18Z" fill="#9E5E3F" /><rect x="75" y="6" width="2" height="14" fill="#1B2A3A" /><path d="M77 8L86 11L77 14Z" fill="#1B2A3A" /><path d="M62 304L62 276Q68 266 74 276L74 304Z" fill="#4E3C2C" /><rect x="60" y="304" width="16" height="2.5" fill="#CDB28A" /><path d="M82 304L82 276Q88 266 94 276L94 304Z" fill="#4E3C2C" /><rect x="80" y="304" width="16" height="2.5" fill="#CDB28A" /><path d="M62 384L62 356Q68 346 74 356L74 384Z" fill="#4E3C2C" /><rect x="60" y="384" width="16" height="2.5" fill="#CDB28A" /><path d="M82 384L82 356Q88 346 94 356L94 384Z" fill="#4E3C2C" /><rect x="80" y="384" width="16" height="2.5" fill="#CDB28A" /><path d="M62 200L62 171Q67 162.6 72 171L72 200Z" fill="#4E3C2C" /><rect x="60" y="200" width="14" height="2.5" fill="#CDB28A" /><path d="M82 200L82 171Q87 162.6 92 171L92 200Z" fill="#4E3C2C" /><rect x="80" y="200" width="14" height="2.5" fill="#CDB28A" /><path d="M66 130L66 108Q70 101.3 74 108L74 130Z" fill="#4E3C2C" /><rect x="64" y="130" width="12" height="2.5" fill="#CDB28A" /><path d="M80 130L80 108Q84 101.3 88 108L88 130Z" fill="#4E3C2C" /><rect x="78" y="130" width="12" height="2.5" fill="#CDB28A" /><rect x="268" y="300" width="92" height="170" fill="#EDD9B5" /><rect x="268" y="300" width="12" height="170" fill="#CDB28A" /><rect x="350" y="300" width="10" height="170" fill="#F7E8CB" /><rect x="286" y="308" width="7" height="162" fill="#F7E8CB" /><rect x="286" y="308" width="2" height="162" fill="#CDB28A" /><rect x="338" y="308" width="7" height="162" fill="#F7E8CB" /><rect x="338" y="308" width="2" height="162" fill="#CDB28A" /><path d="M264 300L270 290L278 296L288 286L298 294L308 284L318 292L330 286L340 294L352 288L364 296L364 300Z" fill="#EDD9B5" /><rect x="264" y="298" width="100" height="4" fill="#CDB28A" /><path d="M302 364L302 336Q308 326 314 336L314 364Z" fill="#4E3C2C" /><rect x="300" y="364" width="16" height="2.5" fill="#CDB28A" /><path d="M322 364L322 336Q328 326 334 336L334 364Z" fill="#4E3C2C" /><rect x="320" y="364" width="16" height="2.5" fill="#CDB28A" /><path d="M302 434L302 406Q308 396 314 406L314 434Z" fill="#4E3C2C" /><rect x="300" y="434" width="16" height="2.5" fill="#CDB28A" /><path d="M322 434L322 406Q328 396 334 406L334 434Z" fill="#4E3C2C" /><rect x="320" y="434" width="16" height="2.5" fill="#CDB28A" /><rect x="120" y="214" width="150" height="256" fill="#EDD9B5" /><rect x="120" y="206" width="150" height="10" fill="#CDB28A" /><rect x="120" y="216" width="150" height="2" fill="#F7E8CB" /><path d="M114 216L195 176L276 216Z" fill="#EDD9B5" stroke="#CDB28A" stroke-width="2" /><circle cx="195" cy="200" r="10" fill="#4E3C2C" /><circle cx="195" cy="200" r="13" fill="none" stroke="#CDB28A" stroke-width="2" /><rect x="118" y="334" width="154" height="3" fill="#CDB28A" /><rect x="120" y="337" width="2" height="6" fill="#CDB28A" /><rect x="125" y="337" width="2" height="6" fill="#CDB28A" /><rect x="130" y="337" width="2" height="6" fill="#CDB28A" /><rect x="135" y="337" width="2" height="6" fill="#CDB28A" /><rect x="140" y="337" width="2" height="6" fill="#CDB28A" /><rect x="145" y="337" width="2" height="6" fill="#CDB28A" /><rect x="150" y="337" width="2" height="6" fill="#CDB28A" /><rect x="155" y="337" width="2" height="6" fill="#CDB28A" /><rect x="160" y="337" width="2" height="6" fill="#CDB28A" /><rect x="165" y="337" width="2" height="6" fill="#CDB28A" /><rect x="170" y="337" width="2" height="6" fill="#CDB28A" /><rect x="175" y="337" width="2" height="6" fill="#CDB28A" /><rect x="180" y="337" width="2" height="6" fill="#CDB28A" /><rect x="185" y="337" width="2" height="6" fill="#CDB28A" /><rect x="190" y="337" width="2" height="6" fill="#CDB28A" /><rect x="195" y="337" width="2" height="6" fill="#CDB28A" /><rect x="200" y="337" width="2" height="6" fill="#CDB28A" /><rect x="205" y="337" width="2" height="6" fill="#CDB28A" /><rect x="210" y="337" width="2" height="6" fill="#CDB28A" /><rect x="215" y="337" width="2" height="6" fill="#CDB28A" /><rect x="220" y="337" width="2" height="6" fill="#CDB28A" /><rect x="225" y="337" width="2" height="6" fill="#CDB28A" /><rect x="230" y="337" width="2" height="6" fill="#CDB28A" /><rect x="235" y="337" width="2" height="6" fill="#CDB28A" /><rect x="240" y="337" width="2" height="6" fill="#CDB28A" /><rect x="245" y="337" width="2" height="6" fill="#CDB28A" /><rect x="250" y="337" width="2" height="6" fill="#CDB28A" /><rect x="255" y="337" width="2" height="6" fill="#CDB28A" /><rect x="260" y="337" width="2" height="6" fill="#CDB28A" /><rect x="265" y="337" width="2" height="6" fill="#CDB28A" /><rect x="118" y="343" width="154" height="2.5" fill="#CDB28A" /><rect x="126" y="346" width="9" height="124" fill="#F7E8CB" /><rect x="126" y="346" width="3" height="124" fill="#CDB28A" /><rect x="124" y="342" width="13" height="5" fill="#CDB28A" /><rect x="124" y="466" width="13" height="4" fill="#CDB28A" /><rect x="158" y="346" width="9" height="124" fill="#F7E8CB" /><rect x="158" y="346" width="3" height="124" fill="#CDB28A" /><rect x="156" y="342" width="13" height="5" fill="#CDB28A" /><rect x="156" y="466" width="13" height="4" fill="#CDB28A" /><rect x="222" y="346" width="9" height="124" fill="#F7E8CB" /><rect x="222" y="346" width="3" height="124" fill="#CDB28A" /><rect x="220" y="342" width="13" height="5" fill="#CDB28A" /><rect x="220" y="466" width="13" height="4" fill="#CDB28A" /><rect x="254" y="346" width="9" height="124" fill="#F7E8CB" /><rect x="254" y="346" width="3" height="124" fill="#CDB28A" /><rect x="252" y="342" width="13" height="5" fill="#CDB28A" /><rect x="252" y="466" width="13" height="4" fill="#CDB28A" /><rect x="132" y="228" width="8" height="104" fill="#F7E8CB" /><rect x="132" y="228" width="3" height="104" fill="#CDB28A" /><rect x="178" y="228" width="8" height="104" fill="#F7E8CB" /><rect x="178" y="228" width="3" height="104" fill="#CDB28A" /><rect x="248" y="228" width="8" height="104" fill="#F7E8CB" /><rect x="248" y="228" width="3" height="104" fill="#CDB28A" /><path d="M170 470L170 392Q195 362 220 392L220 470Z" fill="#4E3C2C" /><path d="M137 470L137 404Q146 392 155 404L155 470Z" fill="#4E3C2C" /><path d="M235 470L235 404Q244 392 253 404L253 470Z" fill="#4E3C2C" /><rect x="166" y="382" width="58" height="6" fill="#CDB28A" /><rect x="154" y="244" width="82" height="72" fill="#F7E8CB" /><rect x="154" y="244" width="82" height="72" fill="none" stroke="#CDB28A" stroke-width="2" /><circle cx="195" cy="280" r="20" fill="#EDD9B5" stroke="#CDB28A" stroke-width="2.5" /><circle cx="195" cy="280" r="10" fill="#CDB28A" /><path d="M140 262L140 240Q146 232 152 240L152 262Z" fill="#4E3C2C" /><path d="M238 262L238 240Q244 232 250 240L250 262Z" fill="#4E3C2C" /><path d="M120 470L120 216L136 216L136 470Z" fill="#5B3524" opacity=".1" /></g></g><g id="near"><g filter="url(#mqnnightf)"><rect x="0" y="470" width="390" height="90" fill="#E6CCA8" /><rect x="0" y="470" width="390" height="90" fill="url(#mqdots)" /><rect x="0" y="484" width="390" height="1.2" fill="#D2B48E" /><rect x="0" y="504" width="390" height="1.2" fill="#D2B48E" /><rect x="0" y="532" width="390" height="1.2" fill="#D2B48E" /><path d="M195 470L-240 560" fill="none" stroke="#D2B48E" stroke-width="1" /><path d="M195 470L-196 560" fill="none" stroke="#D2B48E" stroke-width="1" /><path d="M195 470L-152 560" fill="none" stroke="#D2B48E" stroke-width="1" /><path d="M195 470L-108 560" fill="none" stroke="#D2B48E" stroke-width="1" /><path d="M195 470L-64 560" fill="none" stroke="#D2B48E" stroke-width="1" /><path d="M195 470L-20 560" fill="none" stroke="#D2B48E" stroke-width="1" /><path d="M195 470L24 560" fill="none" stroke="#D2B48E" stroke-width="1" /><path d="M195 470L68 560" fill="none" stroke="#D2B48E" stroke-width="1" /><path d="M195 470L112 560" fill="none" stroke="#D2B48E" stroke-width="1" /><path d="M195 470L156 560" fill="none" stroke="#D2B48E" stroke-width="1" /><path d="M195 470L200 560" fill="none" stroke="#D2B48E" stroke-width="1" /><path d="M195 470L244 560" fill="none" stroke="#D2B48E" stroke-width="1" /><path d="M195 470L288 560" fill="none" stroke="#D2B48E" stroke-width="1" /><path d="M195 470L332 560" fill="none" stroke="#D2B48E" stroke-width="1" /><path d="M195 470L376 560" fill="none" stroke="#D2B48E" stroke-width="1" /><path d="M195 470L420 560" fill="none" stroke="#D2B48E" stroke-width="1" /><path d="M195 470L464 560" fill="none" stroke="#D2B48E" stroke-width="1" /><path d="M195 470L508 560" fill="none" stroke="#D2B48E" stroke-width="1" /><path d="M195 470L552 560" fill="none" stroke="#D2B48E" stroke-width="1" /><path d="M195 470L596 560" fill="none" stroke="#D2B48E" stroke-width="1" /><path d="M30 470L122 470L0 560L0 520Z" fill="#5B3524" opacity=".1" /><path d="M268 470L360 470L250 560L150 560Z" fill="#5B3524" opacity=".1" /><ellipse cx="318" cy="524" rx="48" ry="11" fill="#CDBFA9" stroke="#1B2A3A" stroke-width="1.4" /><ellipse cx="318" cy="521" rx="40" ry="7" fill="#8CC3DD" /><path d="M313 522L312 482L324 482L323 522Z" fill="#DCCFBB" stroke="#1B2A3A" stroke-width="1.1" /><ellipse cx="318" cy="484" rx="20" ry="5" fill="#D5C8B3" stroke="#1B2A3A" stroke-width="1.1" /><circle cx="318" cy="474" r="5" fill="#DCCFBB" stroke="#1B2A3A" stroke-width="1" /><path d="M304 486Q300 500 294 518M332 486Q336 500 342 518" fill="none" stroke="#9CCFE2" stroke-width="1.8" /><ellipse cx="33" cy="532" rx="41.8" ry="8.4" fill="#5B3524" opacity=".2" /><path d="M10 532L12 486.4L16 486.4L18 532Z" fill="#6E4A31" /><circle cx="14" cy="473.1" r="38" fill="#3F6A3B" /><circle cx="-10.7" cy="486.4" r="26.6" fill="#3F6A3B" /><circle cx="40.6" cy="484.5" r="27.4" fill="#4E7B47" /><circle cx="2.6" cy="461.7" r="23.6" fill="#4E7B47" /><circle cx="27.3" cy="459.8" r="19" fill="#5F8C55" /><circle cx="-8.8" cy="475" r="17.1" fill="#5F8C55" /><circle cx="26" cy="474.6" r="2.4" fill="#E8872E" /><circle cx="4.1" cy="474.7" r="2.4" fill="#E8872E" /><circle cx="4.1" cy="483.9" r="2.4" fill="#E8872E" /><circle cx="30.9" cy="498" r="2.4" fill="#E8872E" /><circle cx="-5.4" cy="463.3" r="2.4" fill="#E8872E" /><circle cx="21.6" cy="503.1" r="2.4" fill="#E8872E" /><circle cx="-15.4" cy="486.1" r="2.4" fill="#E8872E" /><circle cx="40.2" cy="466.6" r="2.4" fill="#E8872E" /><circle cx="30.6" cy="467.9" r="2.4" fill="#E8872E" /><ellipse cx="103" cy="548" rx="24.2" ry="4.8" fill="#5B3524" opacity=".2" /><path d="M88 548L90 521.6L94 521.6L96 548Z" fill="#6E4A31" /><circle cx="92" cy="513.9" r="22" fill="#3F6A3B" /><circle cx="77.7" cy="521.6" r="15.4" fill="#3F6A3B" /><circle cx="107.4" cy="520.5" r="15.8" fill="#4E7B47" /><circle cx="85.4" cy="507.3" r="13.6" fill="#4E7B47" /><circle cx="99.7" cy="506.2" r="11" fill="#5F8C55" /><circle cx="78.8" cy="515" r="9.9" fill="#5F8C55" /><circle cx="91.7" cy="507.8" r="2.4" fill="#E8872E" /><circle cx="88.8" cy="519.7" r="2.4" fill="#E8872E" /><circle cx="90.9" cy="507.7" r="2.4" fill="#E8872E" /><circle cx="74.8" cy="514.5" r="2.4" fill="#E8872E" /><circle cx="77.7" cy="506.5" r="2.4" fill="#E8872E" /><circle cx="76.6" cy="518.5" r="2.4" fill="#E8872E" /><circle cx="92.5" cy="508.4" r="2.4" fill="#E8872E" /><circle cx="96.7" cy="510" r="2.4" fill="#E8872E" /><circle cx="102.4" cy="517.5" r="2.4" fill="#E8872E" /><ellipse cx="269" cy="546" rx="14" ry="3" fill="#3A2418" opacity=".2" /><rect x="258" y="541" width="8" height="5" fill="#1B2A3A" /><rect x="260.2" y="422" width="3.6" height="124" fill="#1B2A3A" /><rect x="259" y="477.8" width="6" height="3" fill="#1B2A3A" /><path d="M254 422L270 422L268 405L256 405Z" fill="#F5D98A" stroke="#1B2A3A" stroke-width="1.4" /><path d="M253 405L262 397L271 405Z" fill="#1B2A3A" /><circle cx="262" cy="414" r="9" fill="#FFF1C4" opacity=".3" /><ellipse cx="240.8" cy="506" rx="7.2" ry="1.9" fill="#5B3524" opacity=".1" /><rect x="232.4" y="498.8" width="2.9" height="7.2" fill="#2A3440" /><rect x="236.7" y="498.8" width="2.9" height="7.2" fill="#2A3440" /><path d="M231.6 499.4L232.4 490.4Q236 488.6 239.6 490.4L240.3 499.4Z" fill="#3B4654" /><circle cx="236" cy="486.2" r="3.2" fill="#C98F6B" /><ellipse cx="236" cy="483.7" rx="5.5" ry="1.4" fill="#2A1E18" /><rect x="233.1" y="480.8" width="5.8" height="3.1" fill="#2A1E18" /><ellipse cx="254.6" cy="508" rx="6.9" ry="1.8" fill="#5B3524" opacity=".1" /><path d="M244.2 508L247.4 495.3L252.5 495.3L255.7 508Z" fill="#A8431F" /><circle cx="250" cy="489" r="3.1" fill="#C98F6B" /><ellipse cx="163.8" cy="494" rx="5.7" ry="1.5" fill="#5B3524" opacity=".1" /><rect x="157.2" y="488.3" width="2.3" height="5.7" fill="#2A3440" /><rect x="160.6" y="488.3" width="2.3" height="5.7" fill="#2A3440" /><path d="M156.5 488.7L157.1 481.6Q160 480.2 162.8 481.6L163.4 488.7Z" fill="#2F6F73" /><circle cx="160" cy="478.3" r="2.6" fill="#C98F6B" /></g></g><g id="fx"><defs><radialGradient id="mqnfxn" cx=".5" cy=".45" r=".72"><stop offset=".45" stop-color="#0E1224" stop-opacity="0" /><stop offset="1" stop-color="#0E1224" stop-opacity=".5" /></radialGradient></defs><rect x="0" y="412" width="390" height="16" fill="#0E1224" opacity=".08" /><rect x="0" y="0" width="390" height="560" fill="url(#mqnfxn)" /></g></svg>
