<svg stroke-linecap="round" stroke-linejoin="round" xmlns="http://www.w3.org/2000/svg" width="390" height="560" viewBox="0 0 390 560" role="img" aria-label="Carrera del Darro"><defs><linearGradient id="gdrsky" x1="0" y1="0" x2="0" y2="1"><stop offset="0" stop-color="#E79E70"/><stop offset=".4" stop-color="#F3C79B"/><stop offset=".6" stop-color="#F8DDB8"/><stop offset="1" stop-color="#FBEBD3"/></linearGradient><radialGradient id="gdrglow"><stop offset="0" stop-color="#FFF4DD" stop-opacity=".9"/><stop offset=".3" stop-color="#FFF4DD" stop-opacity=".4"/><stop offset="1" stop-color="#FFF4DD" stop-opacity="0"/></radialGradient><pattern id="gdrdots" width="7" height="7" patternUnits="userSpaceOnUse"><circle cx="1.5" cy="1.5" r=".8" fill="#C9A57E" opacity=".5"/><circle cx="5" cy="4.5" r=".6" fill="#C9A57E" opacity=".4"/></pattern><linearGradient id="gdrsea" x1="0" y1="0" x2="0" y2="1"><stop offset="0" stop-color="#8FB9B4"/><stop offset="1" stop-color="#6E9FA0"/></linearGradient><linearGradient id="gdrdome" x1="0" y1="0" x2="1" y2="0"><stop offset="0" stop-color="#F9D776"/><stop offset=".45" stop-color="#EDB943"/><stop offset="1" stop-color="#C98E2A"/></linearGradient></defs><g id="sky"><rect x="0" y="0" width="390" height="560" fill="url(#gdrsky)"/><circle cx="100" cy="110" r="108.8" fill="url(#gdrglow)"/><circle cx="100" cy="110" r="34" fill="#FFF3DC"/><g opacity=".9"><ellipse cx="290" cy="64.8" rx="27.2" ry="7.2" fill="#FFF6EA"/><circle cx="278.8" cy="60" r="8.8" fill="#FFF6EA"/><circle cx="291.6" cy="56" r="11.2" fill="#FFF6EA"/><circle cx="303.6" cy="60.8" r="7.2" fill="#FFF6EA"/></g><path d="M214 50Q217 46 220 50Q223 46 226 50" fill="none" stroke="#1B2A3A" stroke-width="1.3" opacity=".7"/></g><g id="far"><path d="M-10 170L40 120L90 150L150 100L210 140L270 90L330 135L400 110L400 210L-10 210Z" fill="#C9C6CF"/><path d="M22 136L40 120L58 134L48 138L40 132L32 139Z" fill="#FFFFFF"/><path d="M132 116L150 100L168 114L158 118L150 112L142 119Z" fill="#FFFFFF"/><path d="M252 106L270 90L288 104L278 108L270 102L262 109Z" fill="#FFFFFF"/><path d="M382 126L400 110L418 124L408 128L400 122L392 129Z" fill="#FFFFFF"/><path d="M-10 230Q80 180 200 184Q320 186 400 220L400 310L-10 310Z" fill="#6E9F7A"/><circle cx="0" cy="220" r="12" fill="#4F7F5A"/><circle cx="22" cy="226" r="13" fill="#4F7F5A"/><circle cx="44" cy="232" r="14" fill="#4F7F5A"/><circle cx="66" cy="220" r="15" fill="#4F7F5A"/><circle cx="88" cy="226" r="16" fill="#4F7F5A"/><circle cx="110" cy="232" r="17" fill="#4F7F5A"/><circle cx="132" cy="220" r="18" fill="#4F7F5A"/><circle cx="154" cy="226" r="12" fill="#4F7F5A"/><circle cx="176" cy="232" r="13" fill="#4F7F5A"/><circle cx="198" cy="220" r="14" fill="#4F7F5A"/><circle cx="220" cy="226" r="15" fill="#4F7F5A"/><circle cx="242" cy="232" r="16" fill="#4F7F5A"/><circle cx="264" cy="220" r="17" fill="#4F7F5A"/><circle cx="286" cy="226" r="18" fill="#4F7F5A"/><circle cx="308" cy="232" r="12" fill="#4F7F5A"/><circle cx="330" cy="220" r="13" fill="#4F7F5A"/><circle cx="352" cy="226" r="14" fill="#4F7F5A"/><circle cx="374" cy="232" r="15" fill="#4F7F5A"/><circle cx="396" cy="220" r="16" fill="#4F7F5A"/><path d="M20 190L370 184L370 206L20 212Z" fill="#C4623F" stroke="#1B2A3A" stroke-width="1.4"/><path d="M30 167.8L56 167.8L56 210L30 210Z" fill="#C4623F" stroke="#1B2A3A" stroke-width="1.4"/><path d="M48.2 167.8L56 167.8L56 210L48.2 210Z" fill="#A34E31" opacity=".6"/><path d="M33 167.8V163.8H37V167.8" fill="#C4623F" stroke="#1B2A3A" stroke-width="1"/><path d="M40 167.8V163.8H44V167.8" fill="#C4623F" stroke="#1B2A3A" stroke-width="1"/><path d="M47 167.8V163.8H51V167.8" fill="#C4623F" stroke="#1B2A3A" stroke-width="1"/><path d="M41.0 175.8V181.8" stroke="#1B2A3A" stroke-width="2.4"/><path d="M90 172.8L112 172.8L112 210L90 210Z" fill="#C4623F" stroke="#1B2A3A" stroke-width="1.4"/><path d="M105.4 172.8L112 172.8L112 210L105.4 210Z" fill="#A34E31" opacity=".6"/><path d="M93 172.8V168.8H97V172.8" fill="#C4623F" stroke="#1B2A3A" stroke-width="1"/><path d="M100 172.8V168.8H104V172.8" fill="#C4623F" stroke="#1B2A3A" stroke-width="1"/><path d="M107 172.8V168.8H111V172.8" fill="#C4623F" stroke="#1B2A3A" stroke-width="1"/><path d="M99.0 180.8V186.8" stroke="#1B2A3A" stroke-width="2.4"/><path d="M150 143.8L180 143.8L180 210L150 210Z" fill="#D98A68" stroke="#1B2A3A" stroke-width="1.4"/><path d="M171.0 143.8L180 143.8L180 210L171.0 210Z" fill="#A34E31" opacity=".6"/><path d="M153 143.8V139.8H157V143.8" fill="#C4623F" stroke="#1B2A3A" stroke-width="1"/><path d="M160 143.8V139.8H164V143.8" fill="#C4623F" stroke="#1B2A3A" stroke-width="1"/><path d="M167 143.8V139.8H171V143.8" fill="#C4623F" stroke="#1B2A3A" stroke-width="1"/><path d="M174 143.8V139.8H178V143.8" fill="#C4623F" stroke="#1B2A3A" stroke-width="1"/><path d="M163.0 151.8V157.8" stroke="#1B2A3A" stroke-width="2.4"/><path d="M215 166.7L237 166.7L237 210L215 210Z" fill="#C4623F" stroke="#1B2A3A" stroke-width="1.4"/><path d="M230.4 166.7L237 166.7L237 210L230.4 210Z" fill="#A34E31" opacity=".6"/><path d="M218 166.7V162.7H222V166.7" fill="#C4623F" stroke="#1B2A3A" stroke-width="1"/><path d="M225 166.7V162.7H229V166.7" fill="#C4623F" stroke="#1B2A3A" stroke-width="1"/><path d="M232 166.7V162.7H236V166.7" fill="#C4623F" stroke="#1B2A3A" stroke-width="1"/><path d="M224.0 174.7V180.7" stroke="#1B2A3A" stroke-width="2.4"/><path d="M270 155.7L296 155.7L296 210L270 210Z" fill="#C4623F" stroke="#1B2A3A" stroke-width="1.4"/><path d="M288.2 155.7L296 155.7L296 210L288.2 210Z" fill="#A34E31" opacity=".6"/><path d="M273 155.7V151.7H277V155.7" fill="#C4623F" stroke="#1B2A3A" stroke-width="1"/><path d="M280 155.7V151.7H284V155.7" fill="#C4623F" stroke="#1B2A3A" stroke-width="1"/><path d="M287 155.7V151.7H291V155.7" fill="#C4623F" stroke="#1B2A3A" stroke-width="1"/><path d="M281.0 163.7V169.7" stroke="#1B2A3A" stroke-width="2.4"/><path d="M330 166.7L352 166.7L352 210L330 210Z" fill="#C4623F" stroke="#1B2A3A" stroke-width="1.4"/><path d="M345.4 166.7L352 166.7L352 210L345.4 210Z" fill="#A34E31" opacity=".6"/><path d="M333 166.7V162.7H337V166.7" fill="#C4623F" stroke="#1B2A3A" stroke-width="1"/><path d="M340 166.7V162.7H344V166.7" fill="#C4623F" stroke="#1B2A3A" stroke-width="1"/><path d="M347 166.7V162.7H351V166.7" fill="#C4623F" stroke="#1B2A3A" stroke-width="1"/><path d="M339.0 174.7V180.7" stroke="#1B2A3A" stroke-width="2.4"/><path d="M234 182L262 182L262 194L234 194Z" fill="#E7C98E" stroke="#1B2A3A" stroke-width="1.4"/><path d="M120 174Q126 191 123.6 208L116.4 208Q114 191 120 174Z" fill="#2F5A3F"/><path d="M200 176Q206 191 203.6 206L196.4 206Q194 191 200 176Z" fill="#2F5A3F"/><path d="M300 174Q306 192 303.6 210L296.4 210Q294 192 300 174Z" fill="#2F5A3F"/></g><g id="mid"><path d="M-30 200L90 200L90 350L-30 350Z" fill="#F7F3EA" stroke="#1B2A3A" stroke-width="1.8"/><path d="M68.4 202L89 202L89 350L68.4 350Z" fill="#E2DACB" opacity=".6"/><path d="M-28 202L-18 202L-18 350L-28 350Z" fill="#FFFFFF" opacity=".7"/><path d="M-33 200L93 200L93 195L-33 195Z" fill="#FFFFFF" stroke="#1B2A3A" stroke-width="1.44"/><path d="M-30 195L-30 187L90 187L90 195" fill="#F7F3EA" stroke="#1B2A3A" stroke-width="1.44"/><path d="M-8 260L-8 216.5L8 216.5L8 260Z" fill="#3E3024" stroke="#1B2A3A" stroke-width="1.35"/><path d="M-14.7 216.5L-9 216.5L-9 260L-14.7 260Z" fill="#4E7A5E" stroke="#1B2A3A" stroke-width="0.94"/><path d="M9 216.5L14.7 216.5L14.7 260L9 260Z" fill="#3B5F48" stroke="#1B2A3A" stroke-width="0.94"/><path d="M-12 260L12 260" fill="none" stroke="#1B2A3A" stroke-width="2.16"/><path d="M-12 243.5L12 243.5" fill="none" stroke="#1B2A3A" stroke-width="1.08"/><path d="M-12 243.5L-12 260" fill="none" stroke="#1B2A3A" stroke-width="0.81"/><path d="M-7.2 243.5L-7.2 260" fill="none" stroke="#1B2A3A" stroke-width="0.81"/><path d="M-2.4 243.5L-2.4 260" fill="none" stroke="#1B2A3A" stroke-width="0.81"/><path d="M2.4 243.5L2.4 260" fill="none" stroke="#1B2A3A" stroke-width="0.81"/><path d="M7.2 243.5L7.2 260" fill="none" stroke="#1B2A3A" stroke-width="0.81"/><path d="M12 243.5L12 260" fill="none" stroke="#1B2A3A" stroke-width="0.81"/><path d="M52 260L52 216.5L68 216.5L68 260Z" fill="#3E3024" stroke="#1B2A3A" stroke-width="1.35"/><path d="M45.3 216.5L51 216.5L51 260L45.3 260Z" fill="#4E7A5E" stroke="#1B2A3A" stroke-width="0.94"/><path d="M69 216.5L74.7 216.5L74.7 260L69 260Z" fill="#3B5F48" stroke="#1B2A3A" stroke-width="0.94"/><path d="M48 260L72 260" fill="none" stroke="#1B2A3A" stroke-width="2.16"/><path d="M48 243.5L72 243.5" fill="none" stroke="#1B2A3A" stroke-width="1.08"/><path d="M48 243.5L48 260" fill="none" stroke="#1B2A3A" stroke-width="0.81"/><path d="M52.8 243.5L52.8 260" fill="none" stroke="#1B2A3A" stroke-width="0.81"/><path d="M57.6 243.5L57.6 260" fill="none" stroke="#1B2A3A" stroke-width="0.81"/><path d="M62.4 243.5L62.4 260" fill="none" stroke="#1B2A3A" stroke-width="0.81"/><path d="M67.2 243.5L67.2 260" fill="none" stroke="#1B2A3A" stroke-width="0.81"/><path d="M72 243.5L72 260" fill="none" stroke="#1B2A3A" stroke-width="0.81"/><path d="M-8 335L-8 291.5L8 291.5L8 335Z" fill="#3E3024" stroke="#1B2A3A" stroke-width="1.35"/><path d="M-14.7 291.5L-9 291.5L-9 335L-14.7 335Z" fill="#4E7A5E" stroke="#1B2A3A" stroke-width="0.94"/><path d="M9 291.5L14.7 291.5L14.7 335L9 335Z" fill="#3B5F48" stroke="#1B2A3A" stroke-width="0.94"/><path d="M50 350L50 291.5Q60 281.9 70 291.5L70 350Z" fill="#5B3A26" stroke="#1B2A3A" stroke-width="1.44"/><path d="M90 220L180 220L180 350L90 350Z" fill="#F2D48F" stroke="#1B2A3A" stroke-width="1.8"/><path d="M163.8 222L179 222L179 350L163.8 350Z" fill="#DDB86A" opacity=".6"/><path d="M92 222L99 222L99 350L92 350Z" fill="#F9E4B0" opacity=".7"/><path d="M87 220L183 220L183 215L87 215Z" fill="#F9E4B0" stroke="#1B2A3A" stroke-width="1.44"/><path d="M90 215L90 207L180 207L180 215" fill="#F2D48F" stroke="#1B2A3A" stroke-width="1.44"/><path d="M127 272L127 234.3L143 234.3L143 272Z" fill="#3E3024" stroke="#1B2A3A" stroke-width="1.35"/><path d="M120.3 234.3L126 234.3L126 272L120.3 272Z" fill="#4E7A5E" stroke="#1B2A3A" stroke-width="0.94"/><path d="M144 234.3L149.7 234.3L149.7 272L144 272Z" fill="#3B5F48" stroke="#1B2A3A" stroke-width="0.94"/><path d="M123 272L147 272" fill="none" stroke="#1B2A3A" stroke-width="2.16"/><path d="M123 257.7L147 257.7" fill="none" stroke="#1B2A3A" stroke-width="1.08"/><path d="M123 257.7L123 272" fill="none" stroke="#1B2A3A" stroke-width="0.81"/><path d="M127.8 257.7L127.8 272" fill="none" stroke="#1B2A3A" stroke-width="0.81"/><path d="M132.6 257.7L132.6 272" fill="none" stroke="#1B2A3A" stroke-width="0.81"/><path d="M137.4 257.7L137.4 272" fill="none" stroke="#1B2A3A" stroke-width="0.81"/><path d="M142.2 257.7L142.2 272" fill="none" stroke="#1B2A3A" stroke-width="0.81"/><path d="M147 257.7L147 272" fill="none" stroke="#1B2A3A" stroke-width="0.81"/><path d="M125 350L125 299.3Q135 289.7 145 299.3L145 350Z" fill="#5B3A26" stroke="#1B2A3A" stroke-width="1.44"/><path d="M-10 350H200V360H-10Z" fill="#C9B28A" stroke="#1B2A3A" stroke-width="1.2"/></g><g id="sea"><rect x="-10" y="360" width="410" height="50" fill="url(#gdrsea)"/><path d="M20 374L50 374" stroke="#E6F2EF" stroke-width="1.6" opacity=".7"/><path d="M130 390L154 390" stroke="#E6F2EF" stroke-width="1.6" opacity=".7"/><path d="M270 378L304 378" stroke="#E6F2EF" stroke-width="1.6" opacity=".7"/><path d="M200 410V376Q246 336 292 376V410H312V350H180V410Z" fill="#C9B28A" stroke="#1B2A3A" stroke-width="1.6"/><path d="M176 350H316V342H176Z" fill="#DCC7A0" stroke="#1B2A3A" stroke-width="1.4"/><path d="M360 350L360 314" stroke="#6E4C33" stroke-width="6.6"/><circle cx="360" cy="302" r="30" fill="#4F7F5A"/><circle cx="339" cy="311" r="21" fill="#4F7F5A"/><circle cx="381" cy="309.5" r="22.5" fill="#3D6647"/><circle cx="366" cy="287" r="18" fill="#4F7F5A"/><circle cx="351" cy="293" r="10.5" fill="#6F9E73" opacity=".7"/></g><g id="near"><rect x="-10" y="406" width="410" height="170" fill="#D9C7A8"/><path d="M-10 406L400 406L400 418L-10 418Z" fill="#C9B28A" stroke="#1B2A3A" stroke-width="1.6"/><circle cx="10" cy="450" r="3" fill="#BFAE8E"/><circle cx="10" cy="490" r="3" fill="#BFAE8E"/><circle cx="10" cy="530" r="3" fill="#BFAE8E"/><circle cx="34" cy="450" r="3" fill="#BFAE8E"/><circle cx="34" cy="490" r="3" fill="#BFAE8E"/><circle cx="34" cy="530" r="3" fill="#BFAE8E"/><circle cx="58" cy="450" r="3" fill="#BFAE8E"/><circle cx="58" cy="490" r="3" fill="#BFAE8E"/><circle cx="58" cy="530" r="3" fill="#BFAE8E"/><circle cx="82" cy="450" r="3" fill="#BFAE8E"/><circle cx="82" cy="490" r="3" fill="#BFAE8E"/><circle cx="82" cy="530" r="3" fill="#BFAE8E"/><circle cx="106" cy="450" r="3" fill="#BFAE8E"/><circle cx="106" cy="490" r="3" fill="#BFAE8E"/><circle cx="106" cy="530" r="3" fill="#BFAE8E"/><circle cx="130" cy="450" r="3" fill="#BFAE8E"/><circle cx="130" cy="490" r="3" fill="#BFAE8E"/><circle cx="130" cy="530" r="3" fill="#BFAE8E"/><circle cx="154" cy="450" r="3" fill="#BFAE8E"/><circle cx="154" cy="490" r="3" fill="#BFAE8E"/><circle cx="154" cy="530" r="3" fill="#BFAE8E"/><circle cx="178" cy="450" r="3" fill="#BFAE8E"/><circle cx="178" cy="490" r="3" fill="#BFAE8E"/><circle cx="178" cy="530" r="3" fill="#BFAE8E"/><circle cx="202" cy="450" r="3" fill="#BFAE8E"/><circle cx="202" cy="490" r="3" fill="#BFAE8E"/><circle cx="202" cy="530" r="3" fill="#BFAE8E"/><circle cx="226" cy="450" r="3" fill="#BFAE8E"/><circle cx="226" cy="490" r="3" fill="#BFAE8E"/><circle cx="226" cy="530" r="3" fill="#BFAE8E"/><circle cx="250" cy="450" r="3" fill="#BFAE8E"/><circle cx="250" cy="490" r="3" fill="#BFAE8E"/><circle cx="250" cy="530" r="3" fill="#BFAE8E"/><circle cx="274" cy="450" r="3" fill="#BFAE8E"/><circle cx="274" cy="490" r="3" fill="#BFAE8E"/><circle cx="274" cy="530" r="3" fill="#BFAE8E"/><circle cx="298" cy="450" r="3" fill="#BFAE8E"/><circle cx="298" cy="490" r="3" fill="#BFAE8E"/><circle cx="298" cy="530" r="3" fill="#BFAE8E"/><circle cx="322" cy="450" r="3" fill="#BFAE8E"/><circle cx="322" cy="490" r="3" fill="#BFAE8E"/><circle cx="322" cy="530" r="3" fill="#BFAE8E"/><circle cx="346" cy="450" r="3" fill="#BFAE8E"/><circle cx="346" cy="490" r="3" fill="#BFAE8E"/><circle cx="346" cy="530" r="3" fill="#BFAE8E"/><circle cx="370" cy="450" r="3" fill="#BFAE8E"/><circle cx="370" cy="490" r="3" fill="#BFAE8E"/><circle cx="370" cy="530" r="3" fill="#BFAE8E"/><ellipse cx="120" cy="453" rx="5.7" ry="1.5" fill="#5B3524" opacity=".2"/><path d="M118.1 452L118.1 445.4M121.9 452L121.9 445.4" stroke="#3A3A48" stroke-width="2.3"/><path d="M116.7 446.3L117.2 437.8L122.8 437.8L123.3 446.3Z" fill="#2E5E3E"/><circle cx="120" cy="434.9" r="2.8" fill="#D9A07A"/><ellipse cx="270" cy="457" rx="5.4" ry="1.4" fill="#5B3524" opacity=".2"/><path d="M265.5 456L267.8 443.4L272.2 443.4L274.5 456Z" fill="#A8431F"/><circle cx="270" cy="439.8" r="2.7" fill="#D9A07A"/><ellipse cx="40" cy="542" rx="12" ry="3" fill="#5B3524" opacity=".2"/><path d="M35 540L45 540L43 528L37 528Z" fill="#2E3A48"/><path d="M40 528L40 384" stroke="#2E3A48" stroke-width="3.2"/><path d="M33 384L47 384L49 370L31 370Z" fill="#FFE7A8" stroke="#2E3A48" stroke-width="2.2"/><path d="M30 370L50 370L40 361Z" fill="#2E3A48"/></g><g id="fx"><defs><radialGradient id="gdrfxv" cx=".5" cy=".4" r=".7"><stop offset=".5" stop-color="#5B3524" stop-opacity="0"/><stop offset="1" stop-color="#3A2418" stop-opacity=".3"/></radialGradient><linearGradient id="gdrfxr" x1="0" y1="0" x2="0" y2="1"><stop offset="0" stop-color="#FFF4DC" stop-opacity="0.25"/><stop offset="1" stop-color="#FFF4DC" stop-opacity="0"/></linearGradient><linearGradient id="gdrfxb" x1="0" y1="0" x2="0" y2="1"><stop offset=".7" stop-color="#1B2A3A" stop-opacity="0"/><stop offset="1" stop-color="#1B2A3A" stop-opacity=".25"/></linearGradient></defs><path d="M100 110L581.8 617.8L516.4 672.7Z" fill="url(#gdrfxr)"/><path d="M100 110L379.1 751.9L298.8 781.2Z" fill="url(#gdrfxr)"/><path d="M100 110L118.3 809.8L32.9 806.8Z" fill="url(#gdrfxr)"/><path d="M100 110L-122.1 773.8L-201.4 741.8Z" fill="url(#gdrfxr)"/><path d="M100 110L-363.8 634.3L-424.3 573.8Z" fill="url(#gdrfxr)"/><rect x="0" y="398" width="390" height="16" fill="#3A2418" opacity=".06"/><rect x="0" y="0" width="390" height="560" fill="url(#gdrfxb)"/><rect x="0" y="0" width="390" height="560" fill="url(#gdrfxv)"/></g></svg>
