<svg stroke-linecap="round" stroke-linejoin="round" xmlns="http://www.w3.org/2000/svg" width="390" height="560" viewBox="0 0 390 560" role="img" aria-label="Templo romano"><defs><linearGradient id="ktesky" x1="0" y1="0" x2="0" y2="1"><stop offset="0" stop-color="#E79E70"/><stop offset=".4" stop-color="#F3C79B"/><stop offset=".6" stop-color="#F8DDB8"/><stop offset="1" stop-color="#FBEBD3"/></linearGradient><radialGradient id="kteglow"><stop offset="0" stop-color="#FFF4DD" stop-opacity=".9"/><stop offset=".3" stop-color="#FFF4DD" stop-opacity=".4"/><stop offset="1" stop-color="#FFF4DD" stop-opacity="0"/></radialGradient><pattern id="ktedots" width="7" height="7" patternUnits="userSpaceOnUse"><circle cx="1.5" cy="1.5" r=".8" fill="#C9A57E" opacity=".5"/><circle cx="5" cy="4.5" r=".6" fill="#C9A57E" opacity=".4"/></pattern><linearGradient id="ktesea" x1="0" y1="0" x2="0" y2="1"><stop offset="0" stop-color="#8FB9B4"/><stop offset="1" stop-color="#6E9FA0"/></linearGradient><linearGradient id="ktedome" x1="0" y1="0" x2="1" y2="0"><stop offset="0" stop-color="#F9D776"/><stop offset=".45" stop-color="#EDB943"/><stop offset="1" stop-color="#C98E2A"/></linearGradient></defs><g id="sky"><rect x="0" y="0" width="390" height="560" fill="url(#ktesky)"/><circle cx="300" cy="100" r="108.8" fill="url(#kteglow)"/><circle cx="300" cy="100" r="34" fill="#FFF3DC"/><g opacity=".9"><ellipse cx="80" cy="74.8" rx="27.2" ry="7.2" fill="#FFF6EA"/><circle cx="68.8" cy="70" r="8.8" fill="#FFF6EA"/><circle cx="81.6" cy="66" r="11.2" fill="#FFF6EA"/><circle cx="93.6" cy="70.8" r="7.2" fill="#FFF6EA"/></g><path d="M194 50Q197 46 200 50Q203 46 206 50" fill="none" stroke="#1B2A3A" stroke-width="1.3" opacity=".7"/><path d="M215.2 40Q217.6 36.8 220 40Q222.4 36.8 224.8 40" fill="none" stroke="#1B2A3A" stroke-width="1.3" opacity=".7"/></g><g id="far"><rect x="-10" y="215" width="29" height="85" fill="#EBC4A0"/><rect x="-5" y="223" width="4" height="6" fill="#D29E7A" opacity=".7"/><rect x="5" y="223" width="4" height="6" fill="#D29E7A" opacity=".7"/><rect x="15" y="223" width="4" height="6" fill="#D29E7A" opacity=".7"/><rect x="19" y="218" width="33" height="82" fill="#EBC4A0"/><rect x="24" y="226" width="4" height="6" fill="#D29E7A" opacity=".7"/><rect x="34" y="226" width="4" height="6" fill="#D29E7A" opacity=".7"/><rect x="44" y="226" width="4" height="6" fill="#D29E7A" opacity=".7"/><rect x="52" y="200" width="24" height="100" fill="#E6B790"/><rect x="57" y="208" width="4" height="6" fill="#D29E7A" opacity=".7"/><rect x="67" y="208" width="4" height="6" fill="#D29E7A" opacity=".7"/><rect x="76" y="202" width="35" height="98" fill="#E6B790"/><rect x="81" y="210" width="4" height="6" fill="#D29E7A" opacity=".7"/><rect x="91" y="210" width="4" height="6" fill="#D29E7A" opacity=".7"/><rect x="111" y="194" width="37" height="106" fill="#E6B790"/><rect x="116" y="202" width="4" height="6" fill="#D29E7A" opacity=".7"/><rect x="126" y="202" width="4" height="6" fill="#D29E7A" opacity=".7"/><rect x="148" y="214" width="23" height="86" fill="#EBC4A0"/><rect x="153" y="222" width="4" height="6" fill="#D29E7A" opacity=".7"/><rect x="171" y="200" width="42" height="100" fill="#E6B790"/><rect x="176" y="208" width="4" height="6" fill="#D29E7A" opacity=".7"/><rect x="198" y="177" width="11" height="23" fill="#EBC4A0"/><rect x="197" y="174" width="13" height="3" fill="#E6B790"/><rect x="213" y="210" width="24" height="90" fill="#EBC4A0"/><rect x="218" y="218" width="4" height="6" fill="#D29E7A" opacity=".7"/><rect x="228" y="218" width="4" height="6" fill="#D29E7A" opacity=".7"/><rect x="238" y="218" width="4" height="6" fill="#D29E7A" opacity=".7"/><rect x="237" y="216" width="37" height="84" fill="#E6B790"/><rect x="242" y="224" width="4" height="6" fill="#D29E7A" opacity=".7"/><rect x="252" y="224" width="4" height="6" fill="#D29E7A" opacity=".7"/><rect x="262" y="224" width="4" height="6" fill="#D29E7A" opacity=".7"/><rect x="274" y="209" width="42" height="91" fill="#E6B790"/><rect x="279" y="217" width="4" height="6" fill="#D29E7A" opacity=".7"/><rect x="316" y="215" width="39" height="85" fill="#EBC4A0"/><rect x="321" y="223" width="4" height="6" fill="#D29E7A" opacity=".7"/><rect x="331" y="223" width="4" height="6" fill="#D29E7A" opacity=".7"/><rect x="341" y="223" width="4" height="6" fill="#D29E7A" opacity=".7"/><rect x="355" y="215" width="40" height="85" fill="#EBC4A0"/><rect x="360" y="223" width="4" height="6" fill="#D29E7A" opacity=".7"/><rect x="370" y="223" width="4" height="6" fill="#D29E7A" opacity=".7"/><rect x="380" y="223" width="4" height="6" fill="#D29E7A" opacity=".7"/><rect x="395" y="200" width="30" height="100" fill="#EBC4A0"/><rect x="400" y="208" width="4" height="6" fill="#D29E7A" opacity=".7"/><rect x="410" y="208" width="4" height="6" fill="#D29E7A" opacity=".7"/><rect x="420" y="208" width="4" height="6" fill="#D29E7A" opacity=".7"/></g><g id="mid"><path d="M-20 170L210 170L210 390L-20 390Z" fill="#F2D48F" stroke="#1B2A3A" stroke-width="1.8"/><path d="M168.6 172L209 172L209 390L168.6 390Z" fill="#DDB86A" opacity=".6"/><path d="M-18 172L3 172L3 390L-18 390Z" fill="#F9E4B0" opacity=".7"/><path d="M-23 170L213 170L213 165L-23 165Z" fill="#F9E4B0" stroke="#1B2A3A" stroke-width="1.44"/><path d="M-20 165L-20 157L210 157L210 165" fill="#F2D48F" stroke="#1B2A3A" stroke-width="1.44"/><path d="M0.8 228.7L0.8 186.1L16.8 186.1L16.8 228.7Z" fill="#3E3024" stroke="#1B2A3A" stroke-width="1.35"/><path d="M-6 186.1L-0.2 186.1L-0.2 228.7L-6 228.7Z" fill="#4E7A5E" stroke="#1B2A3A" stroke-width="0.94"/><path d="M17.8 186.1L23.5 186.1L23.5 228.7L17.8 228.7Z" fill="#3B5F48" stroke="#1B2A3A" stroke-width="0.94"/><path d="M-3.2 228.7L20.8 228.7" fill="none" stroke="#1B2A3A" stroke-width="2.16"/><path d="M-3.2 212.5L20.8 212.5" fill="none" stroke="#1B2A3A" stroke-width="1.08"/><path d="M-3.2 212.5L-3.2 228.7" fill="none" stroke="#1B2A3A" stroke-width="0.81"/><path d="M1.5 212.5L1.5 228.7" fill="none" stroke="#1B2A3A" stroke-width="0.81"/><path d="M6.3 212.5L6.3 228.7" fill="none" stroke="#1B2A3A" stroke-width="0.81"/><path d="M11.2 212.5L11.2 228.7" fill="none" stroke="#1B2A3A" stroke-width="0.81"/><path d="M15.9 212.5L15.9 228.7" fill="none" stroke="#1B2A3A" stroke-width="0.81"/><path d="M20.8 212.5L20.8 228.7" fill="none" stroke="#1B2A3A" stroke-width="0.81"/><path d="M58.2 228.7L58.2 186.1L74.2 186.1L74.2 228.7Z" fill="#3E3024" stroke="#1B2A3A" stroke-width="1.35"/><path d="M51.5 186.1L57.2 186.1L57.2 228.7L51.5 228.7Z" fill="#4E7A5E" stroke="#1B2A3A" stroke-width="0.94"/><path d="M75.2 186.1L81 186.1L81 228.7L75.2 228.7Z" fill="#3B5F48" stroke="#1B2A3A" stroke-width="0.94"/><path d="M54.2 228.7L78.2 228.7" fill="none" stroke="#1B2A3A" stroke-width="2.16"/><path d="M54.2 212.5L78.2 212.5" fill="none" stroke="#1B2A3A" stroke-width="1.08"/><path d="M54.2 212.5L54.2 228.7" fill="none" stroke="#1B2A3A" stroke-width="0.81"/><path d="M59 212.5L59 228.7" fill="none" stroke="#1B2A3A" stroke-width="0.81"/><path d="M63.9 212.5L63.9 228.7" fill="none" stroke="#1B2A3A" stroke-width="0.81"/><path d="M68.7 212.5L68.7 228.7" fill="none" stroke="#1B2A3A" stroke-width="0.81"/><path d="M73.5 212.5L73.5 228.7" fill="none" stroke="#1B2A3A" stroke-width="0.81"/><path d="M78.2 212.5L78.2 228.7" fill="none" stroke="#1B2A3A" stroke-width="0.81"/><path d="M115.8 228.7L115.8 186.1L131.8 186.1L131.8 228.7Z" fill="#3E3024" stroke="#1B2A3A" stroke-width="1.35"/><path d="M109 186.1L114.8 186.1L114.8 228.7L109 228.7Z" fill="#4E7A5E" stroke="#1B2A3A" stroke-width="0.94"/><path d="M132.8 186.1L138.5 186.1L138.5 228.7L132.8 228.7Z" fill="#3B5F48" stroke="#1B2A3A" stroke-width="0.94"/><path d="M111.8 228.7L135.8 228.7" fill="none" stroke="#1B2A3A" stroke-width="2.16"/><path d="M111.8 212.5L135.8 212.5" fill="none" stroke="#1B2A3A" stroke-width="1.08"/><path d="M111.8 212.5L111.8 228.7" fill="none" stroke="#1B2A3A" stroke-width="0.81"/><path d="M116.5 212.5L116.5 228.7" fill="none" stroke="#1B2A3A" stroke-width="0.81"/><path d="M121.3 212.5L121.3 228.7" fill="none" stroke="#1B2A3A" stroke-width="0.81"/><path d="M126.2 212.5L126.2 228.7" fill="none" stroke="#1B2A3A" stroke-width="0.81"/><path d="M130.9 212.5L130.9 228.7" fill="none" stroke="#1B2A3A" stroke-width="0.81"/><path d="M135.8 212.5L135.8 228.7" fill="none" stroke="#1B2A3A" stroke-width="0.81"/><path d="M173.2 228.7L173.2 186.1L189.2 186.1L189.2 228.7Z" fill="#3E3024" stroke="#1B2A3A" stroke-width="1.35"/><path d="M166.5 186.1L172.2 186.1L172.2 228.7L166.5 228.7Z" fill="#4E7A5E" stroke="#1B2A3A" stroke-width="0.94"/><path d="M190.2 186.1L196 186.1L196 228.7L190.2 228.7Z" fill="#3B5F48" stroke="#1B2A3A" stroke-width="0.94"/><path d="M169.2 228.7L193.2 228.7" fill="none" stroke="#1B2A3A" stroke-width="2.16"/><path d="M169.2 212.5L193.2 212.5" fill="none" stroke="#1B2A3A" stroke-width="1.08"/><path d="M169.2 212.5L169.2 228.7" fill="none" stroke="#1B2A3A" stroke-width="0.81"/><path d="M174.1 212.5L174.1 228.7" fill="none" stroke="#1B2A3A" stroke-width="0.81"/><path d="M178.8 212.5L178.8 228.7" fill="none" stroke="#1B2A3A" stroke-width="0.81"/><path d="M183.7 212.5L183.7 228.7" fill="none" stroke="#1B2A3A" stroke-width="0.81"/><path d="M188.4 212.5L188.4 228.7" fill="none" stroke="#1B2A3A" stroke-width="0.81"/><path d="M193.2 212.5L193.2 228.7" fill="none" stroke="#1B2A3A" stroke-width="0.81"/><path d="M0.8 302L0.8 259.5L16.8 259.5L16.8 302Z" fill="#3E3024" stroke="#1B2A3A" stroke-width="1.35"/><path d="M-6 259.5L-0.2 259.5L-0.2 302L-6 302Z" fill="#4E7A5E" stroke="#1B2A3A" stroke-width="0.94"/><path d="M17.8 259.5L23.5 259.5L23.5 302L17.8 302Z" fill="#3B5F48" stroke="#1B2A3A" stroke-width="0.94"/><path d="M-3.2 302L20.8 302" fill="none" stroke="#1B2A3A" stroke-width="2.16"/><path d="M-3.2 285.8L20.8 285.8" fill="none" stroke="#1B2A3A" stroke-width="1.08"/><path d="M-3.2 285.8L-3.2 302" fill="none" stroke="#1B2A3A" stroke-width="0.81"/><path d="M1.5 285.8L1.5 302" fill="none" stroke="#1B2A3A" stroke-width="0.81"/><path d="M6.3 285.8L6.3 302" fill="none" stroke="#1B2A3A" stroke-width="0.81"/><path d="M11.2 285.8L11.2 302" fill="none" stroke="#1B2A3A" stroke-width="0.81"/><path d="M15.9 285.8L15.9 302" fill="none" stroke="#1B2A3A" stroke-width="0.81"/><path d="M20.8 285.8L20.8 302" fill="none" stroke="#1B2A3A" stroke-width="0.81"/><path d="M58.2 302L58.2 259.5L74.2 259.5L74.2 302Z" fill="#3E3024" stroke="#1B2A3A" stroke-width="1.35"/><path d="M51.5 259.5L57.2 259.5L57.2 302L51.5 302Z" fill="#4E7A5E" stroke="#1B2A3A" stroke-width="0.94"/><path d="M75.2 259.5L81 259.5L81 302L75.2 302Z" fill="#3B5F48" stroke="#1B2A3A" stroke-width="0.94"/><path d="M54.2 302L78.2 302" fill="none" stroke="#1B2A3A" stroke-width="2.16"/><path d="M54.2 285.8L78.2 285.8" fill="none" stroke="#1B2A3A" stroke-width="1.08"/><path d="M54.2 285.8L54.2 302" fill="none" stroke="#1B2A3A" stroke-width="0.81"/><path d="M59 285.8L59 302" fill="none" stroke="#1B2A3A" stroke-width="0.81"/><path d="M63.9 285.8L63.9 302" fill="none" stroke="#1B2A3A" stroke-width="0.81"/><path d="M68.7 285.8L68.7 302" fill="none" stroke="#1B2A3A" stroke-width="0.81"/><path d="M73.5 285.8L73.5 302" fill="none" stroke="#1B2A3A" stroke-width="0.81"/><path d="M78.2 285.8L78.2 302" fill="none" stroke="#1B2A3A" stroke-width="0.81"/><path d="M115.8 302L115.8 259.5L131.8 259.5L131.8 302Z" fill="#3E3024" stroke="#1B2A3A" stroke-width="1.35"/><path d="M109 259.5L114.8 259.5L114.8 302L109 302Z" fill="#4E7A5E" stroke="#1B2A3A" stroke-width="0.94"/><path d="M132.8 259.5L138.5 259.5L138.5 302L132.8 302Z" fill="#3B5F48" stroke="#1B2A3A" stroke-width="0.94"/><path d="M111.8 302L135.8 302" fill="none" stroke="#1B2A3A" stroke-width="2.16"/><path d="M111.8 285.8L135.8 285.8" fill="none" stroke="#1B2A3A" stroke-width="1.08"/><path d="M111.8 285.8L111.8 302" fill="none" stroke="#1B2A3A" stroke-width="0.81"/><path d="M116.5 285.8L116.5 302" fill="none" stroke="#1B2A3A" stroke-width="0.81"/><path d="M121.3 285.8L121.3 302" fill="none" stroke="#1B2A3A" stroke-width="0.81"/><path d="M126.2 285.8L126.2 302" fill="none" stroke="#1B2A3A" stroke-width="0.81"/><path d="M130.9 285.8L130.9 302" fill="none" stroke="#1B2A3A" stroke-width="0.81"/><path d="M135.8 285.8L135.8 302" fill="none" stroke="#1B2A3A" stroke-width="0.81"/><path d="M173.2 302L173.2 259.5L189.2 259.5L189.2 302Z" fill="#3E3024" stroke="#1B2A3A" stroke-width="1.35"/><path d="M166.5 259.5L172.2 259.5L172.2 302L166.5 302Z" fill="#4E7A5E" stroke="#1B2A3A" stroke-width="0.94"/><path d="M190.2 259.5L196 259.5L196 302L190.2 302Z" fill="#3B5F48" stroke="#1B2A3A" stroke-width="0.94"/><path d="M169.2 302L193.2 302" fill="none" stroke="#1B2A3A" stroke-width="2.16"/><path d="M169.2 285.8L193.2 285.8" fill="none" stroke="#1B2A3A" stroke-width="1.08"/><path d="M169.2 285.8L169.2 302" fill="none" stroke="#1B2A3A" stroke-width="0.81"/><path d="M174.1 285.8L174.1 302" fill="none" stroke="#1B2A3A" stroke-width="0.81"/><path d="M178.8 285.8L178.8 302" fill="none" stroke="#1B2A3A" stroke-width="0.81"/><path d="M183.7 285.8L183.7 302" fill="none" stroke="#1B2A3A" stroke-width="0.81"/><path d="M188.4 285.8L188.4 302" fill="none" stroke="#1B2A3A" stroke-width="0.81"/><path d="M193.2 285.8L193.2 302" fill="none" stroke="#1B2A3A" stroke-width="0.81"/><path d="M0.8 375.3L0.8 332.8L16.8 332.8L16.8 375.3Z" fill="#3E3024" stroke="#1B2A3A" stroke-width="1.35"/><path d="M-6 332.8L-0.2 332.8L-0.2 375.3L-6 375.3Z" fill="#4E7A5E" stroke="#1B2A3A" stroke-width="0.94"/><path d="M17.8 332.8L23.5 332.8L23.5 375.3L17.8 375.3Z" fill="#3B5F48" stroke="#1B2A3A" stroke-width="0.94"/><path d="M58.2 375.3L58.2 332.8L74.2 332.8L74.2 375.3Z" fill="#3E3024" stroke="#1B2A3A" stroke-width="1.35"/><path d="M51.5 332.8L57.2 332.8L57.2 375.3L51.5 375.3Z" fill="#4E7A5E" stroke="#1B2A3A" stroke-width="0.94"/><path d="M75.2 332.8L81 332.8L81 375.3L75.2 375.3Z" fill="#3B5F48" stroke="#1B2A3A" stroke-width="0.94"/><path d="M113.8 390L113.8 332.8Q123.8 323.2 133.8 332.8L133.8 390Z" fill="#5B3A26" stroke="#1B2A3A" stroke-width="1.44"/><path d="M173.2 375.3L173.2 332.8L189.2 332.8L189.2 375.3Z" fill="#3E3024" stroke="#1B2A3A" stroke-width="1.35"/><path d="M166.5 332.8L172.2 332.8L172.2 375.3L166.5 375.3Z" fill="#4E7A5E" stroke="#1B2A3A" stroke-width="0.94"/><path d="M190.2 332.8L196 332.8L196 375.3L190.2 375.3Z" fill="#3B5F48" stroke="#1B2A3A" stroke-width="0.94"/><path d="M210 180L410 180L410 390L210 390Z" fill="#F7F0E4" stroke="#1B2A3A" stroke-width="1.8"/><path d="M374 182L409 182L409 390L374 390Z" fill="#E3D5BE" opacity=".6"/><path d="M212 182L230 182L230 390L212 390Z" fill="#FFFBF3" opacity=".7"/><path d="M207 180L413 180L413 175L207 175Z" fill="#FFFBF3" stroke="#1B2A3A" stroke-width="1.44"/><path d="M210 175L210 167L410 167L410 175" fill="#F7F0E4" stroke="#1B2A3A" stroke-width="1.44"/><path d="M235.3 236L235.3 195.4L251.3 195.4L251.3 236Z" fill="#3E3024" stroke="#1B2A3A" stroke-width="1.35"/><path d="M228.6 195.4L234.3 195.4L234.3 236L228.6 236Z" fill="#4E7A5E" stroke="#1B2A3A" stroke-width="0.94"/><path d="M252.3 195.4L258.1 195.4L258.1 236L252.3 236Z" fill="#3B5F48" stroke="#1B2A3A" stroke-width="0.94"/><path d="M231.3 236L255.3 236" fill="none" stroke="#1B2A3A" stroke-width="2.16"/><path d="M231.3 220.6L255.3 220.6" fill="none" stroke="#1B2A3A" stroke-width="1.08"/><path d="M231.3 220.6L231.3 236" fill="none" stroke="#1B2A3A" stroke-width="0.81"/><path d="M236.1 220.6L236.1 236" fill="none" stroke="#1B2A3A" stroke-width="0.81"/><path d="M240.9 220.6L240.9 236" fill="none" stroke="#1B2A3A" stroke-width="0.81"/><path d="M245.7 220.6L245.7 236" fill="none" stroke="#1B2A3A" stroke-width="0.81"/><path d="M250.5 220.6L250.5 236" fill="none" stroke="#1B2A3A" stroke-width="0.81"/><path d="M255.3 220.6L255.3 236" fill="none" stroke="#1B2A3A" stroke-width="0.81"/><path d="M302 236L302 195.4L318 195.4L318 236Z" fill="#F4C66A" stroke="#1B2A3A" stroke-width="1.35"/><path d="M295.3 195.4L301 195.4L301 236L295.3 236Z" fill="#4E7A5E" stroke="#1B2A3A" stroke-width="0.94"/><path d="M319 195.4L324.7 195.4L324.7 236L319 236Z" fill="#3B5F48" stroke="#1B2A3A" stroke-width="0.94"/><path d="M298 236L322 236" fill="none" stroke="#1B2A3A" stroke-width="2.16"/><path d="M298 220.6L322 220.6" fill="none" stroke="#1B2A3A" stroke-width="1.08"/><path d="M298 220.6L298 236" fill="none" stroke="#1B2A3A" stroke-width="0.81"/><path d="M302.8 220.6L302.8 236" fill="none" stroke="#1B2A3A" stroke-width="0.81"/><path d="M307.6 220.6L307.6 236" fill="none" stroke="#1B2A3A" stroke-width="0.81"/><path d="M312.4 220.6L312.4 236" fill="none" stroke="#1B2A3A" stroke-width="0.81"/><path d="M317.2 220.6L317.2 236" fill="none" stroke="#1B2A3A" stroke-width="0.81"/><path d="M322 220.6L322 236" fill="none" stroke="#1B2A3A" stroke-width="0.81"/><path d="M368.7 236L368.7 195.4L384.7 195.4L384.7 236Z" fill="#3E3024" stroke="#1B2A3A" stroke-width="1.35"/><path d="M361.9 195.4L367.7 195.4L367.7 236L361.9 236Z" fill="#4E7A5E" stroke="#1B2A3A" stroke-width="0.94"/><path d="M385.7 195.4L391.4 195.4L391.4 236L385.7 236Z" fill="#3B5F48" stroke="#1B2A3A" stroke-width="0.94"/><path d="M364.7 236L388.7 236" fill="none" stroke="#1B2A3A" stroke-width="2.16"/><path d="M364.7 220.6L388.7 220.6" fill="none" stroke="#1B2A3A" stroke-width="1.08"/><path d="M364.7 220.6L364.7 236" fill="none" stroke="#1B2A3A" stroke-width="0.81"/><path d="M369.5 220.6L369.5 236" fill="none" stroke="#1B2A3A" stroke-width="0.81"/><path d="M374.3 220.6L374.3 236" fill="none" stroke="#1B2A3A" stroke-width="0.81"/><path d="M379.1 220.6L379.1 236" fill="none" stroke="#1B2A3A" stroke-width="0.81"/><path d="M383.9 220.6L383.9 236" fill="none" stroke="#1B2A3A" stroke-width="0.81"/><path d="M388.7 220.6L388.7 236" fill="none" stroke="#1B2A3A" stroke-width="0.81"/><path d="M235.3 306L235.3 265.4L251.3 265.4L251.3 306Z" fill="#3E3024" stroke="#1B2A3A" stroke-width="1.35"/><path d="M228.6 265.4L234.3 265.4L234.3 306L228.6 306Z" fill="#4E7A5E" stroke="#1B2A3A" stroke-width="0.94"/><path d="M252.3 265.4L258.1 265.4L258.1 306L252.3 306Z" fill="#3B5F48" stroke="#1B2A3A" stroke-width="0.94"/><path d="M231.3 306L255.3 306" fill="none" stroke="#1B2A3A" stroke-width="2.16"/><path d="M231.3 290.6L255.3 290.6" fill="none" stroke="#1B2A3A" stroke-width="1.08"/><path d="M231.3 290.6L231.3 306" fill="none" stroke="#1B2A3A" stroke-width="0.81"/><path d="M236.1 290.6L236.1 306" fill="none" stroke="#1B2A3A" stroke-width="0.81"/><path d="M240.9 290.6L240.9 306" fill="none" stroke="#1B2A3A" stroke-width="0.81"/><path d="M245.7 290.6L245.7 306" fill="none" stroke="#1B2A3A" stroke-width="0.81"/><path d="M250.5 290.6L250.5 306" fill="none" stroke="#1B2A3A" stroke-width="0.81"/><path d="M255.3 290.6L255.3 306" fill="none" stroke="#1B2A3A" stroke-width="0.81"/><path d="M302 306L302 265.4L318 265.4L318 306Z" fill="#3E3024" stroke="#1B2A3A" stroke-width="1.35"/><path d="M295.3 265.4L301 265.4L301 306L295.3 306Z" fill="#4E7A5E" stroke="#1B2A3A" stroke-width="0.94"/><path d="M319 265.4L324.7 265.4L324.7 306L319 306Z" fill="#3B5F48" stroke="#1B2A3A" stroke-width="0.94"/><path d="M298 306L322 306" fill="none" stroke="#1B2A3A" stroke-width="2.16"/><path d="M298 290.6L322 290.6" fill="none" stroke="#1B2A3A" stroke-width="1.08"/><path d="M298 290.6L298 306" fill="none" stroke="#1B2A3A" stroke-width="0.81"/><path d="M302.8 290.6L302.8 306" fill="none" stroke="#1B2A3A" stroke-width="0.81"/><path d="M307.6 290.6L307.6 306" fill="none" stroke="#1B2A3A" stroke-width="0.81"/><path d="M312.4 290.6L312.4 306" fill="none" stroke="#1B2A3A" stroke-width="0.81"/><path d="M317.2 290.6L317.2 306" fill="none" stroke="#1B2A3A" stroke-width="0.81"/><path d="M322 290.6L322 306" fill="none" stroke="#1B2A3A" stroke-width="0.81"/><path d="M368.7 306L368.7 265.4L384.7 265.4L384.7 306Z" fill="#3E3024" stroke="#1B2A3A" stroke-width="1.35"/><path d="M361.9 265.4L367.7 265.4L367.7 306L361.9 306Z" fill="#4E7A5E" stroke="#1B2A3A" stroke-width="0.94"/><path d="M385.7 265.4L391.4 265.4L391.4 306L385.7 306Z" fill="#3B5F48" stroke="#1B2A3A" stroke-width="0.94"/><path d="M364.7 306L388.7 306" fill="none" stroke="#1B2A3A" stroke-width="2.16"/><path d="M364.7 290.6L388.7 290.6" fill="none" stroke="#1B2A3A" stroke-width="1.08"/><path d="M364.7 290.6L364.7 306" fill="none" stroke="#1B2A3A" stroke-width="0.81"/><path d="M369.5 290.6L369.5 306" fill="none" stroke="#1B2A3A" stroke-width="0.81"/><path d="M374.3 290.6L374.3 306" fill="none" stroke="#1B2A3A" stroke-width="0.81"/><path d="M379.1 290.6L379.1 306" fill="none" stroke="#1B2A3A" stroke-width="0.81"/><path d="M383.9 290.6L383.9 306" fill="none" stroke="#1B2A3A" stroke-width="0.81"/><path d="M388.7 290.6L388.7 306" fill="none" stroke="#1B2A3A" stroke-width="0.81"/><path d="M235.3 376L235.3 335.4L251.3 335.4L251.3 376Z" fill="#3E3024" stroke="#1B2A3A" stroke-width="1.35"/><path d="M228.6 335.4L234.3 335.4L234.3 376L228.6 376Z" fill="#4E7A5E" stroke="#1B2A3A" stroke-width="0.94"/><path d="M252.3 335.4L258.1 335.4L258.1 376L252.3 376Z" fill="#3B5F48" stroke="#1B2A3A" stroke-width="0.94"/><path d="M300 390L300 335.4Q310 325.8 320 335.4L320 390Z" fill="#5B3A26" stroke="#1B2A3A" stroke-width="1.44"/><path d="M368.7 376L368.7 335.4L384.7 335.4L384.7 376Z" fill="#3E3024" stroke="#1B2A3A" stroke-width="1.35"/><path d="M361.9 335.4L367.7 335.4L367.7 376L361.9 376Z" fill="#4E7A5E" stroke="#1B2A3A" stroke-width="0.94"/><path d="M385.7 335.4L391.4 335.4L391.4 376L385.7 376Z" fill="#3B5F48" stroke="#1B2A3A" stroke-width="0.94"/><rect x="-10" y="386" width="410" height="42" fill="#DDBE98"/><path d="M60 390V340H330V390Z" fill="#EFDCB8" stroke="#1B2A3A" stroke-width="1.8"/><path d="M70 350H320" stroke="#D2B78C" stroke-width="2"/><path d="M80 360H310" stroke="#D2B78C" stroke-width="2"/><path d="M90 370H300" stroke="#D2B78C" stroke-width="2"/><path d="M100 380H290" stroke="#D2B78C" stroke-width="2"/><path d="M86 160L94 160L94 340L86 340Z" fill="#FBF0DA" stroke="#1B2A3A" stroke-width="1.4"/><path d="M91 160L94 160L94 340L91 340Z" fill="#D2B78C" opacity=".7"/><path d="M84 160L96 160L96 157L84 157Z" fill="#EFDCB8" stroke="#1B2A3A" stroke-width="1.12"/><path d="M128 160L136 160L136 340L128 340Z" fill="#FBF0DA" stroke="#1B2A3A" stroke-width="1.4"/><path d="M133 160L136 160L136 340L133 340Z" fill="#D2B78C" opacity=".7"/><path d="M126 160L138 160L138 157L126 157Z" fill="#EFDCB8" stroke="#1B2A3A" stroke-width="1.12"/><path d="M170 160L178 160L178 340L170 340Z" fill="#FBF0DA" stroke="#1B2A3A" stroke-width="1.4"/><path d="M175 160L178 160L178 340L175 340Z" fill="#D2B78C" opacity=".7"/><path d="M168 160L180 160L180 157L168 157Z" fill="#EFDCB8" stroke="#1B2A3A" stroke-width="1.12"/><path d="M212 160L220 160L220 340L212 340Z" fill="#FBF0DA" stroke="#1B2A3A" stroke-width="1.4"/><path d="M217 160L220 160L220 340L217 340Z" fill="#D2B78C" opacity=".7"/><path d="M210 160L222 160L222 157L210 157Z" fill="#EFDCB8" stroke="#1B2A3A" stroke-width="1.12"/><path d="M254 160L262 160L262 340L254 340Z" fill="#FBF0DA" stroke="#1B2A3A" stroke-width="1.4"/><path d="M259 160L262 160L262 340L259 340Z" fill="#D2B78C" opacity=".7"/><path d="M252 160L264 160L264 157L252 157Z" fill="#EFDCB8" stroke="#1B2A3A" stroke-width="1.12"/><path d="M296 160L304 160L304 340L296 340Z" fill="#FBF0DA" stroke="#1B2A3A" stroke-width="1.4"/><path d="M301 160L304 160L304 340L301 340Z" fill="#D2B78C" opacity=".7"/><path d="M294 160L306 160L306 157L294 157Z" fill="#EFDCB8" stroke="#1B2A3A" stroke-width="1.12"/><path d="M80 160H310V172H80Z" fill="#FBF0DA" stroke="#1B2A3A" stroke-width="1.6"/><path d="M84 172Q90 164 96 172" fill="#EFDCB8" stroke="#1B2A3A" stroke-width="1"/><path d="M126 172Q132 164 138 172" fill="#EFDCB8" stroke="#1B2A3A" stroke-width="1"/><path d="M168 172Q174 164 180 172" fill="#EFDCB8" stroke="#1B2A3A" stroke-width="1"/><path d="M210 172Q216 164 222 172" fill="#EFDCB8" stroke="#1B2A3A" stroke-width="1"/><path d="M252 172Q258 164 264 172" fill="#EFDCB8" stroke="#1B2A3A" stroke-width="1"/><path d="M294 172Q300 164 306 172" fill="#EFDCB8" stroke="#1B2A3A" stroke-width="1"/></g><g id="near"><rect x="0" y="420" width="390" height="140" fill="#E8CFAB"/><rect x="0" y="420" width="390" height="140" fill="url(#ktedots)"/><rect x="0" y="436" width="390" height="1.2" fill="#D7B994"/><rect x="0" y="456" width="390" height="1.2" fill="#D7B994"/><rect x="0" y="484" width="390" height="1.2" fill="#D7B994"/><rect x="0" y="522" width="390" height="1.2" fill="#D7B994"/><path d="M195 420L-273 560" fill="none" stroke="#D7B994" stroke-width="1"/><path d="M195 420L-221 560" fill="none" stroke="#D7B994" stroke-width="1"/><path d="M195 420L-169 560" fill="none" stroke="#D7B994" stroke-width="1"/><path d="M195 420L-117 560" fill="none" stroke="#D7B994" stroke-width="1"/><path d="M195 420L-65 560" fill="none" stroke="#D7B994" stroke-width="1"/><path d="M195 420L-13 560" fill="none" stroke="#D7B994" stroke-width="1"/><path d="M195 420L39 560" fill="none" stroke="#D7B994" stroke-width="1"/><path d="M195 420L91 560" fill="none" stroke="#D7B994" stroke-width="1"/><path d="M195 420L143 560" fill="none" stroke="#D7B994" stroke-width="1"/><path d="M195 420L195 560" fill="none" stroke="#D7B994" stroke-width="1"/><path d="M195 420L247 560" fill="none" stroke="#D7B994" stroke-width="1"/><path d="M195 420L299 560" fill="none" stroke="#D7B994" stroke-width="1"/><path d="M195 420L351 560" fill="none" stroke="#D7B994" stroke-width="1"/><path d="M195 420L403 560" fill="none" stroke="#D7B994" stroke-width="1"/><path d="M195 420L455 560" fill="none" stroke="#D7B994" stroke-width="1"/><path d="M195 420L507 560" fill="none" stroke="#D7B994" stroke-width="1"/><path d="M195 420L559 560" fill="none" stroke="#D7B994" stroke-width="1"/><path d="M195 420L611 560" fill="none" stroke="#D7B994" stroke-width="1"/><path d="M195 420L663 560" fill="none" stroke="#D7B994" stroke-width="1"/><path d="M20 480L20 432" stroke="#6E4C33" stroke-width="8.8"/><circle cx="20" cy="416" r="40" fill="#4F7F5A"/><circle cx="-8" cy="428" r="28" fill="#4F7F5A"/><circle cx="48" cy="426" r="30" fill="#3D6647"/><circle cx="28" cy="396" r="24" fill="#4F7F5A"/><circle cx="8" cy="404" r="14" fill="#6F9E73" opacity=".7"/><path d="M370 480L370 432" stroke="#6E4C33" stroke-width="8.8"/><circle cx="370" cy="416" r="40" fill="#4F7F5A"/><circle cx="342" cy="428" r="28" fill="#4F7F5A"/><circle cx="398" cy="426" r="30" fill="#3D6647"/><circle cx="378" cy="396" r="24" fill="#4F7F5A"/><circle cx="358" cy="404" r="14" fill="#6F9E73" opacity=".7"/><ellipse cx="180" cy="447" rx="5.7" ry="1.5" fill="#5B3524" opacity=".2"/><path d="M178.1 446L178.1 439.4M181.9 446L181.9 439.4" stroke="#3A3A48" stroke-width="2.3"/><path d="M176.7 440.3L177.2 431.8L182.8 431.8L183.3 440.3Z" fill="#2F6F73"/><circle cx="180" cy="428.9" r="2.8" fill="#D9A07A"/><ellipse cx="206" cy="451" rx="6" ry="1.6" fill="#5B3524" opacity=".2"/><path d="M204 450L204 443M208 450L208 443" stroke="#3A3A48" stroke-width="2.4"/><path d="M202.5 444L203 435L209 435L209.5 444Z" fill="#A8431F"/><circle cx="206" cy="432" r="3" fill="#D9A07A"/></g><g id="fx"><defs><radialGradient id="ktefxv" cx=".5" cy=".4" r=".7"><stop offset=".5" stop-color="#5B3524" stop-opacity="0"/><stop offset="1" stop-color="#3A2418" stop-opacity=".3"/></radialGradient><linearGradient id="ktefxr" x1="0" y1="0" x2="0" y2="1"><stop offset="0" stop-color="#FFF4DC" stop-opacity="0.3"/><stop offset="1" stop-color="#FFF4DC" stop-opacity="0"/></linearGradient><linearGradient id="ktefxb" x1="0" y1="0" x2="0" y2="1"><stop offset=".7" stop-color="#1B2A3A" stop-opacity="0"/><stop offset="1" stop-color="#1B2A3A" stop-opacity=".25"/></linearGradient></defs><path d="M300 100L781.8 607.8L716.4 662.7Z" fill="url(#ktefxr)"/><path d="M300 100L579.1 741.9L498.8 771.2Z" fill="url(#ktefxr)"/><path d="M300 100L318.3 799.8L232.9 796.8Z" fill="url(#ktefxr)"/><path d="M300 100L77.9 763.8L-1.4 731.8Z" fill="url(#ktefxr)"/><path d="M300 100L-163.8 624.3L-224.3 563.8Z" fill="url(#ktefxr)"/><rect x="0" y="412" width="390" height="16" fill="#3A2418" opacity=".06"/><rect x="0" y="0" width="390" height="560" fill="url(#ktefxb)"/><rect x="0" y="0" width="390" height="560" fill="url(#ktefxv)"/></g></svg>
