<svg stroke-linecap="round" stroke-linejoin="round" xmlns="http://www.w3.org/2000/svg" width="390" height="560" viewBox="0 0 390 560" role="img" aria-label="Mirador de San Nicolás"><defs><linearGradient id="gsnsky" x1="0" y1="0" x2="0" y2="1"><stop offset="0" stop-color="#E79E70"/><stop offset=".4" stop-color="#F3C79B"/><stop offset=".6" stop-color="#F8DDB8"/><stop offset="1" stop-color="#FBEBD3"/></linearGradient><radialGradient id="gsnglow"><stop offset="0" stop-color="#FFF4DD" stop-opacity=".9"/><stop offset=".3" stop-color="#FFF4DD" stop-opacity=".4"/><stop offset="1" stop-color="#FFF4DD" stop-opacity="0"/></radialGradient><pattern id="gsndots" width="7" height="7" patternUnits="userSpaceOnUse"><circle cx="1.5" cy="1.5" r=".8" fill="#C9A57E" opacity=".5"/><circle cx="5" cy="4.5" r=".6" fill="#C9A57E" opacity=".4"/></pattern><linearGradient id="gsnsea" x1="0" y1="0" x2="0" y2="1"><stop offset="0" stop-color="#8FB9B4"/><stop offset="1" stop-color="#6E9FA0"/></linearGradient><linearGradient id="gsndome" x1="0" y1="0" x2="1" y2="0"><stop offset="0" stop-color="#F9D776"/><stop offset=".45" stop-color="#EDB943"/><stop offset="1" stop-color="#C98E2A"/></linearGradient></defs><g id="sky"><rect x="0" y="0" width="390" height="560" fill="url(#gsnsky)"/><circle cx="300" cy="150" r="108.8" fill="url(#gsnglow)"/><circle cx="300" cy="150" r="34" fill="#FFF3DC"/><g opacity=".9"><ellipse cx="80" cy="74.8" rx="27.2" ry="7.2" fill="#FFF6EA"/><circle cx="68.8" cy="70" r="8.8" fill="#FFF6EA"/><circle cx="81.6" cy="66" r="11.2" fill="#FFF6EA"/><circle cx="93.6" cy="70.8" r="7.2" fill="#FFF6EA"/></g><path d="M174 90Q177 86 180 90Q183 86 186 90" fill="none" stroke="#1B2A3A" stroke-width="1.3" opacity=".7"/><path d="M195.2 80Q197.6 76.8 200 80Q202.4 76.8 204.8 80" fill="none" stroke="#1B2A3A" stroke-width="1.3" opacity=".7"/></g><g id="far"><path d="M-10 250L40 200L90 230L150 180L210 220L270 170L330 215L400 190L400 290L-10 290Z" fill="#C9C6CF"/><path d="M22 216L40 200L58 214L48 218L40 212L32 219Z" fill="#FFFFFF"/><path d="M132 196L150 180L168 194L158 198L150 192L142 199Z" fill="#FFFFFF"/><path d="M252 186L270 170L288 184L278 188L270 182L262 189Z" fill="#FFFFFF"/><path d="M382 206L400 190L418 204L408 208L400 202L392 209Z" fill="#FFFFFF"/></g><g id="mid"><path d="M-10 310Q80 260 200 264Q320 266 400 300L400 390L-10 390Z" fill="#6E9F7A"/><circle cx="0" cy="300" r="12" fill="#4F7F5A"/><circle cx="22" cy="306" r="13" fill="#4F7F5A"/><circle cx="44" cy="312" r="14" fill="#4F7F5A"/><circle cx="66" cy="300" r="15" fill="#4F7F5A"/><circle cx="88" cy="306" r="16" fill="#4F7F5A"/><circle cx="110" cy="312" r="17" fill="#4F7F5A"/><circle cx="132" cy="300" r="18" fill="#4F7F5A"/><circle cx="154" cy="306" r="12" fill="#4F7F5A"/><circle cx="176" cy="312" r="13" fill="#4F7F5A"/><circle cx="198" cy="300" r="14" fill="#4F7F5A"/><circle cx="220" cy="306" r="15" fill="#4F7F5A"/><circle cx="242" cy="312" r="16" fill="#4F7F5A"/><circle cx="264" cy="300" r="17" fill="#4F7F5A"/><circle cx="286" cy="306" r="18" fill="#4F7F5A"/><circle cx="308" cy="312" r="12" fill="#4F7F5A"/><circle cx="330" cy="300" r="13" fill="#4F7F5A"/><circle cx="352" cy="306" r="14" fill="#4F7F5A"/><circle cx="374" cy="312" r="15" fill="#4F7F5A"/><circle cx="396" cy="300" r="16" fill="#4F7F5A"/><path d="M20 270L370 264L370 286L20 292Z" fill="#C4623F" stroke="#1B2A3A" stroke-width="1.4"/><path d="M30 247.8L56 247.8L56 290L30 290Z" fill="#C4623F" stroke="#1B2A3A" stroke-width="1.4"/><path d="M48.2 247.8L56 247.8L56 290L48.2 290Z" fill="#A34E31" opacity=".6"/><path d="M33 247.8V243.8H37V247.8" fill="#C4623F" stroke="#1B2A3A" stroke-width="1"/><path d="M40 247.8V243.8H44V247.8" fill="#C4623F" stroke="#1B2A3A" stroke-width="1"/><path d="M47 247.8V243.8H51V247.8" fill="#C4623F" stroke="#1B2A3A" stroke-width="1"/><path d="M41.0 255.8V261.8" stroke="#1B2A3A" stroke-width="2.4"/><path d="M90 252.8L112 252.8L112 290L90 290Z" fill="#C4623F" stroke="#1B2A3A" stroke-width="1.4"/><path d="M105.4 252.8L112 252.8L112 290L105.4 290Z" fill="#A34E31" opacity=".6"/><path d="M93 252.8V248.8H97V252.8" fill="#C4623F" stroke="#1B2A3A" stroke-width="1"/><path d="M100 252.8V248.8H104V252.8" fill="#C4623F" stroke="#1B2A3A" stroke-width="1"/><path d="M107 252.8V248.8H111V252.8" fill="#C4623F" stroke="#1B2A3A" stroke-width="1"/><path d="M99.0 260.8V266.8" stroke="#1B2A3A" stroke-width="2.4"/><path d="M150 223.8L180 223.8L180 290L150 290Z" fill="#D98A68" stroke="#1B2A3A" stroke-width="1.4"/><path d="M171.0 223.8L180 223.8L180 290L171.0 290Z" fill="#A34E31" opacity=".6"/><path d="M153 223.8V219.8H157V223.8" fill="#C4623F" stroke="#1B2A3A" stroke-width="1"/><path d="M160 223.8V219.8H164V223.8" fill="#C4623F" stroke="#1B2A3A" stroke-width="1"/><path d="M167 223.8V219.8H171V223.8" fill="#C4623F" stroke="#1B2A3A" stroke-width="1"/><path d="M174 223.8V219.8H178V223.8" fill="#C4623F" stroke="#1B2A3A" stroke-width="1"/><path d="M163.0 231.8V237.8" stroke="#1B2A3A" stroke-width="2.4"/><path d="M215 246.7L237 246.7L237 290L215 290Z" fill="#C4623F" stroke="#1B2A3A" stroke-width="1.4"/><path d="M230.4 246.7L237 246.7L237 290L230.4 290Z" fill="#A34E31" opacity=".6"/><path d="M218 246.7V242.7H222V246.7" fill="#C4623F" stroke="#1B2A3A" stroke-width="1"/><path d="M225 246.7V242.7H229V246.7" fill="#C4623F" stroke="#1B2A3A" stroke-width="1"/><path d="M232 246.7V242.7H236V246.7" fill="#C4623F" stroke="#1B2A3A" stroke-width="1"/><path d="M224.0 254.7V260.7" stroke="#1B2A3A" stroke-width="2.4"/><path d="M270 235.7L296 235.7L296 290L270 290Z" fill="#C4623F" stroke="#1B2A3A" stroke-width="1.4"/><path d="M288.2 235.7L296 235.7L296 290L288.2 290Z" fill="#A34E31" opacity=".6"/><path d="M273 235.7V231.7H277V235.7" fill="#C4623F" stroke="#1B2A3A" stroke-width="1"/><path d="M280 235.7V231.7H284V235.7" fill="#C4623F" stroke="#1B2A3A" stroke-width="1"/><path d="M287 235.7V231.7H291V235.7" fill="#C4623F" stroke="#1B2A3A" stroke-width="1"/><path d="M281.0 243.7V249.7" stroke="#1B2A3A" stroke-width="2.4"/><path d="M330 246.7L352 246.7L352 290L330 290Z" fill="#C4623F" stroke="#1B2A3A" stroke-width="1.4"/><path d="M345.4 246.7L352 246.7L352 290L345.4 290Z" fill="#A34E31" opacity=".6"/><path d="M333 246.7V242.7H337V246.7" fill="#C4623F" stroke="#1B2A3A" stroke-width="1"/><path d="M340 246.7V242.7H344V246.7" fill="#C4623F" stroke="#1B2A3A" stroke-width="1"/><path d="M347 246.7V242.7H351V246.7" fill="#C4623F" stroke="#1B2A3A" stroke-width="1"/><path d="M339.0 254.7V260.7" stroke="#1B2A3A" stroke-width="2.4"/><path d="M234 262L262 262L262 274L234 274Z" fill="#E7C98E" stroke="#1B2A3A" stroke-width="1.4"/><path d="M120 254Q126 271 123.6 288L116.4 288Q114 271 120 254Z" fill="#2F5A3F"/><path d="M200 256Q206 271 203.6 286L196.4 286Q194 271 200 256Z" fill="#2F5A3F"/><path d="M300 254Q306 272 303.6 290L296.4 290Q294 272 300 254Z" fill="#2F5A3F"/><rect x="-10" y="384" width="410" height="44" fill="#6E9F7A"/></g><g id="near"><rect x="-10" y="390" width="410" height="180" fill="#E4CDA8"/><rect x="-10" y="390" width="410" height="180" fill="url(#gsndots)"/><path d="M-10 390L400 390L400 412L-10 412Z" fill="#F7F3EA" stroke="#1B2A3A" stroke-width="1.6"/><path d="M-10 388L400 388" stroke="#1B2A3A" stroke-width="2"/><path d="M300 412V230H400V412Z" fill="#F7F3EA" stroke="#1B2A3A" stroke-width="1.8"/><path d="M296 230L350 196L404 230Z" fill="#B5553A" stroke="#1B2A3A" stroke-width="1.6"/><path d="M320 412V350Q336 334 352 350V412Z" fill="#5B3A26" stroke="#1B2A3A" stroke-width="1.6"/><path d="M300 180V230H330V180Z" fill="#F7F3EA" stroke="#1B2A3A" stroke-width="1.6"/><path d="M296 180L315 164L334 180Z" fill="#B5553A" stroke="#1B2A3A" stroke-width="1.4"/><path d="M309 212L309 190Q315 183.4 321 190L321 212Z" fill="#3E3024" stroke="#1B2A3A" stroke-width="1.1"/><ellipse cx="80" cy="451" rx="6" ry="1.6" fill="#5B3524" opacity=".2"/><path d="M78 450L78 443M82 450L82 443" stroke="#3A3A48" stroke-width="2.4"/><path d="M76.5 444L77 435L83 435L83.5 444Z" fill="#2F6F73"/><circle cx="80" cy="432" r="3" fill="#D9A07A"/><ellipse cx="110" cy="455" rx="5.7" ry="1.5" fill="#5B3524" opacity=".2"/><path d="M105.2 454L107.6 440.7L112.4 440.7L114.8 454Z" fill="#A8431F"/><circle cx="110" cy="436.9" r="2.8" fill="#D9A07A"/><ellipse cx="230" cy="451" rx="6" ry="1.6" fill="#5B3524" opacity=".2"/><path d="M225 450L227.5 436L232.5 436L235 450Z" fill="#6E2C5E"/><circle cx="230" cy="432" r="3" fill="#D9A07A"/><path d="M20 540L20 496.8" stroke="#6E4C33" stroke-width="7.9"/><circle cx="20" cy="482.4" r="36" fill="#3F6F4C"/><circle cx="-5.2" cy="493.2" r="25.2" fill="#3F6F4C"/><circle cx="45.2" cy="491.4" r="27" fill="#2F5A3C"/><circle cx="27.2" cy="464.4" r="21.6" fill="#3F6F4C"/><circle cx="9.2" cy="471.6" r="12.6" fill="#6F9E73" opacity=".7"/></g><g id="fx"><defs><radialGradient id="gsnfxv" cx=".5" cy=".4" r=".7"><stop offset=".5" stop-color="#5B3524" stop-opacity="0"/><stop offset="1" stop-color="#3A2418" stop-opacity=".3"/></radialGradient><linearGradient id="gsnfxr" x1="0" y1="0" x2="0" y2="1"><stop offset="0" stop-color="#FFF4DC" stop-opacity="0.3"/><stop offset="1" stop-color="#FFF4DC" stop-opacity="0"/></linearGradient><linearGradient id="gsnfxb" x1="0" y1="0" x2="0" y2="1"><stop offset=".7" stop-color="#1B2A3A" stop-opacity="0"/><stop offset="1" stop-color="#1B2A3A" stop-opacity=".25"/></linearGradient></defs><path d="M300 150L781.8 657.8L716.4 712.7Z" fill="url(#gsnfxr)"/><path d="M300 150L579.1 791.9L498.8 821.2Z" fill="url(#gsnfxr)"/><path d="M300 150L318.3 849.8L232.9 846.8Z" fill="url(#gsnfxr)"/><path d="M300 150L77.9 813.8L-1.4 781.8Z" fill="url(#gsnfxr)"/><path d="M300 150L-163.8 674.3L-224.3 613.8Z" fill="url(#gsnfxr)"/><rect x="0" y="382" width="390" height="16" fill="#3A2418" opacity=".06"/><rect x="0" y="0" width="390" height="560" fill="url(#gsnfxb)"/><rect x="0" y="0" width="390" height="560" fill="url(#gsnfxv)"/></g></svg>
