<svg xmlns="http://www.w3.org/2000/svg" stroke-linecap="round" stroke-linejoin="round" width="390" height="560" viewBox="0 0 390 560" role="img" aria-label="Puerta de Purchena (de noche)"><defs><linearGradient id="apcsky" x1="0" y1="0" x2="0" y2="1"><stop offset="0" stop-color="#E79E70" /><stop offset=".4" stop-color="#F3C79B" /><stop offset=".6" stop-color="#F8DDB8" /><stop offset="1" stop-color="#FBEBD3" /></linearGradient><radialGradient id="apcglow"><stop offset="0" stop-color="#FFF4DD" stop-opacity=".9" /><stop offset=".3" stop-color="#FFF4DD" stop-opacity=".4" /><stop offset="1" stop-color="#FFF4DD" stop-opacity="0" /></radialGradient><pattern id="apcdots" width="7" height="7" patternUnits="userSpaceOnUse"><circle cx="1.5" cy="1.5" r=".8" fill="#C9A57E" opacity=".5" /><circle cx="5" cy="4.5" r=".6" fill="#C9A57E" opacity=".4" /></pattern><linearGradient id="apcsea" x1="0" y1="0" x2="0" y2="1"><stop offset="0" stop-color="#8FB9B4" /><stop offset="1" stop-color="#6E9FA0" /></linearGradient><linearGradient id="apcdome" x1="0" y1="0" x2="1" y2="0"><stop offset="0" stop-color="#F9D776" /><stop offset=".45" stop-color="#EDB943" /><stop offset="1" stop-color="#C98E2A" /></linearGradient><filter id="apcnnightf" color-interpolation-filters="sRGB"><feColorMatrix type="matrix" values=".28 .07 .03 0 0  .05 .30 .07 0 .01  .07 .12 .42 0 .06  0 0 0 1 0" /></filter></defs><g id="sky"><defs><linearGradient id="apcnnight" x1="0" y1="0" x2="0" y2="1"><stop offset="0" stop-color="#141C36" /><stop offset=".5" stop-color="#1E2A4A" /><stop offset=".8" stop-color="#3B3F66" /><stop offset="1" stop-color="#5B4E6E" /></linearGradient><radialGradient id="apcnmoon"><stop offset="0" stop-color="#FFF4D6" stop-opacity=".55" /><stop offset="1" stop-color="#FFF4D6" stop-opacity="0" /></radialGradient></defs><rect x="0" y="0" width="390" height="560" fill="url(#apcnnight)" /><circle cx="257" cy="295" r="1.3" fill="#FFF6E0" opacity="0.7" /><circle cx="62" cy="53" r="1" fill="#FFF6E0" opacity="0.5" /><circle cx="92" cy="206" r="0.8" fill="#FFF6E0" opacity="0.5" /><circle cx="301" cy="22" r="1.3" fill="#FFF6E0" opacity="0.9" /><circle cx="64" cy="194" r="1" fill="#FFF6E0" opacity="0.5" /><circle cx="339" cy="42" r="1.3" fill="#FFF6E0" opacity="0.5" /><circle cx="117" cy="252" r="0.8" fill="#FFF6E0" opacity="0.9" /><circle cx="155" cy="155" r="1" fill="#FFF6E0" opacity="0.5" /><circle cx="246" cy="38" r="0.8" fill="#FFF6E0" opacity="0.5" /><circle cx="90" cy="59" r="0.8" fill="#FFF6E0" opacity="0.5" /><circle cx="148" cy="13" r="0.8" fill="#FFF6E0" opacity="0.9" /><circle cx="100" cy="294" r="1" fill="#FFF6E0" opacity="0.5" /><circle cx="171" cy="231" r="1.3" fill="#FFF6E0" opacity="0.5" /><circle cx="258" cy="207" r="0.8" fill="#FFF6E0" opacity="0.9" /><circle cx="358" cy="287" r="0.8" fill="#FFF6E0" opacity="0.9" /><circle cx="279" cy="47" r="1.3" fill="#FFF6E0" opacity="0.7" /><circle cx="366" cy="184" r="1.3" fill="#FFF6E0" opacity="0.5" /><circle cx="264" cy="7" r="1" fill="#FFF6E0" opacity="0.9" /><circle cx="17" cy="221" r="1.3" fill="#FFF6E0" opacity="0.5" /><circle cx="14" cy="235" r="0.8" fill="#FFF6E0" opacity="0.5" /><circle cx="262" cy="217" r="0.8" fill="#FFF6E0" opacity="0.9" /><circle cx="159" cy="282" r="0.8" fill="#FFF6E0" opacity="0.7" /><circle cx="326" cy="121" r="0.8" fill="#FFF6E0" opacity="0.7" /><circle cx="23" cy="88" r="1.3" fill="#FFF6E0" opacity="0.9" /><circle cx="43" cy="168" r="0.8" fill="#FFF6E0" opacity="0.7" /><circle cx="31" cy="280" r="1" fill="#FFF6E0" opacity="0.9" /><circle cx="142" cy="95" r="1" fill="#FFF6E0" opacity="0.7" /><circle cx="300" cy="275" r="1" fill="#FFF6E0" opacity="0.7" /><circle cx="75" cy="13" r="1" fill="#FFF6E0" opacity="0.5" /><circle cx="347" cy="198" r="1.3" fill="#FFF6E0" opacity="0.5" /><circle cx="86" cy="285" r="1" fill="#FFF6E0" opacity="0.7" /><circle cx="18" cy="174" r="1.3" fill="#FFF6E0" opacity="0.9" /><circle cx="187" cy="25" r="0.8" fill="#FFF6E0" opacity="0.9" /><circle cx="334" cy="46" r="1" fill="#FFF6E0" opacity="0.5" /><circle cx="279" cy="25" r="1" fill="#FFF6E0" opacity="0.5" /><circle cx="80" cy="230" r="1.3" fill="#FFF6E0" opacity="0.5" /><circle cx="252" cy="255" r="1.3" fill="#FFF6E0" opacity="0.7" /><circle cx="99" cy="108" r="1.3" fill="#FFF6E0" opacity="0.5" /><circle cx="225" cy="276" r="0.8" fill="#FFF6E0" opacity="0.5" /><circle cx="243" cy="30" r="1" fill="#FFF6E0" opacity="0.7" /><circle cx="97" cy="161" r="1.3" fill="#FFF6E0" opacity="0.7" /><circle cx="247" cy="102" r="1" fill="#FFF6E0" opacity="0.7" /><circle cx="359" cy="226" r="0.8" fill="#FFF6E0" opacity="0.7" /><circle cx="212" cy="36" r="1" fill="#FFF6E0" opacity="0.5" /><circle cx="317" cy="6" r="1.3" fill="#FFF6E0" opacity="0.7" /><circle cx="181" cy="67" r="0.8" fill="#FFF6E0" opacity="0.5" /><circle cx="207" cy="73" r="70" fill="url(#apcnmoon)" /><circle cx="207" cy="73" r="24" fill="#FFF3D2" /><circle cx="200" cy="69" r="5" fill="#EDDDB6" opacity=".7" /><circle cx="215" cy="80" r="3.5" fill="#EDDDB6" opacity=".7" /></g><g id="far"><g filter="url(#apcnnightf)"><path d="M-10 260Q60 210 140 230T300 220T400 240V300H-10Z" fill="#DCC39E" /><circle cx="10" cy="250" r="3" fill="#A8A06A" opacity=".7" /><circle cx="47" cy="244" r="3" fill="#A8A06A" opacity=".7" /><circle cx="84" cy="238" r="3" fill="#A8A06A" opacity=".7" /><circle cx="121" cy="247" r="3" fill="#A8A06A" opacity=".7" /><circle cx="158" cy="241" r="3" fill="#A8A06A" opacity=".7" /><circle cx="195" cy="250" r="3" fill="#A8A06A" opacity=".7" /><circle cx="232" cy="244" r="3" fill="#A8A06A" opacity=".7" /><circle cx="269" cy="238" r="3" fill="#A8A06A" opacity=".7" /><circle cx="306" cy="247" r="3" fill="#A8A06A" opacity=".7" /><circle cx="343" cy="241" r="3" fill="#A8A06A" opacity=".7" /><circle cx="380" cy="250" r="3" fill="#A8A06A" opacity=".7" /><path d="M-60 270Q8.0 182.0 96.0 166.0Q168.0 174.0 224.0 222.0L296.0 270Z" fill="#DCC39E" /><path d="M-24 238L24 193.2L24 207.6L-24 252.4Z" fill="#E2C89A" stroke="#E2C89A" stroke-width="0" /><path d="M24 193.2L96 175.6L96 190L24 207.6Z" fill="#E2C89A" stroke="#E2C89A" stroke-width="0" /><path d="M96 175.6L160 183.6L160 198L96 190Z" fill="#E2C89A" stroke="#E2C89A" stroke-width="0" /><path d="M160 183.6L216 222L216 236.4L160 198Z" fill="#E2C89A" stroke="#E2C89A" stroke-width="0" /><path d="M-32 252.4V217.2H-16V252.4Z" fill="#EAD4AC" stroke="#EAD4AC" stroke-width="0" /><path d="M-32 217.2V213.2H-28.8V217.2" fill="#EAD4AC" stroke="#EAD4AC" stroke-width="0.0" /><path d="M-26.4 217.2V213.2H-23.2V217.2" fill="#EAD4AC" stroke="#EAD4AC" stroke-width="0.0" /><path d="M-20.8 217.2V213.2H-17.6V217.2" fill="#EAD4AC" stroke="#EAD4AC" stroke-width="0.0" /><path d="M16 207.6V172.4H32V207.6Z" fill="#EAD4AC" stroke="#EAD4AC" stroke-width="0" /><path d="M16 172.4V168.4H19.2V172.4" fill="#EAD4AC" stroke="#EAD4AC" stroke-width="0.0" /><path d="M21.6 172.4V168.4H24.8V172.4" fill="#EAD4AC" stroke="#EAD4AC" stroke-width="0.0" /><path d="M27.2 172.4V168.4H30.4V172.4" fill="#EAD4AC" stroke="#EAD4AC" stroke-width="0.0" /><path d="M88 190V143.6H104V190Z" fill="#EAD4AC" stroke="#EAD4AC" stroke-width="0" /><path d="M88 143.6V139.6H91.2V143.6" fill="#EAD4AC" stroke="#EAD4AC" stroke-width="0.0" /><path d="M93.6 143.6V139.6H96.8V143.6" fill="#EAD4AC" stroke="#EAD4AC" stroke-width="0.0" /><path d="M99.2 143.6V139.6H102.4V143.6" fill="#EAD4AC" stroke="#EAD4AC" stroke-width="0.0" /><path d="M152 198V162.8H168V198Z" fill="#EAD4AC" stroke="#EAD4AC" stroke-width="0" /><path d="M152 162.8V158.8H155.2V162.8" fill="#EAD4AC" stroke="#EAD4AC" stroke-width="0.0" /><path d="M157.6 162.8V158.8H160.8V162.8" fill="#EAD4AC" stroke="#EAD4AC" stroke-width="0.0" /><path d="M163.2 162.8V158.8H166.4V162.8" fill="#EAD4AC" stroke="#EAD4AC" stroke-width="0.0" /><path d="M208 236.4V201.2H224V236.4Z" fill="#EAD4AC" stroke="#EAD4AC" stroke-width="0" /><path d="M208 201.2V197.2H211.2V201.2" fill="#EAD4AC" stroke="#EAD4AC" stroke-width="0.0" /><path d="M213.6 201.2V197.2H216.8V201.2" fill="#EAD4AC" stroke="#EAD4AC" stroke-width="0.0" /><path d="M219.2 201.2V197.2H222.4V201.2" fill="#EAD4AC" stroke="#EAD4AC" stroke-width="0.0" /><rect x="-10" y="240" width="39" height="90" fill="#F0DDC0" /><rect x="-5" y="248" width="4" height="6" fill="#D29E7A" opacity=".7" /><rect x="29" y="231" width="36" height="99" fill="#EAD2B0" /><rect x="34" y="239" width="4" height="6" fill="#D29E7A" opacity=".7" /><rect x="44" y="239" width="4" height="6" fill="#D29E7A" opacity=".7" /><rect x="65" y="247" width="32" height="83" fill="#EAD2B0" /><rect x="70" y="255" width="4" height="6" fill="#D29E7A" opacity=".7" /><rect x="97" y="248" width="29" height="82" fill="#EAD2B0" /><rect x="102" y="256" width="4" height="6" fill="#D29E7A" opacity=".7" /><rect x="126" y="251" width="27" height="79" fill="#F0DDC0" /><rect x="131" y="259" width="4" height="6" fill="#D29E7A" opacity=".7" /><rect x="153" y="227" width="34" height="103" fill="#EAD2B0" /><rect x="158" y="235" width="4" height="6" fill="#D29E7A" opacity=".7" /><rect x="168" y="235" width="4" height="6" fill="#D29E7A" opacity=".7" /><rect x="178" y="235" width="4" height="6" fill="#D29E7A" opacity=".7" /><rect x="187" y="232" width="26" height="98" fill="#EAD2B0" /><rect x="192" y="240" width="4" height="6" fill="#D29E7A" opacity=".7" /><rect x="202" y="240" width="4" height="6" fill="#D29E7A" opacity=".7" /><rect x="212" y="240" width="4" height="6" fill="#D29E7A" opacity=".7" /><rect x="213" y="239" width="40" height="91" fill="#EAD2B0" /><rect x="218" y="247" width="4" height="6" fill="#D29E7A" opacity=".7" /><rect x="228" y="247" width="4" height="6" fill="#D29E7A" opacity=".7" /><rect x="253" y="245" width="22" height="85" fill="#F0DDC0" /><rect x="258" y="253" width="4" height="6" fill="#D29E7A" opacity=".7" /><rect x="268" y="253" width="4" height="6" fill="#D29E7A" opacity=".7" /><rect x="275" y="236" width="23" height="94" fill="#EAD2B0" /><rect x="280" y="244" width="4" height="6" fill="#D29E7A" opacity=".7" /><rect x="290" y="244" width="4" height="6" fill="#D29E7A" opacity=".7" /><rect x="298" y="239" width="43" height="91" fill="#F0DDC0" /><rect x="303" y="247" width="4" height="6" fill="#D29E7A" opacity=".7" /><rect x="313" y="247" width="4" height="6" fill="#D29E7A" opacity=".7" /><rect x="323" y="247" width="4" height="6" fill="#D29E7A" opacity=".7" /><rect x="341" y="238" width="41" height="92" fill="#EAD2B0" /><rect x="346" y="246" width="4" height="6" fill="#D29E7A" opacity=".7" /><rect x="356" y="246" width="4" height="6" fill="#D29E7A" opacity=".7" /><rect x="366" y="246" width="4" height="6" fill="#D29E7A" opacity=".7" /><rect x="382" y="247" width="42" height="83" fill="#F0DDC0" /><rect x="387" y="255" width="4" height="6" fill="#D29E7A" opacity=".7" /><rect x="397" y="255" width="4" height="6" fill="#D29E7A" opacity=".7" /></g></g><g id="mid"><g filter="url(#apcnnightf)"><path d="M-30 180L100 180L100 390L-30 390Z" fill="#F2D48F" stroke="#1B2A3A" stroke-width="1.8" /><path d="M76.6 182L99 182L99 390L76.6 390Z" fill="#DDB86A" opacity=".6" /><path d="M-28 182L-17 182L-17 390L-28 390Z" fill="#F9E4B0" opacity=".7" /><path d="M-33 180L103 180L103 175L-33 175Z" fill="#F9E4B0" stroke="#1B2A3A" stroke-width="1.44" /><path d="M-30 175L-30 167L100 167L100 175" fill="#F2D48F" stroke="#1B2A3A" stroke-width="1.44" /><path d="M-9.5 192.4L14.5 192.4L14.5 239L-9.5 239Z" fill="#4E7A5E" stroke="#1B2A3A" stroke-width="1.44" /><path d="M-6.5 195.4L11.5 195.4L11.5 236L-6.5 236Z" fill="#9BBFC0" stroke="#1B2A3A" stroke-width="0.90" /><path d="M2.5 195.4L2.5 236M-6.5 211.6L11.5 211.6" stroke="#1B2A3A" stroke-width="0.81" /><path d="M55.5 192.4L79.5 192.4L79.5 239L55.5 239Z" fill="#4E7A5E" stroke="#1B2A3A" stroke-width="1.44" /><path d="M58.5 195.4L76.5 195.4L76.5 236L58.5 236Z" fill="#9BBFC0" stroke="#1B2A3A" stroke-width="0.90" /><path d="M67.5 195.4L67.5 236M58.5 211.6L76.5 211.6" stroke="#1B2A3A" stroke-width="0.81" /><path d="M-5.5 306L-5.5 265.4L10.5 265.4L10.5 306Z" fill="#3E3024" stroke="#1B2A3A" stroke-width="1.35" /><path d="M-12.2 265.4L-6.5 265.4L-6.5 306L-12.2 306Z" fill="#4E7A5E" stroke="#1B2A3A" stroke-width="0.94" /><path d="M11.5 265.4L17.2 265.4L17.2 306L11.5 306Z" fill="#3B5F48" stroke="#1B2A3A" stroke-width="0.94" /><path d="M-9.5 306L14.5 306" fill="none" stroke="#1B2A3A" stroke-width="2.16" /><path d="M-9.5 290.6L14.5 290.6" fill="none" stroke="#1B2A3A" stroke-width="1.08" /><path d="M-9.5 290.6L-9.5 306" fill="none" stroke="#1B2A3A" stroke-width="0.81" /><path d="M-4.7 290.6L-4.7 306" fill="none" stroke="#1B2A3A" stroke-width="0.81" /><path d="M0.1 290.6L0.1 306" fill="none" stroke="#1B2A3A" stroke-width="0.81" /><path d="M4.9 290.6L4.9 306" fill="none" stroke="#1B2A3A" stroke-width="0.81" /><path d="M9.7 290.6L9.7 306" fill="none" stroke="#1B2A3A" stroke-width="0.81" /><path d="M14.5 290.6L14.5 306" fill="none" stroke="#1B2A3A" stroke-width="0.81" /><path d="M59.5 306L59.5 265.4L75.5 265.4L75.5 306Z" fill="#3E3024" stroke="#1B2A3A" stroke-width="1.35" /><path d="M52.8 265.4L58.5 265.4L58.5 306L52.8 306Z" fill="#4E7A5E" stroke="#1B2A3A" stroke-width="0.94" /><path d="M76.5 265.4L82.2 265.4L82.2 306L76.5 306Z" fill="#3B5F48" stroke="#1B2A3A" stroke-width="0.94" /><path d="M55.5 306L79.5 306" fill="none" stroke="#1B2A3A" stroke-width="2.16" /><path d="M55.5 290.6L79.5 290.6" fill="none" stroke="#1B2A3A" stroke-width="1.08" /><path d="M55.5 290.6L55.5 306" fill="none" stroke="#1B2A3A" stroke-width="0.81" /><path d="M60.3 290.6L60.3 306" fill="none" stroke="#1B2A3A" stroke-width="0.81" /><path d="M65.1 290.6L65.1 306" fill="none" stroke="#1B2A3A" stroke-width="0.81" /><path d="M69.9 290.6L69.9 306" fill="none" stroke="#1B2A3A" stroke-width="0.81" /><path d="M74.7 290.6L74.7 306" fill="none" stroke="#1B2A3A" stroke-width="0.81" /><path d="M79.5 290.6L79.5 306" fill="none" stroke="#1B2A3A" stroke-width="0.81" /><path d="M-5.5 376L-5.5 335.4L10.5 335.4L10.5 376Z" fill="#3E3024" stroke="#1B2A3A" stroke-width="1.35" /><path d="M-12.2 335.4L-6.5 335.4L-6.5 376L-12.2 376Z" fill="#4E7A5E" stroke="#1B2A3A" stroke-width="0.94" /><path d="M11.5 335.4L17.2 335.4L17.2 376L11.5 376Z" fill="#3B5F48" stroke="#1B2A3A" stroke-width="0.94" /><path d="M57.5 390L57.5 335.4Q67.5 325.8 77.5 335.4L77.5 390Z" fill="#5B3A26" stroke="#1B2A3A" stroke-width="1.44" /><path d="M290 190L420 190L420 390L290 390Z" fill="#EFB7A0" stroke="#1B2A3A" stroke-width="1.8" /><path d="M396.6 192L419 192L419 390L396.6 390Z" fill="#D99A82" opacity=".6" /><path d="M292 192L303 192L303 390L292 390Z" fill="#F7CDBB" opacity=".7" /><path d="M287 190L423 190L423 185L287 185Z" fill="#F7CDBB" stroke="#1B2A3A" stroke-width="1.44" /><path d="M290 185L290 177L420 177L420 185" fill="#EFB7A0" stroke="#1B2A3A" stroke-width="1.44" /><path d="M314.5 243.3L314.5 204.7L330.5 204.7L330.5 243.3Z" fill="#3E3024" stroke="#1B2A3A" stroke-width="1.35" /><path d="M307.8 204.7L313.5 204.7L313.5 243.3L307.8 243.3Z" fill="#4E7A5E" stroke="#1B2A3A" stroke-width="0.94" /><path d="M331.5 204.7L337.2 204.7L337.2 243.3L331.5 243.3Z" fill="#3B5F48" stroke="#1B2A3A" stroke-width="0.94" /><path d="M310.5 243.3L334.5 243.3" fill="none" stroke="#1B2A3A" stroke-width="2.16" /><path d="M310.5 228.6L334.5 228.6" fill="none" stroke="#1B2A3A" stroke-width="1.08" /><path d="M310.5 228.6L310.5 243.3" fill="none" stroke="#1B2A3A" stroke-width="0.81" /><path d="M315.3 228.6L315.3 243.3" fill="none" stroke="#1B2A3A" stroke-width="0.81" /><path d="M320.1 228.6L320.1 243.3" fill="none" stroke="#1B2A3A" stroke-width="0.81" /><path d="M324.9 228.6L324.9 243.3" fill="none" stroke="#1B2A3A" stroke-width="0.81" /><path d="M329.7 228.6L329.7 243.3" fill="none" stroke="#1B2A3A" stroke-width="0.81" /><path d="M334.5 228.6L334.5 243.3" fill="none" stroke="#1B2A3A" stroke-width="0.81" /><path d="M379.5 243.3L379.5 204.7L395.5 204.7L395.5 243.3Z" fill="#3E3024" stroke="#1B2A3A" stroke-width="1.35" /><path d="M372.8 204.7L378.5 204.7L378.5 243.3L372.8 243.3Z" fill="#4E7A5E" stroke="#1B2A3A" stroke-width="0.94" /><path d="M396.5 204.7L402.2 204.7L402.2 243.3L396.5 243.3Z" fill="#3B5F48" stroke="#1B2A3A" stroke-width="0.94" /><path d="M375.5 243.3L399.5 243.3" fill="none" stroke="#1B2A3A" stroke-width="2.16" /><path d="M375.5 228.6L399.5 228.6" fill="none" stroke="#1B2A3A" stroke-width="1.08" /><path d="M375.5 228.6L375.5 243.3" fill="none" stroke="#1B2A3A" stroke-width="0.81" /><path d="M380.3 228.6L380.3 243.3" fill="none" stroke="#1B2A3A" stroke-width="0.81" /><path d="M385.1 228.6L385.1 243.3" fill="none" stroke="#1B2A3A" stroke-width="0.81" /><path d="M389.9 228.6L389.9 243.3" fill="none" stroke="#1B2A3A" stroke-width="0.81" /><path d="M394.7 228.6L394.7 243.3" fill="none" stroke="#1B2A3A" stroke-width="0.81" /><path d="M399.5 228.6L399.5 243.3" fill="none" stroke="#1B2A3A" stroke-width="0.81" /><path d="M314.5 310L314.5 271.3L330.5 271.3L330.5 310Z" fill="#3E3024" stroke="#1B2A3A" stroke-width="1.35" /><path d="M307.8 271.3L313.5 271.3L313.5 310L307.8 310Z" fill="#4E7A5E" stroke="#1B2A3A" stroke-width="0.94" /><path d="M331.5 271.3L337.2 271.3L337.2 310L331.5 310Z" fill="#3B5F48" stroke="#1B2A3A" stroke-width="0.94" /><path d="M310.5 310L334.5 310" fill="none" stroke="#1B2A3A" stroke-width="2.16" /><path d="M310.5 295.3L334.5 295.3" fill="none" stroke="#1B2A3A" stroke-width="1.08" /><path d="M310.5 295.3L310.5 310" fill="none" stroke="#1B2A3A" stroke-width="0.81" /><path d="M315.3 295.3L315.3 310" fill="none" stroke="#1B2A3A" stroke-width="0.81" /><path d="M320.1 295.3L320.1 310" fill="none" stroke="#1B2A3A" stroke-width="0.81" /><path d="M324.9 295.3L324.9 310" fill="none" stroke="#1B2A3A" stroke-width="0.81" /><path d="M329.7 295.3L329.7 310" fill="none" stroke="#1B2A3A" stroke-width="0.81" /><path d="M334.5 295.3L334.5 310" fill="none" stroke="#1B2A3A" stroke-width="0.81" /><path d="M379.5 310L379.5 271.3L395.5 271.3L395.5 310Z" fill="#3E3024" stroke="#1B2A3A" stroke-width="1.35" /><path d="M372.8 271.3L378.5 271.3L378.5 310L372.8 310Z" fill="#4E7A5E" stroke="#1B2A3A" stroke-width="0.94" /><path d="M396.5 271.3L402.2 271.3L402.2 310L396.5 310Z" fill="#3B5F48" stroke="#1B2A3A" stroke-width="0.94" /><path d="M375.5 310L399.5 310" fill="none" stroke="#1B2A3A" stroke-width="2.16" /><path d="M375.5 295.3L399.5 295.3" fill="none" stroke="#1B2A3A" stroke-width="1.08" /><path d="M375.5 295.3L375.5 310" fill="none" stroke="#1B2A3A" stroke-width="0.81" /><path d="M380.3 295.3L380.3 310" fill="none" stroke="#1B2A3A" stroke-width="0.81" /><path d="M385.1 295.3L385.1 310" fill="none" stroke="#1B2A3A" stroke-width="0.81" /><path d="M389.9 295.3L389.9 310" fill="none" stroke="#1B2A3A" stroke-width="0.81" /><path d="M394.7 295.3L394.7 310" fill="none" stroke="#1B2A3A" stroke-width="0.81" /><path d="M399.5 295.3L399.5 310" fill="none" stroke="#1B2A3A" stroke-width="0.81" /><path d="M314.5 376.7L314.5 338L330.5 338L330.5 376.7Z" fill="#3E3024" stroke="#1B2A3A" stroke-width="1.35" /><path d="M307.8 338L313.5 338L313.5 376.7L307.8 376.7Z" fill="#4E7A5E" stroke="#1B2A3A" stroke-width="0.94" /><path d="M331.5 338L337.2 338L337.2 376.7L331.5 376.7Z" fill="#3B5F48" stroke="#1B2A3A" stroke-width="0.94" /><path d="M377.5 390L377.5 338Q387.5 328.4 397.5 338L397.5 390Z" fill="#5B3A26" stroke="#1B2A3A" stroke-width="1.44" /><path d="M100 390V140H290V390Z" fill="#F2D9B8" stroke="#1B2A3A" stroke-width="1.8" /><path d="M100 140Q195 100 290 140Z" fill="#FBEBD4" stroke="#1B2A3A" stroke-width="1.6" /><path d="M122 204L122 170L140 170L140 204Z" fill="#3E3024" stroke="#1B2A3A" stroke-width="1.1" /><path d="M117.5 204L144.5 204" fill="none" stroke="#1B2A3A" stroke-width="1.76" /><path d="M117.5 191.1L144.5 191.1" fill="none" stroke="#1B2A3A" stroke-width="0.88" /><path d="M117.5 191.1L117.5 204" fill="none" stroke="#1B2A3A" stroke-width="0.66" /><path d="M122.9 191.1L122.9 204" fill="none" stroke="#1B2A3A" stroke-width="0.66" /><path d="M128.3 191.1L128.3 204" fill="none" stroke="#1B2A3A" stroke-width="0.66" /><path d="M133.7 191.1L133.7 204" fill="none" stroke="#1B2A3A" stroke-width="0.66" /><path d="M139.1 191.1L139.1 204" fill="none" stroke="#1B2A3A" stroke-width="0.66" /><path d="M144.5 191.1L144.5 204" fill="none" stroke="#1B2A3A" stroke-width="0.66" /><path d="M122 274L122 240L140 240L140 274Z" fill="#3E3024" stroke="#1B2A3A" stroke-width="1.1" /><path d="M117.5 274L144.5 274" fill="none" stroke="#1B2A3A" stroke-width="1.76" /><path d="M117.5 261.1L144.5 261.1" fill="none" stroke="#1B2A3A" stroke-width="0.88" /><path d="M117.5 261.1L117.5 274" fill="none" stroke="#1B2A3A" stroke-width="0.66" /><path d="M122.9 261.1L122.9 274" fill="none" stroke="#1B2A3A" stroke-width="0.66" /><path d="M128.3 261.1L128.3 274" fill="none" stroke="#1B2A3A" stroke-width="0.66" /><path d="M133.7 261.1L133.7 274" fill="none" stroke="#1B2A3A" stroke-width="0.66" /><path d="M139.1 261.1L139.1 274" fill="none" stroke="#1B2A3A" stroke-width="0.66" /><path d="M144.5 261.1L144.5 274" fill="none" stroke="#1B2A3A" stroke-width="0.66" /><path d="M122 344L122 310L140 310L140 344Z" fill="#F4C66A" stroke="#1B2A3A" stroke-width="1.1" /><path d="M117.5 344L144.5 344" fill="none" stroke="#1B2A3A" stroke-width="1.76" /><path d="M117.5 331.1L144.5 331.1" fill="none" stroke="#1B2A3A" stroke-width="0.88" /><path d="M117.5 331.1L117.5 344" fill="none" stroke="#1B2A3A" stroke-width="0.66" /><path d="M122.9 331.1L122.9 344" fill="none" stroke="#1B2A3A" stroke-width="0.66" /><path d="M128.3 331.1L128.3 344" fill="none" stroke="#1B2A3A" stroke-width="0.66" /><path d="M133.7 331.1L133.7 344" fill="none" stroke="#1B2A3A" stroke-width="0.66" /><path d="M139.1 331.1L139.1 344" fill="none" stroke="#1B2A3A" stroke-width="0.66" /><path d="M144.5 331.1L144.5 344" fill="none" stroke="#1B2A3A" stroke-width="0.66" /><path d="M186 204L186 170L204 170L204 204Z" fill="#3E3024" stroke="#1B2A3A" stroke-width="1.1" /><path d="M181.5 204L208.5 204" fill="none" stroke="#1B2A3A" stroke-width="1.76" /><path d="M181.5 191.1L208.5 191.1" fill="none" stroke="#1B2A3A" stroke-width="0.88" /><path d="M181.5 191.1L181.5 204" fill="none" stroke="#1B2A3A" stroke-width="0.66" /><path d="M186.9 191.1L186.9 204" fill="none" stroke="#1B2A3A" stroke-width="0.66" /><path d="M192.3 191.1L192.3 204" fill="none" stroke="#1B2A3A" stroke-width="0.66" /><path d="M197.7 191.1L197.7 204" fill="none" stroke="#1B2A3A" stroke-width="0.66" /><path d="M203.1 191.1L203.1 204" fill="none" stroke="#1B2A3A" stroke-width="0.66" /><path d="M208.5 191.1L208.5 204" fill="none" stroke="#1B2A3A" stroke-width="0.66" /><path d="M186 274L186 240L204 240L204 274Z" fill="#F4C66A" stroke="#1B2A3A" stroke-width="1.1" /><path d="M181.5 274L208.5 274" fill="none" stroke="#1B2A3A" stroke-width="1.76" /><path d="M181.5 261.1L208.5 261.1" fill="none" stroke="#1B2A3A" stroke-width="0.88" /><path d="M181.5 261.1L181.5 274" fill="none" stroke="#1B2A3A" stroke-width="0.66" /><path d="M186.9 261.1L186.9 274" fill="none" stroke="#1B2A3A" stroke-width="0.66" /><path d="M192.3 261.1L192.3 274" fill="none" stroke="#1B2A3A" stroke-width="0.66" /><path d="M197.7 261.1L197.7 274" fill="none" stroke="#1B2A3A" stroke-width="0.66" /><path d="M203.1 261.1L203.1 274" fill="none" stroke="#1B2A3A" stroke-width="0.66" /><path d="M208.5 261.1L208.5 274" fill="none" stroke="#1B2A3A" stroke-width="0.66" /><path d="M186 344L186 310L204 310L204 344Z" fill="#3E3024" stroke="#1B2A3A" stroke-width="1.1" /><path d="M181.5 344L208.5 344" fill="none" stroke="#1B2A3A" stroke-width="1.76" /><path d="M181.5 331.1L208.5 331.1" fill="none" stroke="#1B2A3A" stroke-width="0.88" /><path d="M181.5 331.1L181.5 344" fill="none" stroke="#1B2A3A" stroke-width="0.66" /><path d="M186.9 331.1L186.9 344" fill="none" stroke="#1B2A3A" stroke-width="0.66" /><path d="M192.3 331.1L192.3 344" fill="none" stroke="#1B2A3A" stroke-width="0.66" /><path d="M197.7 331.1L197.7 344" fill="none" stroke="#1B2A3A" stroke-width="0.66" /><path d="M203.1 331.1L203.1 344" fill="none" stroke="#1B2A3A" stroke-width="0.66" /><path d="M208.5 331.1L208.5 344" fill="none" stroke="#1B2A3A" stroke-width="0.66" /><path d="M250 204L250 170L268 170L268 204Z" fill="#F4C66A" stroke="#1B2A3A" stroke-width="1.1" /><path d="M245.5 204L272.5 204" fill="none" stroke="#1B2A3A" stroke-width="1.76" /><path d="M245.5 191.1L272.5 191.1" fill="none" stroke="#1B2A3A" stroke-width="0.88" /><path d="M245.5 191.1L245.5 204" fill="none" stroke="#1B2A3A" stroke-width="0.66" /><path d="M250.9 191.1L250.9 204" fill="none" stroke="#1B2A3A" stroke-width="0.66" /><path d="M256.3 191.1L256.3 204" fill="none" stroke="#1B2A3A" stroke-width="0.66" /><path d="M261.7 191.1L261.7 204" fill="none" stroke="#1B2A3A" stroke-width="0.66" /><path d="M267.1 191.1L267.1 204" fill="none" stroke="#1B2A3A" stroke-width="0.66" /><path d="M272.5 191.1L272.5 204" fill="none" stroke="#1B2A3A" stroke-width="0.66" /><path d="M250 274L250 240L268 240L268 274Z" fill="#3E3024" stroke="#1B2A3A" stroke-width="1.1" /><path d="M245.5 274L272.5 274" fill="none" stroke="#1B2A3A" stroke-width="1.76" /><path d="M245.5 261.1L272.5 261.1" fill="none" stroke="#1B2A3A" stroke-width="0.88" /><path d="M245.5 261.1L245.5 274" fill="none" stroke="#1B2A3A" stroke-width="0.66" /><path d="M250.9 261.1L250.9 274" fill="none" stroke="#1B2A3A" stroke-width="0.66" /><path d="M256.3 261.1L256.3 274" fill="none" stroke="#1B2A3A" stroke-width="0.66" /><path d="M261.7 261.1L261.7 274" fill="none" stroke="#1B2A3A" stroke-width="0.66" /><path d="M267.1 261.1L267.1 274" fill="none" stroke="#1B2A3A" stroke-width="0.66" /><path d="M272.5 261.1L272.5 274" fill="none" stroke="#1B2A3A" stroke-width="0.66" /><path d="M250 344L250 310L268 310L268 344Z" fill="#3E3024" stroke="#1B2A3A" stroke-width="1.1" /><path d="M245.5 344L272.5 344" fill="none" stroke="#1B2A3A" stroke-width="1.76" /><path d="M245.5 331.1L272.5 331.1" fill="none" stroke="#1B2A3A" stroke-width="0.88" /><path d="M245.5 331.1L245.5 344" fill="none" stroke="#1B2A3A" stroke-width="0.66" /><path d="M250.9 331.1L250.9 344" fill="none" stroke="#1B2A3A" stroke-width="0.66" /><path d="M256.3 331.1L256.3 344" fill="none" stroke="#1B2A3A" stroke-width="0.66" /><path d="M261.7 331.1L261.7 344" fill="none" stroke="#1B2A3A" stroke-width="0.66" /><path d="M267.1 331.1L267.1 344" fill="none" stroke="#1B2A3A" stroke-width="0.66" /><path d="M272.5 331.1L272.5 344" fill="none" stroke="#1B2A3A" stroke-width="0.66" /><path d="M150 124Q138 110 136 122Q138 132 150 126Q162 132 164 122Q162 110 150 124Z" fill="#2F9EB0" stroke="#1B2A3A" stroke-width="1.2" /><path d="M195 124Q183 110 181 122Q183 132 195 126Q207 132 209 122Q207 110 195 124Z" fill="#2F9EB0" stroke="#1B2A3A" stroke-width="1.2" /><path d="M240 124Q228 110 226 122Q228 132 240 126Q252 132 254 122Q252 110 240 124Z" fill="#2F9EB0" stroke="#1B2A3A" stroke-width="1.2" /><rect x="-10" y="386" width="410" height="42" fill="#DDBE98" /></g><path d="M-5.5 376L-5.5 335.4L10.5 335.4L10.5 376Z" fill="#F2C66E" stroke="#1B2A3A" stroke-width="1.35" opacity=".9" /><path d="M314.5 310L314.5 271.3L330.5 271.3L330.5 310Z" fill="#F2C66E" stroke="#1B2A3A" stroke-width="1.35" opacity=".9" /><path d="M122 204L122 170L140 170L140 204Z" fill="#F2C66E" stroke="#1B2A3A" stroke-width="1.1" opacity=".9" /><path d="M122 344L122 310L140 310L140 344Z" fill="#F2C66E" stroke="#1B2A3A" stroke-width="1.1" opacity=".9" /><path d="M186 274L186 240L204 240L204 274Z" fill="#F2C66E" stroke="#1B2A3A" stroke-width="1.1" opacity=".9" /><path d="M186 344L186 310L204 310L204 344Z" fill="#F2C66E" stroke="#1B2A3A" stroke-width="1.1" opacity=".9" /><path d="M250 204L250 170L268 170L268 204Z" fill="#F2C66E" stroke="#1B2A3A" stroke-width="1.1" opacity=".9" /></g><g id="near"><g filter="url(#apcnnightf)"><rect x="0" y="420" width="390" height="140" fill="#DDD3C3" /><rect x="0" y="420" width="390" height="140" fill="url(#apcdots)" /><rect x="0" y="436" width="390" height="1.2" fill="#C9BEAC" /><rect x="0" y="456" width="390" height="1.2" fill="#C9BEAC" /><rect x="0" y="484" width="390" height="1.2" fill="#C9BEAC" /><rect x="0" y="522" width="390" height="1.2" fill="#C9BEAC" /><path d="M195 420L-273 560" fill="none" stroke="#C9BEAC" stroke-width="1" /><path d="M195 420L-221 560" fill="none" stroke="#C9BEAC" stroke-width="1" /><path d="M195 420L-169 560" fill="none" stroke="#C9BEAC" stroke-width="1" /><path d="M195 420L-117 560" fill="none" stroke="#C9BEAC" stroke-width="1" /><path d="M195 420L-65 560" fill="none" stroke="#C9BEAC" stroke-width="1" /><path d="M195 420L-13 560" fill="none" stroke="#C9BEAC" stroke-width="1" /><path d="M195 420L39 560" fill="none" stroke="#C9BEAC" stroke-width="1" /><path d="M195 420L91 560" fill="none" stroke="#C9BEAC" stroke-width="1" /><path d="M195 420L143 560" fill="none" stroke="#C9BEAC" stroke-width="1" /><path d="M195 420L195 560" fill="none" stroke="#C9BEAC" stroke-width="1" /><path d="M195 420L247 560" fill="none" stroke="#C9BEAC" stroke-width="1" /><path d="M195 420L299 560" fill="none" stroke="#C9BEAC" stroke-width="1" /><path d="M195 420L351 560" fill="none" stroke="#C9BEAC" stroke-width="1" /><path d="M195 420L403 560" fill="none" stroke="#C9BEAC" stroke-width="1" /><path d="M195 420L455 560" fill="none" stroke="#C9BEAC" stroke-width="1" /><path d="M195 420L507 560" fill="none" stroke="#C9BEAC" stroke-width="1" /><path d="M195 420L559 560" fill="none" stroke="#C9BEAC" stroke-width="1" /><path d="M195 420L611 560" fill="none" stroke="#C9BEAC" stroke-width="1" /><path d="M195 420L663 560" fill="none" stroke="#C9BEAC" stroke-width="1" /><ellipse cx="80" cy="453" rx="6" ry="1.6" fill="#5B3524" opacity=".2" /><path d="M78 452L78 445M82 452L82 445" stroke="#3A3A48" stroke-width="2.4" /><path d="M76.5 446L77 437L83 437L83.5 446Z" fill="#2F6F73" /><circle cx="80" cy="434" r="3" fill="#D9A07A" /><ellipse cx="140" cy="457" rx="5.7" ry="1.5" fill="#5B3524" opacity=".2" /><path d="M135.2 456L137.6 442.7L142.4 442.7L144.8 456Z" fill="#A8431F" /><circle cx="140" cy="438.9" r="2.8" fill="#D9A07A" /><ellipse cx="260" cy="451" rx="5.4" ry="1.4" fill="#5B3524" opacity=".2" /><path d="M255.5 450L257.8 437.4L262.2 437.4L264.5 450Z" fill="#6E2C5E" /><circle cx="260" cy="433.8" r="2.7" fill="#D9A07A" /><ellipse cx="320" cy="455" rx="6" ry="1.6" fill="#5B3524" opacity=".2" /><path d="M318 454L318 447M322 454L322 447" stroke="#3A3A48" stroke-width="2.4" /><path d="M316.5 448L317 439L323 439L323.5 448Z" fill="#34495E" /><circle cx="320" cy="436" r="3" fill="#D9A07A" /><ellipse cx="195" cy="542" rx="12" ry="3" fill="#5B3524" opacity=".2" /><path d="M190 540L200 540L198 528L192 528Z" fill="#2E3A48" /><path d="M195 528L195 384" stroke="#2E3A48" stroke-width="3.2" /><path d="M188 384L202 384L204 370L186 370Z" fill="#FFE7A8" stroke="#2E3A48" stroke-width="2.2" /><path d="M185 370L205 370L195 361Z" fill="#2E3A48" /></g><path d="M188 384L202 384L204 370L186 370Z" fill="#F2C66E" stroke="#2E3A48" stroke-width="2.2" opacity=".9" /></g><g id="fx"><defs><radialGradient id="apcnfxn" cx=".5" cy=".45" r=".72"><stop offset=".45" stop-color="#0E1224" stop-opacity="0" /><stop offset="1" stop-color="#0E1224" stop-opacity=".5" /></radialGradient></defs><rect x="0" y="412" width="390" height="16" fill="#0E1224" opacity=".08" /><rect x="0" y="0" width="390" height="560" fill="url(#apcnfxn)" /></g></svg>
