<svg stroke-linecap="round" stroke-linejoin="round" xmlns="http://www.w3.org/2000/svg" width="390" height="560" viewBox="0 0 390 560" role="img" aria-label="Plaza de las Tendillas"><defs><linearGradient id="ktdsky" x1="0" y1="0" x2="0" y2="1"><stop offset="0" stop-color="#E79E70"/><stop offset=".4" stop-color="#F3C79B"/><stop offset=".6" stop-color="#F8DDB8"/><stop offset="1" stop-color="#FBEBD3"/></linearGradient><radialGradient id="ktdglow"><stop offset="0" stop-color="#FFF4DD" stop-opacity=".9"/><stop offset=".3" stop-color="#FFF4DD" stop-opacity=".4"/><stop offset="1" stop-color="#FFF4DD" stop-opacity="0"/></radialGradient><pattern id="ktddots" width="7" height="7" patternUnits="userSpaceOnUse"><circle cx="1.5" cy="1.5" r=".8" fill="#C9A57E" opacity=".5"/><circle cx="5" cy="4.5" r=".6" fill="#C9A57E" opacity=".4"/></pattern><linearGradient id="ktdsea" x1="0" y1="0" x2="0" y2="1"><stop offset="0" stop-color="#8FB9B4"/><stop offset="1" stop-color="#6E9FA0"/></linearGradient><linearGradient id="ktddome" x1="0" y1="0" x2="1" y2="0"><stop offset="0" stop-color="#F9D776"/><stop offset=".45" stop-color="#EDB943"/><stop offset="1" stop-color="#C98E2A"/></linearGradient></defs><g id="sky"><rect x="0" y="0" width="390" height="560" fill="url(#ktdsky)"/><circle cx="300" cy="110" r="108.8" fill="url(#ktdglow)"/><circle cx="300" cy="110" r="34" fill="#FFF3DC"/><g opacity=".9"><ellipse cx="80" cy="74.8" rx="27.2" ry="7.2" fill="#FFF6EA"/><circle cx="68.8" cy="70" r="8.8" fill="#FFF6EA"/><circle cx="81.6" cy="66" r="11.2" fill="#FFF6EA"/><circle cx="93.6" cy="70.8" r="7.2" fill="#FFF6EA"/></g><path d="M214 50Q217 46 220 50Q223 46 226 50" fill="none" stroke="#1B2A3A" stroke-width="1.3" opacity=".7"/><path d="M235.2 40Q237.6 36.8 240 40Q242.4 36.8 244.8 40" fill="none" stroke="#1B2A3A" stroke-width="1.3" opacity=".7"/></g><g id="far"><rect x="-10" y="195" width="40" height="105" fill="#EBC4A0"/><rect x="-5" y="203" width="4" height="6" fill="#D29E7A" opacity=".7"/><rect x="30" y="210" width="44" height="90" fill="#E6B790"/><rect x="35" y="218" width="4" height="6" fill="#D29E7A" opacity=".7"/><rect x="45" y="218" width="4" height="6" fill="#D29E7A" opacity=".7"/><rect x="74" y="219" width="29" height="81" fill="#E6B790"/><rect x="79" y="227" width="4" height="6" fill="#D29E7A" opacity=".7"/><rect x="103" y="204" width="30" height="96" fill="#E6B790"/><rect x="108" y="212" width="4" height="6" fill="#D29E7A" opacity=".7"/><rect x="133" y="197" width="41" height="103" fill="#EBC4A0"/><rect x="138" y="205" width="4" height="6" fill="#D29E7A" opacity=".7"/><rect x="174" y="220" width="30" height="80" fill="#EBC4A0"/><rect x="179" y="228" width="4" height="6" fill="#D29E7A" opacity=".7"/><rect x="189" y="228" width="4" height="6" fill="#D29E7A" opacity=".7"/><rect x="199" y="228" width="4" height="6" fill="#D29E7A" opacity=".7"/><rect x="204" y="194" width="24" height="106" fill="#EBC4A0"/><rect x="209" y="202" width="4" height="6" fill="#D29E7A" opacity=".7"/><rect x="209" y="179" width="9" height="15" fill="#EBC4A0"/><rect x="208" y="176" width="11" height="3" fill="#E6B790"/><rect x="228" y="198" width="37" height="102" fill="#E6B790"/><rect x="233" y="206" width="4" height="6" fill="#D29E7A" opacity=".7"/><rect x="243" y="206" width="4" height="6" fill="#D29E7A" opacity=".7"/><rect x="265" y="218" width="32" height="82" fill="#EBC4A0"/><rect x="270" y="226" width="4" height="6" fill="#D29E7A" opacity=".7"/><rect x="280" y="226" width="4" height="6" fill="#D29E7A" opacity=".7"/><rect x="297" y="199" width="25" height="101" fill="#E6B790"/><rect x="302" y="207" width="4" height="6" fill="#D29E7A" opacity=".7"/><rect x="322" y="206" width="27" height="94" fill="#EBC4A0"/><rect x="327" y="214" width="4" height="6" fill="#D29E7A" opacity=".7"/><rect x="349" y="212" width="41" height="88" fill="#EBC4A0"/><rect x="354" y="220" width="4" height="6" fill="#D29E7A" opacity=".7"/><rect x="364" y="220" width="4" height="6" fill="#D29E7A" opacity=".7"/><rect x="374" y="220" width="4" height="6" fill="#D29E7A" opacity=".7"/><rect x="390" y="212" width="36" height="88" fill="#EBC4A0"/><rect x="395" y="220" width="4" height="6" fill="#D29E7A" opacity=".7"/></g><g id="mid"><path d="M-30 190L110 190L110 390L-30 390Z" fill="#F2D48F" stroke="#1B2A3A" stroke-width="1.8"/><path d="M84.8 192L109 192L109 390L84.8 390Z" fill="#DDB86A" opacity=".6"/><path d="M-28 192L-16 192L-16 390L-28 390Z" fill="#F9E4B0" opacity=".7"/><path d="M-33 190L113 190L113 185L-33 185Z" fill="#F9E4B0" stroke="#1B2A3A" stroke-width="1.44"/><path d="M-30 185L-30 177L110 177L110 185" fill="#F2D48F" stroke="#1B2A3A" stroke-width="1.44"/><path d="M-3 243.3L-3 204.7L13 204.7L13 243.3Z" fill="#3E3024" stroke="#1B2A3A" stroke-width="1.35"/><path d="M-9.7 204.7L-4 204.7L-4 243.3L-9.7 243.3Z" fill="#4E7A5E" stroke="#1B2A3A" stroke-width="0.94"/><path d="M14 204.7L19.7 204.7L19.7 243.3L14 243.3Z" fill="#3B5F48" stroke="#1B2A3A" stroke-width="0.94"/><path d="M-7 243.3L17 243.3" fill="none" stroke="#1B2A3A" stroke-width="2.16"/><path d="M-7 228.6L17 228.6" fill="none" stroke="#1B2A3A" stroke-width="1.08"/><path d="M-7 228.6L-7 243.3" fill="none" stroke="#1B2A3A" stroke-width="0.81"/><path d="M-2.2 228.6L-2.2 243.3" fill="none" stroke="#1B2A3A" stroke-width="0.81"/><path d="M2.6 228.6L2.6 243.3" fill="none" stroke="#1B2A3A" stroke-width="0.81"/><path d="M7.4 228.6L7.4 243.3" fill="none" stroke="#1B2A3A" stroke-width="0.81"/><path d="M12.2 228.6L12.2 243.3" fill="none" stroke="#1B2A3A" stroke-width="0.81"/><path d="M17 228.6L17 243.3" fill="none" stroke="#1B2A3A" stroke-width="0.81"/><path d="M67 243.3L67 204.7L83 204.7L83 243.3Z" fill="#3E3024" stroke="#1B2A3A" stroke-width="1.35"/><path d="M60.3 204.7L66 204.7L66 243.3L60.3 243.3Z" fill="#4E7A5E" stroke="#1B2A3A" stroke-width="0.94"/><path d="M84 204.7L89.7 204.7L89.7 243.3L84 243.3Z" fill="#3B5F48" stroke="#1B2A3A" stroke-width="0.94"/><path d="M63 243.3L87 243.3" fill="none" stroke="#1B2A3A" stroke-width="2.16"/><path d="M63 228.6L87 228.6" fill="none" stroke="#1B2A3A" stroke-width="1.08"/><path d="M63 228.6L63 243.3" fill="none" stroke="#1B2A3A" stroke-width="0.81"/><path d="M67.8 228.6L67.8 243.3" fill="none" stroke="#1B2A3A" stroke-width="0.81"/><path d="M72.6 228.6L72.6 243.3" fill="none" stroke="#1B2A3A" stroke-width="0.81"/><path d="M77.4 228.6L77.4 243.3" fill="none" stroke="#1B2A3A" stroke-width="0.81"/><path d="M82.2 228.6L82.2 243.3" fill="none" stroke="#1B2A3A" stroke-width="0.81"/><path d="M87 228.6L87 243.3" fill="none" stroke="#1B2A3A" stroke-width="0.81"/><path d="M-3 310L-3 271.3L13 271.3L13 310Z" fill="#3E3024" stroke="#1B2A3A" stroke-width="1.35"/><path d="M-9.7 271.3L-4 271.3L-4 310L-9.7 310Z" fill="#4E7A5E" stroke="#1B2A3A" stroke-width="0.94"/><path d="M14 271.3L19.7 271.3L19.7 310L14 310Z" fill="#3B5F48" stroke="#1B2A3A" stroke-width="0.94"/><path d="M-7 310L17 310" fill="none" stroke="#1B2A3A" stroke-width="2.16"/><path d="M-7 295.3L17 295.3" fill="none" stroke="#1B2A3A" stroke-width="1.08"/><path d="M-7 295.3L-7 310" fill="none" stroke="#1B2A3A" stroke-width="0.81"/><path d="M-2.2 295.3L-2.2 310" fill="none" stroke="#1B2A3A" stroke-width="0.81"/><path d="M2.6 295.3L2.6 310" fill="none" stroke="#1B2A3A" stroke-width="0.81"/><path d="M7.4 295.3L7.4 310" fill="none" stroke="#1B2A3A" stroke-width="0.81"/><path d="M12.2 295.3L12.2 310" fill="none" stroke="#1B2A3A" stroke-width="0.81"/><path d="M17 295.3L17 310" fill="none" stroke="#1B2A3A" stroke-width="0.81"/><path d="M67 310L67 271.3L83 271.3L83 310Z" fill="#3E3024" stroke="#1B2A3A" stroke-width="1.35"/><path d="M60.3 271.3L66 271.3L66 310L60.3 310Z" fill="#4E7A5E" stroke="#1B2A3A" stroke-width="0.94"/><path d="M84 271.3L89.7 271.3L89.7 310L84 310Z" fill="#3B5F48" stroke="#1B2A3A" stroke-width="0.94"/><path d="M63 310L87 310" fill="none" stroke="#1B2A3A" stroke-width="2.16"/><path d="M63 295.3L87 295.3" fill="none" stroke="#1B2A3A" stroke-width="1.08"/><path d="M63 295.3L63 310" fill="none" stroke="#1B2A3A" stroke-width="0.81"/><path d="M67.8 295.3L67.8 310" fill="none" stroke="#1B2A3A" stroke-width="0.81"/><path d="M72.6 295.3L72.6 310" fill="none" stroke="#1B2A3A" stroke-width="0.81"/><path d="M77.4 295.3L77.4 310" fill="none" stroke="#1B2A3A" stroke-width="0.81"/><path d="M82.2 295.3L82.2 310" fill="none" stroke="#1B2A3A" stroke-width="0.81"/><path d="M87 295.3L87 310" fill="none" stroke="#1B2A3A" stroke-width="0.81"/><path d="M-3 376.7L-3 338L13 338L13 376.7Z" fill="#3E3024" stroke="#1B2A3A" stroke-width="1.35"/><path d="M-9.7 338L-4 338L-4 376.7L-9.7 376.7Z" fill="#4E7A5E" stroke="#1B2A3A" stroke-width="0.94"/><path d="M14 338L19.7 338L19.7 376.7L14 376.7Z" fill="#3B5F48" stroke="#1B2A3A" stroke-width="0.94"/><path d="M65 390L65 338Q75 328.4 85 338L85 390Z" fill="#5B3A26" stroke="#1B2A3A" stroke-width="1.44"/><path d="M280 180L420 180L420 390L280 390Z" fill="#EFB7A0" stroke="#1B2A3A" stroke-width="1.8"/><path d="M394.8 182L419 182L419 390L394.8 390Z" fill="#D99A82" opacity=".6"/><path d="M282 182L294 182L294 390L282 390Z" fill="#F7CDBB" opacity=".7"/><path d="M277 180L423 180L423 175L277 175Z" fill="#F7CDBB" stroke="#1B2A3A" stroke-width="1.44"/><path d="M280 175L280 167L420 167L420 175" fill="#EFB7A0" stroke="#1B2A3A" stroke-width="1.44"/><path d="M307 236L307 195.4L323 195.4L323 236Z" fill="#3E3024" stroke="#1B2A3A" stroke-width="1.35"/><path d="M300.3 195.4L306 195.4L306 236L300.3 236Z" fill="#4E7A5E" stroke="#1B2A3A" stroke-width="0.94"/><path d="M324 195.4L329.7 195.4L329.7 236L324 236Z" fill="#3B5F48" stroke="#1B2A3A" stroke-width="0.94"/><path d="M303 236L327 236" fill="none" stroke="#1B2A3A" stroke-width="2.16"/><path d="M303 220.6L327 220.6" fill="none" stroke="#1B2A3A" stroke-width="1.08"/><path d="M303 220.6L303 236" fill="none" stroke="#1B2A3A" stroke-width="0.81"/><path d="M307.8 220.6L307.8 236" fill="none" stroke="#1B2A3A" stroke-width="0.81"/><path d="M312.6 220.6L312.6 236" fill="none" stroke="#1B2A3A" stroke-width="0.81"/><path d="M317.4 220.6L317.4 236" fill="none" stroke="#1B2A3A" stroke-width="0.81"/><path d="M322.2 220.6L322.2 236" fill="none" stroke="#1B2A3A" stroke-width="0.81"/><path d="M327 220.6L327 236" fill="none" stroke="#1B2A3A" stroke-width="0.81"/><path d="M377 236L377 195.4L393 195.4L393 236Z" fill="#F4C66A" stroke="#1B2A3A" stroke-width="1.35"/><path d="M370.3 195.4L376 195.4L376 236L370.3 236Z" fill="#4E7A5E" stroke="#1B2A3A" stroke-width="0.94"/><path d="M394 195.4L399.7 195.4L399.7 236L394 236Z" fill="#3B5F48" stroke="#1B2A3A" stroke-width="0.94"/><path d="M373 236L397 236" fill="none" stroke="#1B2A3A" stroke-width="2.16"/><path d="M373 220.6L397 220.6" fill="none" stroke="#1B2A3A" stroke-width="1.08"/><path d="M373 220.6L373 236" fill="none" stroke="#1B2A3A" stroke-width="0.81"/><path d="M377.8 220.6L377.8 236" fill="none" stroke="#1B2A3A" stroke-width="0.81"/><path d="M382.6 220.6L382.6 236" fill="none" stroke="#1B2A3A" stroke-width="0.81"/><path d="M387.4 220.6L387.4 236" fill="none" stroke="#1B2A3A" stroke-width="0.81"/><path d="M392.2 220.6L392.2 236" fill="none" stroke="#1B2A3A" stroke-width="0.81"/><path d="M397 220.6L397 236" fill="none" stroke="#1B2A3A" stroke-width="0.81"/><path d="M307 306L307 265.4L323 265.4L323 306Z" fill="#3E3024" stroke="#1B2A3A" stroke-width="1.35"/><path d="M300.3 265.4L306 265.4L306 306L300.3 306Z" fill="#4E7A5E" stroke="#1B2A3A" stroke-width="0.94"/><path d="M324 265.4L329.7 265.4L329.7 306L324 306Z" fill="#3B5F48" stroke="#1B2A3A" stroke-width="0.94"/><path d="M303 306L327 306" fill="none" stroke="#1B2A3A" stroke-width="2.16"/><path d="M303 290.6L327 290.6" fill="none" stroke="#1B2A3A" stroke-width="1.08"/><path d="M303 290.6L303 306" fill="none" stroke="#1B2A3A" stroke-width="0.81"/><path d="M307.8 290.6L307.8 306" fill="none" stroke="#1B2A3A" stroke-width="0.81"/><path d="M312.6 290.6L312.6 306" fill="none" stroke="#1B2A3A" stroke-width="0.81"/><path d="M317.4 290.6L317.4 306" fill="none" stroke="#1B2A3A" stroke-width="0.81"/><path d="M322.2 290.6L322.2 306" fill="none" stroke="#1B2A3A" stroke-width="0.81"/><path d="M327 290.6L327 306" fill="none" stroke="#1B2A3A" stroke-width="0.81"/><path d="M377 306L377 265.4L393 265.4L393 306Z" fill="#3E3024" stroke="#1B2A3A" stroke-width="1.35"/><path d="M370.3 265.4L376 265.4L376 306L370.3 306Z" fill="#4E7A5E" stroke="#1B2A3A" stroke-width="0.94"/><path d="M394 265.4L399.7 265.4L399.7 306L394 306Z" fill="#3B5F48" stroke="#1B2A3A" stroke-width="0.94"/><path d="M373 306L397 306" fill="none" stroke="#1B2A3A" stroke-width="2.16"/><path d="M373 290.6L397 290.6" fill="none" stroke="#1B2A3A" stroke-width="1.08"/><path d="M373 290.6L373 306" fill="none" stroke="#1B2A3A" stroke-width="0.81"/><path d="M377.8 290.6L377.8 306" fill="none" stroke="#1B2A3A" stroke-width="0.81"/><path d="M382.6 290.6L382.6 306" fill="none" stroke="#1B2A3A" stroke-width="0.81"/><path d="M387.4 290.6L387.4 306" fill="none" stroke="#1B2A3A" stroke-width="0.81"/><path d="M392.2 290.6L392.2 306" fill="none" stroke="#1B2A3A" stroke-width="0.81"/><path d="M397 290.6L397 306" fill="none" stroke="#1B2A3A" stroke-width="0.81"/><path d="M307 376L307 335.4L323 335.4L323 376Z" fill="#3E3024" stroke="#1B2A3A" stroke-width="1.35"/><path d="M300.3 335.4L306 335.4L306 376L300.3 376Z" fill="#4E7A5E" stroke="#1B2A3A" stroke-width="0.94"/><path d="M324 335.4L329.7 335.4L329.7 376L324 376Z" fill="#3B5F48" stroke="#1B2A3A" stroke-width="0.94"/><path d="M375 390L375 335.4Q385 325.8 395 335.4L395 390Z" fill="#5B3A26" stroke="#1B2A3A" stroke-width="1.44"/><path d="M110 150L280 150L280 390L110 390Z" fill="#F7F0E4" stroke="#1B2A3A" stroke-width="1.8"/><path d="M249.4 152L279 152L279 390L249.4 390Z" fill="#E3D5BE" opacity=".6"/><path d="M112 152L127 152L127 390L112 390Z" fill="#FFFBF3" opacity=".7"/><path d="M107 150L283 150L283 145L107 145Z" fill="#FFFBF3" stroke="#1B2A3A" stroke-width="1.44"/><path d="M110 145L110 137L280 137L280 145" fill="#F7F0E4" stroke="#1B2A3A" stroke-width="1.44"/><path d="M130.3 214L130.3 167.6L146.3 167.6L146.3 214Z" fill="#3E3024" stroke="#1B2A3A" stroke-width="1.35"/><path d="M123.6 167.6L129.3 167.6L129.3 214L123.6 214Z" fill="#4E7A5E" stroke="#1B2A3A" stroke-width="0.94"/><path d="M147.3 167.6L153.1 167.6L153.1 214L147.3 214Z" fill="#3B5F48" stroke="#1B2A3A" stroke-width="0.94"/><path d="M126.3 214L150.3 214" fill="none" stroke="#1B2A3A" stroke-width="2.16"/><path d="M126.3 196.4L150.3 196.4" fill="none" stroke="#1B2A3A" stroke-width="1.08"/><path d="M126.3 196.4L126.3 214" fill="none" stroke="#1B2A3A" stroke-width="0.81"/><path d="M131.1 196.4L131.1 214" fill="none" stroke="#1B2A3A" stroke-width="0.81"/><path d="M135.9 196.4L135.9 214" fill="none" stroke="#1B2A3A" stroke-width="0.81"/><path d="M140.7 196.4L140.7 214" fill="none" stroke="#1B2A3A" stroke-width="0.81"/><path d="M145.5 196.4L145.5 214" fill="none" stroke="#1B2A3A" stroke-width="0.81"/><path d="M150.3 196.4L150.3 214" fill="none" stroke="#1B2A3A" stroke-width="0.81"/><path d="M187 214L187 167.6L203 167.6L203 214Z" fill="#3E3024" stroke="#1B2A3A" stroke-width="1.35"/><path d="M180.3 167.6L186 167.6L186 214L180.3 214Z" fill="#4E7A5E" stroke="#1B2A3A" stroke-width="0.94"/><path d="M204 167.6L209.7 167.6L209.7 214L204 214Z" fill="#3B5F48" stroke="#1B2A3A" stroke-width="0.94"/><path d="M183 214L207 214" fill="none" stroke="#1B2A3A" stroke-width="2.16"/><path d="M183 196.4L207 196.4" fill="none" stroke="#1B2A3A" stroke-width="1.08"/><path d="M183 196.4L183 214" fill="none" stroke="#1B2A3A" stroke-width="0.81"/><path d="M187.8 196.4L187.8 214" fill="none" stroke="#1B2A3A" stroke-width="0.81"/><path d="M192.6 196.4L192.6 214" fill="none" stroke="#1B2A3A" stroke-width="0.81"/><path d="M197.4 196.4L197.4 214" fill="none" stroke="#1B2A3A" stroke-width="0.81"/><path d="M202.2 196.4L202.2 214" fill="none" stroke="#1B2A3A" stroke-width="0.81"/><path d="M207 196.4L207 214" fill="none" stroke="#1B2A3A" stroke-width="0.81"/><path d="M243.7 214L243.7 167.6L259.7 167.6L259.7 214Z" fill="#3E3024" stroke="#1B2A3A" stroke-width="1.35"/><path d="M236.9 167.6L242.7 167.6L242.7 214L236.9 214Z" fill="#4E7A5E" stroke="#1B2A3A" stroke-width="0.94"/><path d="M260.7 167.6L266.4 167.6L266.4 214L260.7 214Z" fill="#3B5F48" stroke="#1B2A3A" stroke-width="0.94"/><path d="M239.7 214L263.7 214" fill="none" stroke="#1B2A3A" stroke-width="2.16"/><path d="M239.7 196.4L263.7 196.4" fill="none" stroke="#1B2A3A" stroke-width="1.08"/><path d="M239.7 196.4L239.7 214" fill="none" stroke="#1B2A3A" stroke-width="0.81"/><path d="M244.5 196.4L244.5 214" fill="none" stroke="#1B2A3A" stroke-width="0.81"/><path d="M249.3 196.4L249.3 214" fill="none" stroke="#1B2A3A" stroke-width="0.81"/><path d="M254.1 196.4L254.1 214" fill="none" stroke="#1B2A3A" stroke-width="0.81"/><path d="M258.9 196.4L258.9 214" fill="none" stroke="#1B2A3A" stroke-width="0.81"/><path d="M263.7 196.4L263.7 214" fill="none" stroke="#1B2A3A" stroke-width="0.81"/><path d="M130.3 294L130.3 247.6L146.3 247.6L146.3 294Z" fill="#3E3024" stroke="#1B2A3A" stroke-width="1.35"/><path d="M123.6 247.6L129.3 247.6L129.3 294L123.6 294Z" fill="#4E7A5E" stroke="#1B2A3A" stroke-width="0.94"/><path d="M147.3 247.6L153.1 247.6L153.1 294L147.3 294Z" fill="#3B5F48" stroke="#1B2A3A" stroke-width="0.94"/><path d="M126.3 294L150.3 294" fill="none" stroke="#1B2A3A" stroke-width="2.16"/><path d="M126.3 276.4L150.3 276.4" fill="none" stroke="#1B2A3A" stroke-width="1.08"/><path d="M126.3 276.4L126.3 294" fill="none" stroke="#1B2A3A" stroke-width="0.81"/><path d="M131.1 276.4L131.1 294" fill="none" stroke="#1B2A3A" stroke-width="0.81"/><path d="M135.9 276.4L135.9 294" fill="none" stroke="#1B2A3A" stroke-width="0.81"/><path d="M140.7 276.4L140.7 294" fill="none" stroke="#1B2A3A" stroke-width="0.81"/><path d="M145.5 276.4L145.5 294" fill="none" stroke="#1B2A3A" stroke-width="0.81"/><path d="M150.3 276.4L150.3 294" fill="none" stroke="#1B2A3A" stroke-width="0.81"/><path d="M187 294L187 247.6L203 247.6L203 294Z" fill="#F4C66A" stroke="#1B2A3A" stroke-width="1.35"/><path d="M180.3 247.6L186 247.6L186 294L180.3 294Z" fill="#4E7A5E" stroke="#1B2A3A" stroke-width="0.94"/><path d="M204 247.6L209.7 247.6L209.7 294L204 294Z" fill="#3B5F48" stroke="#1B2A3A" stroke-width="0.94"/><path d="M183 294L207 294" fill="none" stroke="#1B2A3A" stroke-width="2.16"/><path d="M183 276.4L207 276.4" fill="none" stroke="#1B2A3A" stroke-width="1.08"/><path d="M183 276.4L183 294" fill="none" stroke="#1B2A3A" stroke-width="0.81"/><path d="M187.8 276.4L187.8 294" fill="none" stroke="#1B2A3A" stroke-width="0.81"/><path d="M192.6 276.4L192.6 294" fill="none" stroke="#1B2A3A" stroke-width="0.81"/><path d="M197.4 276.4L197.4 294" fill="none" stroke="#1B2A3A" stroke-width="0.81"/><path d="M202.2 276.4L202.2 294" fill="none" stroke="#1B2A3A" stroke-width="0.81"/><path d="M207 276.4L207 294" fill="none" stroke="#1B2A3A" stroke-width="0.81"/><path d="M243.7 294L243.7 247.6L259.7 247.6L259.7 294Z" fill="#3E3024" stroke="#1B2A3A" stroke-width="1.35"/><path d="M236.9 247.6L242.7 247.6L242.7 294L236.9 294Z" fill="#4E7A5E" stroke="#1B2A3A" stroke-width="0.94"/><path d="M260.7 247.6L266.4 247.6L266.4 294L260.7 294Z" fill="#3B5F48" stroke="#1B2A3A" stroke-width="0.94"/><path d="M239.7 294L263.7 294" fill="none" stroke="#1B2A3A" stroke-width="2.16"/><path d="M239.7 276.4L263.7 276.4" fill="none" stroke="#1B2A3A" stroke-width="1.08"/><path d="M239.7 276.4L239.7 294" fill="none" stroke="#1B2A3A" stroke-width="0.81"/><path d="M244.5 276.4L244.5 294" fill="none" stroke="#1B2A3A" stroke-width="0.81"/><path d="M249.3 276.4L249.3 294" fill="none" stroke="#1B2A3A" stroke-width="0.81"/><path d="M254.1 276.4L254.1 294" fill="none" stroke="#1B2A3A" stroke-width="0.81"/><path d="M258.9 276.4L258.9 294" fill="none" stroke="#1B2A3A" stroke-width="0.81"/><path d="M263.7 276.4L263.7 294" fill="none" stroke="#1B2A3A" stroke-width="0.81"/><path d="M130.3 374L130.3 327.6L146.3 327.6L146.3 374Z" fill="#3E3024" stroke="#1B2A3A" stroke-width="1.35"/><path d="M123.6 327.6L129.3 327.6L129.3 374L123.6 374Z" fill="#4E7A5E" stroke="#1B2A3A" stroke-width="0.94"/><path d="M147.3 327.6L153.1 327.6L153.1 374L147.3 374Z" fill="#3B5F48" stroke="#1B2A3A" stroke-width="0.94"/><path d="M185 390L185 327.6Q195 318 205 327.6L205 390Z" fill="#5B3A26" stroke="#1B2A3A" stroke-width="1.44"/><path d="M243.7 374L243.7 327.6L259.7 327.6L259.7 374Z" fill="#3E3024" stroke="#1B2A3A" stroke-width="1.35"/><path d="M236.9 327.6L242.7 327.6L242.7 374L236.9 374Z" fill="#4E7A5E" stroke="#1B2A3A" stroke-width="0.94"/><path d="M260.7 327.6L266.4 327.6L266.4 374L260.7 374Z" fill="#3B5F48" stroke="#1B2A3A" stroke-width="0.94"/><path d="M160 150V110H230V150Z" fill="#FFFBF3" stroke="#1B2A3A" stroke-width="1.6"/><circle cx="195" cy="128" r="14" fill="#FFF8EC" stroke="#1B2A3A" stroke-width="1.8"/><path d="M195 128V118M195 128L203 132" stroke="#1B2A3A" stroke-width="1.6"/><rect x="-10" y="386" width="410" height="42" fill="#DDBE98"/></g><g id="near"><rect x="0" y="420" width="390" height="140" fill="#DCD3C4"/><rect x="0" y="420" width="390" height="140" fill="url(#ktddots)"/><rect x="0" y="436" width="390" height="1.2" fill="#C8BEAD"/><rect x="0" y="456" width="390" height="1.2" fill="#C8BEAD"/><rect x="0" y="484" width="390" height="1.2" fill="#C8BEAD"/><rect x="0" y="522" width="390" height="1.2" fill="#C8BEAD"/><path d="M195 420L-273 560" fill="none" stroke="#C8BEAD" stroke-width="1"/><path d="M195 420L-221 560" fill="none" stroke="#C8BEAD" stroke-width="1"/><path d="M195 420L-169 560" fill="none" stroke="#C8BEAD" stroke-width="1"/><path d="M195 420L-117 560" fill="none" stroke="#C8BEAD" stroke-width="1"/><path d="M195 420L-65 560" fill="none" stroke="#C8BEAD" stroke-width="1"/><path d="M195 420L-13 560" fill="none" stroke="#C8BEAD" stroke-width="1"/><path d="M195 420L39 560" fill="none" stroke="#C8BEAD" stroke-width="1"/><path d="M195 420L91 560" fill="none" stroke="#C8BEAD" stroke-width="1"/><path d="M195 420L143 560" fill="none" stroke="#C8BEAD" stroke-width="1"/><path d="M195 420L195 560" fill="none" stroke="#C8BEAD" stroke-width="1"/><path d="M195 420L247 560" fill="none" stroke="#C8BEAD" stroke-width="1"/><path d="M195 420L299 560" fill="none" stroke="#C8BEAD" stroke-width="1"/><path d="M195 420L351 560" fill="none" stroke="#C8BEAD" stroke-width="1"/><path d="M195 420L403 560" fill="none" stroke="#C8BEAD" stroke-width="1"/><path d="M195 420L455 560" fill="none" stroke="#C8BEAD" stroke-width="1"/><path d="M195 420L507 560" fill="none" stroke="#C8BEAD" stroke-width="1"/><path d="M195 420L559 560" fill="none" stroke="#C8BEAD" stroke-width="1"/><path d="M195 420L611 560" fill="none" stroke="#C8BEAD" stroke-width="1"/><path d="M195 420L663 560" fill="none" stroke="#C8BEAD" stroke-width="1"/><path d="M80 470V438" stroke="#DDEFF0" stroke-width="3" opacity=".8"/><path d="M104 470V438" stroke="#DDEFF0" stroke-width="3" opacity=".8"/><path d="M128 470V438" stroke="#DDEFF0" stroke-width="3" opacity=".8"/><path d="M152 470V438" stroke="#DDEFF0" stroke-width="3" opacity=".8"/><path d="M176 470V438" stroke="#DDEFF0" stroke-width="3" opacity=".8"/><path d="M200 470V438" stroke="#DDEFF0" stroke-width="3" opacity=".8"/><path d="M224 470V438" stroke="#DDEFF0" stroke-width="3" opacity=".8"/><path d="M248 470V438" stroke="#DDEFF0" stroke-width="3" opacity=".8"/><path d="M272 470V438" stroke="#DDEFF0" stroke-width="3" opacity=".8"/><path d="M296 470V438" stroke="#DDEFF0" stroke-width="3" opacity=".8"/><path d="M60 470H330V476H60Z" fill="#8FB9B4"/><path d="M175.8 450V390H214.2V450Z" fill="#EFDCB8" stroke="#1B2A3A" stroke-width="1.5"/><path d="M171 390H219V380.4H171Z" fill="#FBF0DA" stroke="#1B2A3A" stroke-width="1.4"/><path d="M168.6 380.4L173.4 351.6Q195 344.4 214.2 349.2L226.2 327.6L231 334.8L221.4 356.4L219 380.4H211.8V363.6H180.6V380.4Z" fill="#5E6B64" stroke="#1B2A3A" stroke-width="1.4"/><path d="M190.2 349.2V320.4H202.2V349.2Z" fill="#5E6B64" stroke="#1B2A3A" stroke-width="1.4"/><circle cx="196.2" cy="314.4" r="7.2" fill="#5E6B64" stroke="#1B2A3A" stroke-width="1.4"/><ellipse cx="60" cy="453" rx="5.7" ry="1.5" fill="#5B3524" opacity=".2"/><path d="M58.1 452L58.1 445.4M61.9 452L61.9 445.4" stroke="#3A3A48" stroke-width="2.3"/><path d="M56.7 446.3L57.1 437.8L62.9 437.8L63.3 446.3Z" fill="#2F6F73"/><circle cx="60" cy="434.9" r="2.8" fill="#D9A07A"/><ellipse cx="330" cy="457" rx="6" ry="1.6" fill="#5B3524" opacity=".2"/><path d="M325 456L327.5 442L332.5 442L335 456Z" fill="#A8431F"/><circle cx="330" cy="438" r="3" fill="#D9A07A"/><ellipse cx="20" cy="542" rx="12" ry="3" fill="#5B3524" opacity=".2"/><path d="M15 540L25 540L23 528L17 528Z" fill="#2E3A48"/><path d="M20 528L20 384" stroke="#2E3A48" stroke-width="3.2"/><path d="M13 384L27 384L29 370L11 370Z" fill="#FFE7A8" stroke="#2E3A48" stroke-width="2.2"/><path d="M10 370L30 370L20 361Z" fill="#2E3A48"/><ellipse cx="370" cy="542" rx="12" ry="3" fill="#5B3524" opacity=".2"/><path d="M365 540L375 540L373 528L367 528Z" fill="#2E3A48"/><path d="M370 528L370 384" stroke="#2E3A48" stroke-width="3.2"/><path d="M363 384L377 384L379 370L361 370Z" fill="#FFE7A8" stroke="#2E3A48" stroke-width="2.2"/><path d="M360 370L380 370L370 361Z" fill="#2E3A48"/></g><g id="fx"><defs><radialGradient id="ktdfxv" cx=".5" cy=".4" r=".7"><stop offset=".5" stop-color="#5B3524" stop-opacity="0"/><stop offset="1" stop-color="#3A2418" stop-opacity=".3"/></radialGradient><linearGradient id="ktdfxr" x1="0" y1="0" x2="0" y2="1"><stop offset="0" stop-color="#FFF4DC" stop-opacity="0.3"/><stop offset="1" stop-color="#FFF4DC" stop-opacity="0"/></linearGradient><linearGradient id="ktdfxb" x1="0" y1="0" x2="0" y2="1"><stop offset=".7" stop-color="#1B2A3A" stop-opacity="0"/><stop offset="1" stop-color="#1B2A3A" stop-opacity=".25"/></linearGradient></defs><path d="M300 110L781.8 617.8L716.4 672.7Z" fill="url(#ktdfxr)"/><path d="M300 110L579.1 751.9L498.8 781.2Z" fill="url(#ktdfxr)"/><path d="M300 110L318.3 809.8L232.9 806.8Z" fill="url(#ktdfxr)"/><path d="M300 110L77.9 773.8L-1.4 741.8Z" fill="url(#ktdfxr)"/><path d="M300 110L-163.8 634.3L-224.3 573.8Z" fill="url(#ktdfxr)"/><rect x="0" y="412" width="390" height="16" fill="#3A2418" opacity=".06"/><rect x="0" y="0" width="390" height="560" fill="url(#ktdfxb)"/><rect x="0" y="0" width="390" height="560" fill="url(#ktdfxv)"/></g></svg>
