<svg stroke-linecap="round" stroke-linejoin="round" xmlns="http://www.w3.org/2000/svg" width="200" height="260" viewBox="0 0 200 260" role="img" aria-label="nervous"><g id="shadow"><ellipse cx="100" cy="249" rx="69.6" ry="9" fill="#1B2A3A" opacity="0"/><ellipse cx="100" cy="249" rx="50" ry="6" fill="#1B2A3A" opacity=".2"/><ellipse cx="100" cy="249" rx="28" ry="3.5" fill="#1B2A3A" opacity=".1"/></g><g id="strings"><path d="M100 2L66 58" fill="none" stroke="#1B2A3A" stroke-width=".9" opacity=".35"/><path d="M100 2L134 58" fill="none" stroke="#1B2A3A" stroke-width=".9" opacity=".35"/><path d="M100 2L46 146" fill="none" stroke="#1B2A3A" stroke-width=".9" opacity=".35"/><path d="M100 2L154 146" fill="none" stroke="#1B2A3A" stroke-width=".9" opacity=".35"/><path d="M72 6L128 6" fill="none" stroke="#1B2A3A" stroke-width="7"/><path d="M72 6L128 6" fill="none" stroke="#9A6B45" stroke-width="4"/><path d="M100 0L100 12" fill="none" stroke="#1B2A3A" stroke-width="7"/><path d="M100 0L100 12" fill="none" stroke="#9A6B45" stroke-width="4"/></g><g id="skirt"><path d="M72 170Q66 206 62 236L138 236Q134 206 128 170Z" fill="#2E2833" stroke="#1B2A3A" stroke-width="2.8"/><path d="M104 172L128 170Q134 206 138 236L112 236Z" fill="#1F1B24"/><path d="M80 176Q78 206 76 232L124 232Q122 206 120 176Z" fill="#FFF8EC" stroke="#1B2A3A" stroke-width="2.2"/><path d="M104 176L120 176Q122 206 124 232L110 232Z" fill="#EADFCB"/><path d="M76 232Q82 226 88 232Q94 226 100 232Q106 226 112 232Q118 226 124 232" fill="none" stroke="#1B2A3A" stroke-width="1.8"/><path d="M84 196L116 196" fill="none" stroke="#EADFCB" stroke-width="1.6"/><path d="M84 238Q84 246 92 246L98 246L98 236Z" fill="#1B2A3A"/><path d="M116 238Q116 246 108 246L102 246L102 236Z" fill="#1B2A3A"/></g><g id="torso"><path d="M76 116Q100 106 124 116L130 176L70 176Z" fill="#2E2833" stroke="#1B2A3A" stroke-width="2.8"/><path d="M104 110Q116 110 124 116L130 176L108 176Z" fill="#1F1B24"/><path d="M92 110L100 122L108 110" fill="#EDBE98" stroke="#1B2A3A" stroke-width="2"/><path d="M70 118Q100 150 130 118L134 140Q100 170 66 140Z" fill="#A8431F" stroke="#1B2A3A" stroke-width="2.4"/><path d="M104 148Q122 140 134 140L130 118Q120 134 104 140Z" fill="#7E3015"/><circle cx="78" cy="132" r="2" fill="#F0A27F"/><circle cx="90" cy="142" r="2" fill="#F0A27F"/><circle cx="100" cy="146" r="2" fill="#F0A27F"/><circle cx="110" cy="142" r="2" fill="#F0A27F"/><circle cx="122" cy="132" r="2" fill="#F0A27F"/><circle cx="84" cy="138" r="2" fill="#F0A27F"/><circle cx="116" cy="138" r="2" fill="#F0A27F"/><path d="M74 142.7L74 150.7" fill="none" stroke="#A8431F" stroke-width="1.6"/><path d="M80 144.4L80 152.4" fill="none" stroke="#A8431F" stroke-width="1.6"/><path d="M86 146.1L86 154.1" fill="none" stroke="#A8431F" stroke-width="1.6"/><path d="M92 147.8L92 155.8" fill="none" stroke="#A8431F" stroke-width="1.6"/><path d="M98 149.4L98 157.4" fill="none" stroke="#A8431F" stroke-width="1.6"/><path d="M104 148.9L104 156.9" fill="none" stroke="#A8431F" stroke-width="1.6"/><path d="M110 147.2L110 155.2" fill="none" stroke="#A8431F" stroke-width="1.6"/><path d="M116 145.5L116 153.5" fill="none" stroke="#A8431F" stroke-width="1.6"/><path d="M122 143.8L122 151.8" fill="none" stroke="#A8431F" stroke-width="1.6"/><path d="M96 150L100 162L104 150" fill="#A8431F" stroke="#1B2A3A" stroke-width="2"/></g><g id="arms"><path d="M78 122Q60 130 48 146" fill="none" stroke="#1B2A3A" stroke-width="16"/><path d="M78 122Q60 130 48 146" fill="none" stroke="#2E2833" stroke-width="12"/><path d="M122 122Q140 130 152 146" fill="none" stroke="#1B2A3A" stroke-width="16"/><path d="M122 122Q140 130 152 146" fill="none" stroke="#2E2833" stroke-width="12"/><circle cx="48" cy="146" r="4" fill="#9A6B45" stroke="#1B2A3A" stroke-width="2"/><circle cx="152" cy="146" r="4" fill="#9A6B45" stroke="#1B2A3A" stroke-width="2"/><circle cx="44" cy="153" r="6" fill="#EDBE98" stroke="#1B2A3A" stroke-width="2.4"/><circle cx="156" cy="153" r="6" fill="#EDBE98" stroke="#1B2A3A" stroke-width="2.4"/></g><g id="head"><path d="M91 98L91 114L109 114L109 98Z" fill="#EDBE98"/><ellipse cx="61" cy="80" rx="6" ry="8" fill="#EDBE98" stroke="#1B2A3A" stroke-width="2.6"/><ellipse cx="139" cy="80" rx="6" ry="8" fill="#EDBE98" stroke="#1B2A3A" stroke-width="2.6"/><circle cx="61" cy="92" r="4" fill="none" stroke="#F2C14E" stroke-width="2.2"/><circle cx="139" cy="92" r="4" fill="none" stroke="#F2C14E" stroke-width="2.2"/><path d="M62 74Q60 36 100 34Q140 36 138 74Q140 104 100 108Q60 104 62 74Z" fill="#EDBE98" stroke="#1B2A3A" stroke-width="3"/><path d="M118 40Q140 50 138 74Q138 100 110 107Q128 90 126 66Q124 48 118 40Z" fill="#D29C74" opacity=".5"/><ellipse cx="78" cy="92" rx="7" ry="4" fill="#E88A78" opacity=".45"/><ellipse cx="122" cy="92" rx="7" ry="4" fill="#E88A78" opacity=".45"/><path d="M70 86Q72 90 70 94M130 86Q128 90 130 94" fill="none" stroke="#D29C74" stroke-width="1.4"/><circle cx="100" cy="22" r="14" fill="#CFC9C0" stroke="#1B2A3A" stroke-width="2.8"/><path d="M104 10Q114 14 112 28Q106 20 98 18Z" fill="#A9A197"/><path d="M86 16L116 30" fill="none" stroke="#C9962A" stroke-width="2.4"/><path d="M60 74Q54 32 100 30Q146 32 140 74Q134 54 118 48Q108 44 100 42Q92 44 82 48Q66 54 60 74Z" fill="#CFC9C0" stroke="#1B2A3A" stroke-width="2.6"/><path d="M100 32L100 42" fill="none" stroke="#A9A197" stroke-width="2"/><path d="M112 34Q134 40 138 64Q128 50 112 46Z" fill="#A9A197"/><path d="M74 40Q86 34 96 34" fill="none" stroke="#EEEAE4" stroke-width="2.4"/><circle cx="129" cy="44" r="4.2" fill="#A8431F" stroke="#1B2A3A" stroke-width="1.6"/><circle cx="135" cy="44" r="4.2" fill="#A8431F" stroke="#1B2A3A" stroke-width="1.6"/><circle cx="132" cy="49" r="4.2" fill="#A8431F" stroke="#1B2A3A" stroke-width="1.6"/><circle cx="132" cy="45" r="2.4" fill="#C9553A"/><ellipse cx="76" cy="66" rx="7" ry="3.5" fill="#FFF" opacity=".2"/></g><g id="face"><ellipse cx="83.8" cy="80" rx="6.5" ry="7.8" fill="#FFF" stroke="#1B2A3A" stroke-width="2"/><circle cx="81.9" cy="80.8" r="2.8" fill="#4A5A6A"/><circle cx="81.9" cy="80.8" r="1.4" fill="#1B2A3A"/><circle cx="83.1" cy="79" r="1" fill="#FFF"/><ellipse cx="116.2" cy="80" rx="6.5" ry="7.8" fill="#FFF" stroke="#1B2A3A" stroke-width="2"/><circle cx="114.4" cy="80.8" r="2.8" fill="#4A5A6A"/><circle cx="114.4" cy="80.8" r="1.4" fill="#1B2A3A"/><circle cx="115.6" cy="79" r="1" fill="#FFF"/><path d="M76.9 67.5Q83.8 58.1 90.6 61.9Q83.8 61.1 76.9 69.3Z" fill="#1B2A3A"/><path d="M109.4 61.9Q116.2 58.1 123.1 67.5Q116.2 61.1 109.4 63.7Z" fill="#1B2A3A"/><path d="M91.2 97.5Q93.4 93.8 95.6 97.5Q97.8 101.2 100 97.5Q102.2 93.8 104.4 97.5Q106.6 101.2 108.8 97.5" fill="none" stroke="#1B2A3A" stroke-width="2.5"/><path d="M137.5 51.2Q144.4 61.2 137.5 65Q130.6 61.2 137.5 51.2Z" fill="#9DD3EC" stroke="#1B2A3A" stroke-width="1.8"/><ellipse cx="135.6" cy="60" rx="1.5" ry="2.5" fill="#FFF"/></g><g id="rim"><path d="M68 62Q74 44 92 40" fill="none" stroke="#FFF" stroke-width="2.2" opacity=".4"/><path d="M79 122L74 170" fill="none" stroke="#FFF" stroke-width="2" opacity=".35"/><path d="M82 180L80 226" fill="none" stroke="#FFF" stroke-width="2" opacity=".6"/></g></svg>
