<svg stroke-linecap="round" stroke-linejoin="round" xmlns="http://www.w3.org/2000/svg" width="200" height="260" viewBox="0 0 200 260" role="img" aria-label="nervous"><g id="shadow"><ellipse cx="100" cy="249" rx="69.6" ry="9" fill="#1B2A3A" opacity="0"/><ellipse cx="100" cy="249" rx="50" ry="6" fill="#1B2A3A" opacity=".2"/><ellipse cx="100" cy="249" rx="28" ry="3.5" fill="#1B2A3A" opacity=".1"/></g><g id="back"></g><g id="body"><path d="M82 200L118 200L117 238L104 238L100 218L96 238L83 238Z" fill="#2B2A33" stroke="#1B2A3A" stroke-width="2.6"/><path d="M78 248Q80 240 92 240Q98 241 98 248Z" fill="#2B2A33" stroke="#1B2A3A" stroke-width="2.4"/><path d="M102 248Q102 241 108 240Q120 240 122 248Z" fill="#2B2A33" stroke="#1B2A3A" stroke-width="2.4"/><path d="M72 118Q100 106 128 118L132 204L68 204Z" fill="#2B2A33" stroke="#1B2A3A" stroke-width="2.8"/><path d="M104 112Q120 112 128 118L132 204L112 204Z" fill="#212027"/><path d="M88 116L112 116L110 190L100 196L90 190Z" fill="#FFF8EC" stroke="#1B2A3A" stroke-width="1.8"/><path d="M84 116L94 150L80 140Z" fill="#212027" stroke="#1B2A3A" stroke-width="1.8"/><path d="M116 116L106 150L120 140Z" fill="#212027" stroke="#1B2A3A" stroke-width="1.8"/><path d="M92 118L100 128L108 118L100 122Z" fill="#D8412F" stroke="#1B2A3A" stroke-width="1.4"/></g><g id="arms"><path d="M76 124Q60 136 58 154" fill="none" stroke="#1B2A3A" stroke-width="16"/><path d="M76 124Q60 136 58 154" fill="none" stroke="#2B2A33" stroke-width="12"/><path d="M124 124Q142 116 150 98" fill="none" stroke="#1B2A3A" stroke-width="16"/><path d="M124 124Q142 116 150 98" fill="none" stroke="#2B2A33" stroke-width="12"/><path d="M128 96Q126 74 150 74Q174 76 170 98Q162 106 154 100Q148 112 128 96Z" fill="#D9B48A" stroke="#1B2A3A" stroke-width="2"/><circle cx="138" cy="84" r="3.4" fill="#D8412F"/><circle cx="148" cy="80" r="3.4" fill="#F2C14E"/><circle cx="158" cy="82" r="3.4" fill="#2F6F73"/><circle cx="164" cy="90" r="3.4" fill="#2B2A33"/><path d="M136 106L168 66" stroke="#1B2A3A" stroke-width="3"/><path d="M166 68L172 62" stroke="#D8412F" stroke-width="4"/><circle cx="58" cy="156" r="6" fill="#C98F66" stroke="#1B2A3A" stroke-width="2.4"/><circle cx="150" cy="96" r="6" fill="#C98F66" stroke="#1B2A3A" stroke-width="2.4"/></g><g id="head"><path d="M90 96L90 114L110 114L110 96Z" fill="#C98F66"/><ellipse cx="61" cy="80" rx="6" ry="8" fill="#C98F66" stroke="#1B2A3A" stroke-width="2.6"/><ellipse cx="139" cy="80" rx="6" ry="8" fill="#C98F66" stroke="#1B2A3A" stroke-width="2.6"/><path d="M62 74Q60 36 100 34Q140 36 138 74Q140 104 100 108Q60 104 62 74Z" fill="#C98F66" stroke="#1B2A3A" stroke-width="3"/><path d="M118 40Q140 50 138 74Q138 100 110 107Q128 90 126 66Q124 48 118 40Z" fill="#A8714C" opacity=".5"/><path d="M60 74Q56 36 100 34Q144 36 140 74Q134 50 100 48Q70 48 60 74Z" fill="#1E1A1A" stroke="#1B2A3A" stroke-width="2.4"/><path d="M84 95Q100 86 116 95Q108 100 100 96Q92 100 84 95Z" fill="#1E1A1A" stroke="#1B2A3A" stroke-width="1.6"/><path d="M44 50Q100 40 156 50L156 57Q100 47 44 57Z" fill="#2B2A33" stroke="#1B2A3A" stroke-width="2.4"/><path d="M72 50L74 22L126 22L128 50Z" fill="#2B2A33" stroke="#1B2A3A" stroke-width="2.6"/><path d="M110 23L126 23L128 50L114 50Z" fill="#212027"/><path d="M73 42L127 42L127 48L73 48Z" fill="#2B2A33" stroke="#1B2A3A" stroke-width="1.4"/></g><g id="face"><ellipse cx="83.8" cy="80" rx="6.5" ry="7.8" fill="#FFF" stroke="#1B2A3A" stroke-width="2"/><circle cx="81.9" cy="80.8" r="2.8" fill="#3A2A1E"/><circle cx="81.9" cy="80.8" r="1.4" fill="#1B2A3A"/><circle cx="83.1" cy="79" r="1" fill="#FFF"/><ellipse cx="116.2" cy="80" rx="6.5" ry="7.8" fill="#FFF" stroke="#1B2A3A" stroke-width="2"/><circle cx="114.4" cy="80.8" r="2.8" fill="#3A2A1E"/><circle cx="114.4" cy="80.8" r="1.4" fill="#1B2A3A"/><circle cx="115.6" cy="79" r="1" fill="#FFF"/><path d="M76.9 67.5Q83.8 58.1 90.6 61.9Q83.8 61.1 76.9 69.3Z" fill="#1B2A3A"/><path d="M109.4 61.9Q116.2 58.1 123.1 67.5Q116.2 61.1 109.4 63.7Z" fill="#1B2A3A"/><path d="M91.2 97.5Q93.4 93.8 95.6 97.5Q97.8 101.2 100 97.5Q102.2 93.8 104.4 97.5Q106.6 101.2 108.8 97.5" fill="none" stroke="#1B2A3A" stroke-width="2.5"/><path d="M137.5 51.2Q144.4 61.2 137.5 65Q130.6 61.2 137.5 51.2Z" fill="#9DD3EC" stroke="#1B2A3A" stroke-width="1.8"/><ellipse cx="135.6" cy="60" rx="1.5" ry="2.5" fill="#FFF"/></g><g id="rim"><path d="M70 126L66 200" fill="none" stroke="#FFF" stroke-width="2" opacity=".35"/></g></svg>
