<svg stroke-linecap="round" stroke-linejoin="round" xmlns="http://www.w3.org/2000/svg" width="200" height="260" viewBox="0 0 200 260" role="img" aria-label="proud"><g id="shadow"><ellipse cx="100" cy="249" rx="69.6" ry="9" fill="#1B2A3A" opacity="0"/><ellipse cx="100" cy="249" rx="50" ry="6" fill="#1B2A3A" opacity=".2"/><ellipse cx="100" cy="249" rx="28" ry="3.5" fill="#1B2A3A" opacity=".1"/></g><g id="back"><path d="M136 70Q150 100 142 130" fill="none" stroke="#1B2A3A" stroke-width="13"/><path d="M136 70Q150 100 142 130" fill="none" stroke="#2A1E1A" stroke-width="9"/><path d="M137 86l8 4" stroke="#1B2A3A" stroke-width="1.2"/><path d="M138 98l8 4" stroke="#1B2A3A" stroke-width="1.2"/><path d="M139 110l8 4" stroke="#1B2A3A" stroke-width="1.2"/><path d="M140 122l8 4" stroke="#1B2A3A" stroke-width="1.2"/></g><g id="body"><path d="M74 118Q100 106 126 118L142 244L58 244Z" fill="#F2E3C4" stroke="#1B2A3A" stroke-width="2.8"/><path d="M104 112Q120 112 126 118L142 244L114 244Z" fill="#BCB198"/><path d="M62 214Q100 226 138 214L142 244L58 244Z" fill="#D8412F" stroke="#1B2A3A" stroke-width="2"/><path d="M84 118L100 138L116 118" fill="none" stroke="#D8412F" stroke-width="3"/><path d="M80 150H120L124 236H76Z" fill="#FFF8EC" stroke="#1B2A3A" stroke-width="2"/><path d="M74 152Q100 160 126 152" fill="none" stroke="#FFF8EC" stroke-width="3"/></g><g id="arms"><path d="M76 124Q60 136 58 154" fill="none" stroke="#1B2A3A" stroke-width="16"/><path d="M76 124Q60 136 58 154" fill="none" stroke="#F2E3C4" stroke-width="12"/><path d="M124 124Q142 132 146 148" fill="none" stroke="#1B2A3A" stroke-width="16"/><path d="M124 124Q142 132 146 148" fill="none" stroke="#F2E3C4" stroke-width="12"/><path d="M54 162L48 134M58 162V130M62 162L68 134" stroke="#4F8B5A" stroke-width="2.4"/><circle cx="48" cy="132" r="6.4" fill="#D8412F" stroke="#1B2A3A" stroke-width="1.4"/><circle cx="58" cy="126" r="6.4" fill="#E8744A" stroke="#1B2A3A" stroke-width="1.4"/><circle cx="68" cy="132" r="6.4" fill="#D8412F" stroke="#1B2A3A" stroke-width="1.4"/><circle cx="58" cy="156" r="6" fill="#E3AE88" stroke="#1B2A3A" stroke-width="2.4"/><circle cx="146" cy="150" r="6" fill="#E3AE88" stroke="#1B2A3A" stroke-width="2.4"/></g><g id="head"><path d="M90 96L90 114L110 114L110 96Z" fill="#E3AE88"/><ellipse cx="61" cy="80" rx="6" ry="8" fill="#E3AE88" stroke="#1B2A3A" stroke-width="2.6"/><ellipse cx="139" cy="80" rx="6" ry="8" fill="#E3AE88" stroke="#1B2A3A" stroke-width="2.6"/><path d="M62 74Q60 36 100 34Q140 36 138 74Q140 104 100 108Q60 104 62 74Z" fill="#E3AE88" stroke="#1B2A3A" stroke-width="3"/><path d="M118 40Q140 50 138 74Q138 100 110 107Q128 90 126 66Q124 48 118 40Z" fill="#C58E68" opacity=".5"/><path d="M60 76Q56 38 100 34Q144 38 140 76L134 76Q132 58 124 52Q112 60 96 56Q80 58 68 66L66 76Z" fill="#2A1E1A" stroke="#1B2A3A" stroke-width="2.4"/><path d="M62 70L64 90M138 70L136 90" stroke="#2A1E1A" stroke-width="5"/><circle cx="132" cy="46" r="9" fill="#D8412F" stroke="#1B2A3A" stroke-width="1.8"/><circle cx="132" cy="46" r="3.4" fill="#FFF8EC"/></g><g id="face"><ellipse cx="83.8" cy="80" rx="6.5" ry="7.8" fill="#FFF" stroke="#1B2A3A" stroke-width="2"/><circle cx="83.8" cy="82" r="3.6" fill="#3A2A1E"/><circle cx="83.8" cy="82" r="1.8" fill="#1B2A3A"/><circle cx="85.4" cy="80" r="1.4" fill="#FFF"/><path d="M76.2 71L91.2 71L91.2 80Q83.8 81.9 76.2 80Z" fill="#E0A77A"/><path d="M77.2 80Q83.8 81.9 90.2 80" fill="none" stroke="#1B2A3A" stroke-width="2.2"/><ellipse cx="116.2" cy="80" rx="6.5" ry="7.8" fill="#FFF" stroke="#1B2A3A" stroke-width="2"/><circle cx="116.2" cy="82" r="3.6" fill="#3A2A1E"/><circle cx="116.2" cy="82" r="1.8" fill="#1B2A3A"/><circle cx="117.9" cy="80" r="1.4" fill="#FFF"/><path d="M108.8 71L123.8 71L123.8 80Q116.2 81.9 108.8 80Z" fill="#E0A77A"/><path d="M109.8 80Q116.2 81.9 122.8 80" fill="none" stroke="#1B2A3A" stroke-width="2.2"/><path d="M76.9 67.5Q83.8 61.2 90.6 65Q83.8 64.2 76.9 69.3Z" fill="#1B2A3A"/><path d="M109.4 65Q116.2 61.2 123.1 67.5Q116.2 64.2 109.4 66.8Z" fill="#1B2A3A"/><path d="M92.5 96.9Q101.2 102.5 110 92.5" fill="none" stroke="#1B2A3A" stroke-width="3"/><ellipse cx="81.2" cy="90" rx="6.2" ry="3.5" fill="#EE7F6B" opacity=".3"/><ellipse cx="118.8" cy="90" rx="6.2" ry="3.5" fill="#EE7F6B" opacity=".3"/><path d="M141.2 37.5Q141.2 45 148.8 45Q141.2 45 141.2 52.5Q141.2 45 133.8 45Q141.2 45 141.2 37.5Z" fill="#F2C14E" stroke="#1B2A3A" stroke-width="1.5"/></g><g id="rim"><path d="M70 126L66 236" fill="none" stroke="#FFF" stroke-width="2" opacity=".35"/></g></svg>
