<svg xmlns="http://www.w3.org/2000/svg" viewBox="0 0 120 124" stroke-linecap="round" stroke-linejoin="round" role="img" aria-label="La moneda de al-Mariyya">
<defs><clipPath id="clip-almeria_moneda"><circle cx="60" cy="60" r="40.8"/></clipPath></defs>
<circle cx="60" cy="64" r="52" fill="#1B2A3A"/>
<circle cx="60" cy="60" r="52" fill="#F2C14E" stroke="#1B2A3A" stroke-width="3"/>
<path d="M60.0 9.0L64.0 13.0L60.0 17.0L56.0 13.0Z" fill="#FFF8EC" stroke="#1B2A3A" stroke-width="1.5"/><path d="M93.2 22.8L97.2 26.8L93.2 30.8L89.2 26.8Z" fill="#FFF8EC" stroke="#1B2A3A" stroke-width="1.5"/><path d="M107.0 56.0L111.0 60.0L107.0 64.0L103.0 60.0Z" fill="#FFF8EC" stroke="#1B2A3A" stroke-width="1.5"/><path d="M93.2 89.2L97.2 93.2L93.2 97.2L89.2 93.2Z" fill="#FFF8EC" stroke="#1B2A3A" stroke-width="1.5"/><path d="M60.0 103.0L64.0 107.0L60.0 111.0L56.0 107.0Z" fill="#FFF8EC" stroke="#1B2A3A" stroke-width="1.5"/><path d="M26.8 89.2L30.8 93.2L26.8 97.2L22.8 93.2Z" fill="#FFF8EC" stroke="#1B2A3A" stroke-width="1.5"/><path d="M13.0 56.0L17.0 60.0L13.0 64.0L9.0 60.0Z" fill="#FFF8EC" stroke="#1B2A3A" stroke-width="1.5"/><path d="M26.8 22.8L30.8 26.8L26.8 30.8L22.8 26.8Z" fill="#FFF8EC" stroke="#1B2A3A" stroke-width="1.5"/>
<circle cx="60" cy="60" r="42" fill="#FFF8EC"/>
<g clip-path="url(#clip-almeria_moneda)"><rect x="0" y="0" width="120" height="124" fill="#F7E6CF"/><circle cx="60" cy="62" r="36" fill="#F2C14E" stroke="#1B2A3A" stroke-width="2.6"/><circle cx="60" cy="62" r="29" fill="none" stroke="#C9962A" stroke-width="2"/><circle cx="92.0" cy="62.0" r="1.4" fill="#C9962A"/><circle cx="90.1" cy="72.9" r="1.4" fill="#C9962A"/><circle cx="84.5" cy="82.6" r="1.4" fill="#C9962A"/><circle cx="76.0" cy="89.7" r="1.4" fill="#C9962A"/><circle cx="65.6" cy="93.5" r="1.4" fill="#C9962A"/><circle cx="54.4" cy="93.5" r="1.4" fill="#C9962A"/><circle cx="44.0" cy="89.7" r="1.4" fill="#C9962A"/><circle cx="35.5" cy="82.6" r="1.4" fill="#C9962A"/><circle cx="29.9" cy="72.9" r="1.4" fill="#C9962A"/><circle cx="28.0" cy="62.0" r="1.4" fill="#C9962A"/><circle cx="29.9" cy="51.1" r="1.4" fill="#C9962A"/><circle cx="35.5" cy="41.4" r="1.4" fill="#C9962A"/><circle cx="44.0" cy="34.3" r="1.4" fill="#C9962A"/><circle cx="54.4" cy="30.5" r="1.4" fill="#C9962A"/><circle cx="65.6" cy="30.5" r="1.4" fill="#C9962A"/><circle cx="76.0" cy="34.3" r="1.4" fill="#C9962A"/><circle cx="84.5" cy="41.4" r="1.4" fill="#C9962A"/><circle cx="90.1" cy="51.1" r="1.4" fill="#C9962A"/><path d="M42 52Q50 44 58 52T74 52" fill="none" stroke="#1B2A3A" stroke-width="2.4"/><path d="M44 64H76M48 74Q60 80 72 74" fill="none" stroke="#1B2A3A" stroke-width="2.4"/><circle cx="60" cy="44" r="2" fill="#1B2A3A"/><path d="M94 24Q94 30 100 30Q94 30 94 36Q94 30 88 30Q94 30 94 24Z" fill="#FFFFFF" stroke="#1B2A3A" stroke-width="1.2"/></g>
<circle cx="60" cy="60" r="42" fill="none" stroke="#1B2A3A" stroke-width="2.5"/>
</svg>
