<svg xmlns="http://www.w3.org/2000/svg" viewBox="0 0 120 124" stroke-linecap="round" stroke-linejoin="round" role="img" aria-label="Atún de almadraba">
<defs><clipPath id="clip-cadiz_atun"><circle cx="60" cy="60" r="40.8"/></clipPath></defs>
<circle cx="60" cy="64" r="52" fill="#1B2A3A"/>
<circle cx="60" cy="60" r="52" fill="#2F6F73" stroke="#1B2A3A" stroke-width="3"/>
<path d="M60.0 9.0L64.0 13.0L60.0 17.0L56.0 13.0Z" fill="#FFF8EC" stroke="#1B2A3A" stroke-width="1.5"/><path d="M93.2 22.8L97.2 26.8L93.2 30.8L89.2 26.8Z" fill="#FFF8EC" stroke="#1B2A3A" stroke-width="1.5"/><path d="M107.0 56.0L111.0 60.0L107.0 64.0L103.0 60.0Z" fill="#FFF8EC" stroke="#1B2A3A" stroke-width="1.5"/><path d="M93.2 89.2L97.2 93.2L93.2 97.2L89.2 93.2Z" fill="#FFF8EC" stroke="#1B2A3A" stroke-width="1.5"/><path d="M60.0 103.0L64.0 107.0L60.0 111.0L56.0 107.0Z" fill="#FFF8EC" stroke="#1B2A3A" stroke-width="1.5"/><path d="M26.8 89.2L30.8 93.2L26.8 97.2L22.8 93.2Z" fill="#FFF8EC" stroke="#1B2A3A" stroke-width="1.5"/><path d="M13.0 56.0L17.0 60.0L13.0 64.0L9.0 60.0Z" fill="#FFF8EC" stroke="#1B2A3A" stroke-width="1.5"/><path d="M26.8 22.8L30.8 26.8L26.8 30.8L22.8 26.8Z" fill="#FFF8EC" stroke="#1B2A3A" stroke-width="1.5"/>
<circle cx="60" cy="60" r="42" fill="#FFF8EC"/>
<g clip-path="url(#clip-cadiz_atun)"><rect x="0" y="0" width="120" height="124" fill="#E6F0EC"/><path d="M14 84Q24 79 34 84T54 84T74 84T94 84T114 84L114 110L14 110Z" fill="#DCEBE6" stroke="#1B2A3A" stroke-width="2"/><path d="M22 92Q28 89 34 92M60 94Q66 91 72 94M88 91Q94 88 100 91" fill="none" stroke="#2F6F73" stroke-width="1.6"/><g transform="translate(8 7) scale(.86) rotate(-14 60 60)"><path d="M22 60Q40 40 72 44Q86 46 92 56L104 46Q100 58 104 70L92 62Q86 72 72 74Q40 78 22 60Z" fill="#2B3F5C" stroke="#1B2A3A" stroke-width="2.4"/><path d="M24 62Q44 76 72 72Q84 70 90 62Q70 66 48 64Q34 64 24 62Z" fill="#B9C8D0"/><path d="M26 62Q44 68 70 66" fill="none" stroke="#8FA6B3" stroke-width="1.3"/><path d="M50 46L58 34L64 45Z" fill="#2B3F5C" stroke="#1B2A3A" stroke-width="1.8"/><path d="M50 72L56 80L60 73Z" fill="#8FA6B3" stroke="#1B2A3A" stroke-width="1.6"/><path d="M70 46l2 -3l2 3Z" fill="#F2C14E" stroke="#1B2A3A" stroke-width=".8"/><path d="M76 49l2 -3l2 3Z" fill="#F2C14E" stroke="#1B2A3A" stroke-width=".8"/><path d="M82 52l2 -3l2 3Z" fill="#F2C14E" stroke="#1B2A3A" stroke-width=".8"/><path d="M70 73l2 3l2 -3Z" fill="#F2C14E" stroke="#1B2A3A" stroke-width=".8"/><path d="M76 70l2 3l2 -3Z" fill="#F2C14E" stroke="#1B2A3A" stroke-width=".8"/><path d="M82 67l2 3l2 -3Z" fill="#F2C14E" stroke="#1B2A3A" stroke-width=".8"/><circle cx="32" cy="56" r="3.6" fill="#FFFFFF" stroke="#1B2A3A" stroke-width="1.6"/><circle cx="32.6" cy="56" r="1.8" fill="#1B2A3A"/><path d="M38 52Q41 58 38 64" fill="none" stroke="#1C2B40" stroke-width="1.6"/><path d="M26 44Q34 40 44 42" fill="none" stroke="#FFFFFF" stroke-width="1.8" opacity=".6"/></g><circle cx="30" cy="88" r="2.5" fill="#FFFFFF" stroke="#1B2A3A" stroke-width="1.2"/><circle cx="96" cy="80" r="2" fill="#FFFFFF" stroke="#1B2A3A" stroke-width="1.2"/><path d="M92 25Q92 30 97 30Q92 30 92 35Q92 30 87 30Q92 30 92 25Z" fill="#F2C14E" stroke="#1B2A3A" stroke-width="1.2"/></g>
<circle cx="60" cy="60" r="42" fill="none" stroke="#1B2A3A" stroke-width="2.5"/>
</svg>
