<svg stroke-linecap="round" stroke-linejoin="round" xmlns="http://www.w3.org/2000/svg" width="200" height="260" viewBox="0 0 200 260" role="img" aria-label="neutral"><g id="shadow"><ellipse cx="100" cy="249" rx="69.6" ry="9" fill="#1B2A3A" opacity="0"/><ellipse cx="100" cy="249" rx="50" ry="6" fill="#1B2A3A" opacity=".2"/><ellipse cx="100" cy="249" rx="28" ry="3.5" fill="#1B2A3A" opacity=".1"/></g><g id="back"></g><g id="body"><path d="M82 200L118 200L117 238L104 238L100 218L96 238L83 238Z" fill="#2B2A33" stroke="#1B2A3A" stroke-width="2.6"/><path d="M78 248Q80 240 92 240Q98 241 98 248Z" fill="#2B2A33" stroke="#1B2A3A" stroke-width="2.4"/><path d="M102 248Q102 241 108 240Q120 240 122 248Z" fill="#2B2A33" stroke="#1B2A3A" stroke-width="2.4"/><path d="M72 118Q100 106 128 118L132 204L68 204Z" fill="#FFF8EC" stroke="#1B2A3A" stroke-width="2.8"/><path d="M104 112Q120 112 128 118L132 204L112 204Z" fill="#C6C1B8"/><path d="M92 112L100 128L108 112" fill="none" stroke="#1B2A3A" stroke-width="1.8"/><path d="M68 172L132 172L133 188L67 188Z" fill="#D8412F" stroke="#1B2A3A" stroke-width="2"/></g><g id="arms"><path d="M76 124Q60 136 58 154" fill="none" stroke="#1B2A3A" stroke-width="16"/><path d="M76 124Q60 136 58 154" fill="none" stroke="#FFF8EC" stroke-width="12"/><path d="M124 124Q142 132 146 148" fill="none" stroke="#1B2A3A" stroke-width="16"/><path d="M124 124Q142 132 146 148" fill="none" stroke="#FFF8EC" stroke-width="12"/><path d="M146 150L138 94" stroke="#5B3A26" stroke-width="5"/><path d="M133 152Q128 164 136 172Q130 182 138 192Q146 196 154 192Q162 182 156 172Q164 164 159 152Q146 146 133 152Z" fill="#B8642E" stroke="#1B2A3A" stroke-width="2"/><path d="M142 168q-2 6 0 10M150 168q2 6 0 10" fill="none" stroke="#1B2A3A" stroke-width="1.4"/><path d="M116 130L166 186" stroke="#1B2A3A" stroke-width="2"/><circle cx="58" cy="156" r="6" fill="#C98F66" stroke="#1B2A3A" stroke-width="2.4"/><circle cx="146" cy="150" r="6" fill="#C98F66" stroke="#1B2A3A" stroke-width="2.4"/></g><g id="head"><path d="M90 96L90 114L110 114L110 96Z" fill="#C98F66"/><ellipse cx="61" cy="80" rx="6" ry="8" fill="#C98F66" stroke="#1B2A3A" stroke-width="2.6"/><ellipse cx="139" cy="80" rx="6" ry="8" fill="#C98F66" stroke="#1B2A3A" stroke-width="2.6"/><path d="M62 74Q60 36 100 34Q140 36 138 74Q140 104 100 108Q60 104 62 74Z" fill="#C98F66" stroke="#1B2A3A" stroke-width="3"/><path d="M118 40Q140 50 138 74Q138 100 110 107Q128 90 126 66Q124 48 118 40Z" fill="#A8714C" opacity=".5"/><path d="M60 76Q56 38 100 34Q144 38 140 76L134 76Q132 58 124 52Q112 60 96 56Q80 58 68 66L66 76Z" fill="#2A1E1A" stroke="#1B2A3A" stroke-width="2.4"/><path d="M62 70L64 90M138 70L136 90" stroke="#2A1E1A" stroke-width="5"/><path d="M50 56Q100 42 150 56Q100 64 50 56Z" fill="#2B2A33" stroke="#1B2A3A" stroke-width="2.4"/><path d="M70 52Q68 22 100 20Q132 22 130 52Z" fill="#2B2A33" stroke="#1B2A3A" stroke-width="2.4"/><circle cx="80" cy="30" r="6" fill="#D8412F" stroke="#1B2A3A" stroke-width="1.2"/><circle cx="96" cy="22" r="6" fill="#F2C14E" stroke="#1B2A3A" stroke-width="1.2"/><circle cx="112" cy="26" r="6" fill="#C0476A" stroke="#1B2A3A" stroke-width="1.2"/><circle cx="124" cy="36" r="5" fill="#4F8B5A" stroke="#1B2A3A" stroke-width="1.2"/><circle cx="86" cy="42" r="5" fill="#3A6EA5" stroke="#1B2A3A" stroke-width="1.2"/><circle cx="106" cy="40" r="5" fill="#D8412F" stroke="#1B2A3A" stroke-width="1.2"/><rect x="74" y="44" width="6" height="6" transform="rotate(45 77 47)" fill="#DDE8F0" stroke="#1B2A3A" stroke-width="1"/><rect x="116" y="46" width="6" height="6" transform="rotate(45 119 49)" fill="#DDE8F0" stroke="#1B2A3A" stroke-width="1"/><rect x="98" y="32" width="6" height="6" transform="rotate(45 101 35)" fill="#DDE8F0" stroke="#1B2A3A" stroke-width="1"/><path d="M54 58Q48 80 54 100" fill="none" stroke="#D8412F" stroke-width="3.4"/><path d="M60 58Q64 80 60 100" fill="none" stroke="#F2C14E" stroke-width="3.4"/><path d="M140 58Q146 80 140 100" fill="none" stroke="#3A6EA5" stroke-width="3.4"/><path d="M146 58Q142 80 146 100" fill="none" stroke="#4F8B5A" stroke-width="3.4"/></g><g id="face"><ellipse cx="83.8" cy="80" rx="6.5" ry="7.8" fill="#FFF" stroke="#1B2A3A" stroke-width="2"/><circle cx="83.8" cy="80.8" r="3.6" fill="#3A2A1E"/><circle cx="83.8" cy="80.8" r="1.8" fill="#1B2A3A"/><circle cx="85.4" cy="78.7" r="1.4" fill="#FFF"/><ellipse cx="116.2" cy="80" rx="6.5" ry="7.8" fill="#FFF" stroke="#1B2A3A" stroke-width="2"/><circle cx="116.2" cy="80.8" r="3.6" fill="#3A2A1E"/><circle cx="116.2" cy="80.8" r="1.8" fill="#1B2A3A"/><circle cx="117.9" cy="78.7" r="1.4" fill="#FFF"/><path d="M76.9 66.2Q83.8 61.2 90.6 65Q83.8 64.2 76.9 68Z" fill="#1B2A3A"/><path d="M109.4 65Q116.2 61.2 123.1 66.2Q116.2 64.2 109.4 66.8Z" fill="#1B2A3A"/><path d="M93.8 96.2Q100 100 106.2 96.2" fill="none" stroke="#1B2A3A" stroke-width="2.5"/></g><g id="rim"><path d="M70 126L66 200" fill="none" stroke="#FFF" stroke-width="2" opacity=".35"/></g></svg>
