<svg stroke-linecap="round" stroke-linejoin="round" xmlns="http://www.w3.org/2000/svg" width="200" height="260" viewBox="0 0 200 260" role="img" aria-label="thinking"><g id="shadow"><ellipse cx="100" cy="249" rx="69.6" ry="9" fill="#1B2A3A" opacity="0"/><ellipse cx="100" cy="249" rx="50" ry="6" fill="#1B2A3A" opacity=".2"/><ellipse cx="100" cy="249" rx="28" ry="3.5" fill="#1B2A3A" opacity=".1"/></g><g id="back"><path d="M58 80Q52 34 100 30Q148 34 142 80L148 132Q132 140 124 122L76 122Q68 140 52 132Z" fill="#1E1A1A" stroke="#1B2A3A" stroke-width="2.4"/></g><g id="body"><path d="M72 116Q100 104 128 116L138 244L62 244Z" fill="#E8C872" stroke="#1B2A3A" stroke-width="2.8"/><path d="M104 110Q120 110 128 116L138 244L112 244Z" fill="#B49C58"/><path d="M84 124Q82 180 76 240M116 124Q118 180 124 240" fill="none" stroke="#B49C58" stroke-width="1.8"/><path d="M70 168Q100 176 130 168" fill="none" stroke="#6E2C5E" stroke-width="5"/><path d="M72 118Q96 150 132 206L124 214Q92 170 70 130Z" fill="#2F6F73" stroke="#1B2A3A" stroke-width="2"/><path d="M78 122L126 124" stroke="#6E2C5E" stroke-width="3"/></g><g id="arms"><path d="M76 124Q60 136 58 154" fill="none" stroke="#1B2A3A" stroke-width="16"/><path d="M76 124Q60 136 58 154" fill="none" stroke="#E8C872" stroke-width="12"/><path d="M124 124Q142 132 146 148" fill="none" stroke="#1B2A3A" stroke-width="16"/><path d="M124 124Q142 132 146 148" fill="none" stroke="#E8C872" stroke-width="12"/><path d="M52 160L28 116" stroke="#6E4C33" stroke-width="5"/><path d="M32 120L22 106" stroke="#6E4C33" stroke-width="6"/><ellipse cx="64" cy="166" rx="17" ry="21" transform="rotate(-40 64 166)" fill="#C98F4E" stroke="#1B2A3A" stroke-width="2.2"/><circle cx="62" cy="162" r="4" fill="#5B3A26"/><circle cx="58" cy="156" r="6" fill="#C98F66" stroke="#1B2A3A" stroke-width="2.4"/><circle cx="146" cy="150" r="6" fill="#C98F66" stroke="#1B2A3A" stroke-width="2.4"/></g><g id="head"><path d="M90 96L90 114L110 114L110 96Z" fill="#C98F66"/><ellipse cx="61" cy="80" rx="6" ry="8" fill="#C98F66" stroke="#1B2A3A" stroke-width="2.6"/><ellipse cx="139" cy="80" rx="6" ry="8" fill="#C98F66" stroke="#1B2A3A" stroke-width="2.6"/><path d="M62 74Q60 36 100 34Q140 36 138 74Q140 104 100 108Q60 104 62 74Z" fill="#C98F66" stroke="#1B2A3A" stroke-width="3"/><path d="M118 40Q140 50 138 74Q138 100 110 107Q128 90 126 66Q124 48 118 40Z" fill="#A8714C" opacity=".5"/><path d="M60 76Q56 38 100 34Q144 38 140 76L134 76Q132 58 124 52Q112 60 96 56Q80 58 68 66L66 76Z" fill="#1E1A1A" stroke="#1B2A3A" stroke-width="2.4"/><path d="M62 70L64 90M138 70L136 90" stroke="#1E1A1A" stroke-width="5"/><path d="M84 95Q100 86 116 95Q108 100 100 96Q92 100 84 95Z" fill="#1E1A1A" stroke="#1B2A3A" stroke-width="1.6"/><path d="M58 66Q52 22 100 18Q148 22 142 66Q122 54 100 56Q78 54 58 66Z" fill="#6E2C5E" stroke="#1B2A3A" stroke-width="2.6"/><path d="M64 60Q100 44 136 60" fill="none" stroke="#552249" stroke-width="2"/><path d="M68 52Q100 36 132 52" fill="none" stroke="#552249" stroke-width="2"/><path d="M72 44Q100 28 128 44" fill="none" stroke="#552249" stroke-width="2"/><path d="M76 36Q100 20 124 36" fill="none" stroke="#552249" stroke-width="2"/><circle cx="100" cy="40" r="5" fill="#F2C14E" stroke="#1B2A3A" stroke-width="1.6"/></g><g id="face"><ellipse cx="83.8" cy="80" rx="6.5" ry="7.8" fill="#FFF" stroke="#1B2A3A" stroke-width="2"/><circle cx="86.2" cy="78" r="3.6" fill="#3A2A1E"/><circle cx="86.2" cy="78" r="1.8" fill="#1B2A3A"/><circle cx="87.9" cy="76" r="1.4" fill="#FFF"/><ellipse cx="116.2" cy="80" rx="6.5" ry="7.8" fill="#FFF" stroke="#1B2A3A" stroke-width="2"/><circle cx="118.8" cy="78" r="3.6" fill="#3A2A1E"/><circle cx="118.8" cy="78" r="1.8" fill="#1B2A3A"/><circle cx="120.4" cy="76" r="1.4" fill="#FFF"/><path d="M76.9 66.2Q83.8 62.5 90.6 66.2Q83.8 65.5 76.9 68Z" fill="#1B2A3A"/><path d="M109.4 62.5Q116.2 56.2 123.1 60Q116.2 59.2 109.4 64.3Z" fill="#1B2A3A"/><path d="M97.5 97.5Q103.8 95 108.8 98.1" fill="none" stroke="#1B2A3A" stroke-width="2.5"/><circle cx="132.5" cy="52.5" r="2.2" fill="#FFF" stroke="#1B2A3A" stroke-width="1.6"/><circle cx="141.2" cy="42.5" r="3.1" fill="#FFF" stroke="#1B2A3A" stroke-width="1.6"/><circle cx="152.5" cy="31.2" r="4.2" fill="#FFF" stroke="#1B2A3A" stroke-width="1.6"/></g><g id="rim"><path d="M70 126L66 236" fill="none" stroke="#FFF" stroke-width="2" opacity=".35"/></g></svg>
