<svg stroke-linecap="round" stroke-linejoin="round" xmlns="http://www.w3.org/2000/svg" width="200" height="260" viewBox="0 0 200 260" role="img" aria-label="happy"><g id="shadow"><ellipse cx="100" cy="249" rx="69.6" ry="9" fill="#1B2A3A" opacity="0"/><ellipse cx="100" cy="249" rx="50" ry="6" fill="#1B2A3A" opacity=".2"/><ellipse cx="100" cy="249" rx="28" ry="3.5" fill="#1B2A3A" opacity=".1"/></g><g id="back"><path d="M54 84Q48 26 100 24Q152 26 146 84L154 128Q126 118 100 118Q74 118 46 128Z" fill="#2B2A33" stroke="#1B2A3A" stroke-width="2.4"/></g><g id="body"><path d="M74 118Q100 106 126 118L142 244L58 244Z" fill="#2B2A33" stroke="#1B2A3A" stroke-width="2.8"/><path d="M104 112Q120 112 126 118L142 244L114 244Z" fill="#212027"/><path d="M62 214Q100 226 138 214L142 244L58 244Z" fill="#3A3A48" stroke="#1B2A3A" stroke-width="2"/><path d="M84 118L100 138L116 118" fill="none" stroke="#F2C14E" stroke-width="3"/><path d="M86 112Q100 124 114 112L112 120Q100 130 88 120Z" fill="#FFF8EC" stroke="#1B2A3A" stroke-width="1.8"/></g><g id="arms"><path d="M76 124Q60 136 58 154" fill="none" stroke="#1B2A3A" stroke-width="16"/><path d="M76 124Q60 136 58 154" fill="none" stroke="#2B2A33" stroke-width="12"/><path d="M124 124Q142 116 150 98" fill="none" stroke="#1B2A3A" stroke-width="16"/><path d="M124 124Q142 116 150 98" fill="none" stroke="#2B2A33" stroke-width="12"/><path d="M44 136H68V176H44Z" fill="#FFF8EC" stroke="#1B2A3A" stroke-width="2"/><path d="M41 134H71M41 178H71" stroke="#8A6243" stroke-width="4"/><path d="M48 144H64" stroke="#8A7A62" stroke-width="1.2"/><path d="M48 151H64" stroke="#8A7A62" stroke-width="1.2"/><path d="M48 158H64" stroke="#8A7A62" stroke-width="1.2"/><path d="M48 165H64" stroke="#8A7A62" stroke-width="1.2"/><path d="M48 172H64" stroke="#8A7A62" stroke-width="1.2"/><path d="M150 96L180 66Q190 88 184 106Z" fill="#A8431F" stroke="#1B2A3A" stroke-width="1.8"/><path d="M150 96L180 66" stroke="#FFF8EC" stroke-width="1"/><path d="M150 96L182 78" stroke="#FFF8EC" stroke-width="1"/><path d="M150 96L184 90" stroke="#FFF8EC" stroke-width="1"/><path d="M150 96L186 102" stroke="#FFF8EC" stroke-width="1"/><circle cx="58" cy="156" r="6" fill="#F1C9A5" stroke="#1B2A3A" stroke-width="2.4"/><circle cx="150" cy="96" r="6" fill="#F1C9A5" stroke="#1B2A3A" stroke-width="2.4"/></g><g id="head"><path d="M90 96L90 114L110 114L110 96Z" fill="#F1C9A5"/><ellipse cx="61" cy="80" rx="6" ry="8" fill="#F1C9A5" stroke="#1B2A3A" stroke-width="2.6"/><ellipse cx="139" cy="80" rx="6" ry="8" fill="#F1C9A5" stroke="#1B2A3A" stroke-width="2.6"/><path d="M62 74Q60 36 100 34Q140 36 138 74Q140 104 100 108Q60 104 62 74Z" fill="#F1C9A5" stroke="#1B2A3A" stroke-width="3"/><path d="M118 40Q140 50 138 74Q138 100 110 107Q128 90 126 66Q124 48 118 40Z" fill="#D4A882" opacity=".5"/><path d="M54 86Q48 26 100 24Q152 26 146 86L136 86Q138 42 100 40Q62 42 64 86Z" fill="#2B2A33" stroke="#1B2A3A" stroke-width="2.4"/><path d="M64 86Q62 42 100 40Q138 42 136 86" fill="none" stroke="#212027" stroke-width="2"/></g><g id="face"><path d="M77.5 81.9Q83.8 72.5 90 81.9" fill="none" stroke="#1B2A3A" stroke-width="3.5"/><path d="M110 81.9Q116.2 72.5 122.5 81.9" fill="none" stroke="#1B2A3A" stroke-width="3.5"/><path d="M76.9 62.5Q83.8 57.5 90.6 61.2Q83.8 60.5 76.9 64.3Z" fill="#1B2A3A"/><path d="M109.4 61.2Q116.2 57.5 123.1 62.5Q116.2 60.5 109.4 63Z" fill="#1B2A3A"/><path d="M90 95Q100 93.1 110 95Q108 105 100 105Q92 105 90 95Z" fill="#6B1F18" stroke="#1B2A3A" stroke-width="2.2"/><ellipse cx="100" cy="101.9" rx="5" ry="2.6" fill="#E0766A"/><path d="M92 94.8Q100 93.5 108 94.8L107 97Q100 96.2 93 97Z" fill="#FFF"/><ellipse cx="81.2" cy="90" rx="6.2" ry="3.5" fill="#EE7F6B" opacity=".6"/><ellipse cx="118.8" cy="90" rx="6.2" ry="3.5" fill="#EE7F6B" opacity=".6"/></g><g id="rim"><path d="M70 126L66 236" fill="none" stroke="#FFF" stroke-width="2" opacity=".35"/></g></svg>
